<?xml version="1.0" encoding="UTF-8" standalone="no"?>
<svg
   width="800px"
   height="800px"
   viewBox="0 0 24 24"
   fill="currentColor"
   version="1.1"
   id="svg4"
   xmlns="http://www.w3.org/2000/svg"
   xmlns:svg="http://www.w3.org/2000/svg">
  <defs
     id="defs8" />
  <path
     d="m 7.1710581,13.20726 a 1.2072578,1.2072578 0 0 1 0.3536888,-0.853569 1.2072578,1.2072578 0 0 1 1.707138,0 l 1.5609471,1.560947 V 7.1709715 a 1.2072578,1.2072578 0 0 1 1.207258,-1.207258 1.2072578,1.2072578 0 0 1 1.207258,1.207258 v 6.7436665 l 1.560946,-1.560947 a 1.2072578,1.2072578 0 0 1 1.707138,0 1.2072578,1.2072578 0 0 1 0,1.707138 l -3.621774,3.621773 a 1.2072578,1.2072578 0 0 1 -0.539964,0.313605 1.2072578,1.2072578 0 0 1 -0.216929,0 1.2072578,1.2072578 0 0 1 -0.09668,0.04008 1.2072578,1.2072578 0 0 1 -0.200424,-0.04008 1.2072578,1.2072578 0 0 1 -0.11318,0 1.2072578,1.2072578 0 0 1 -0.05895,-0.03301 1.2072578,1.2072578 0 0 1 -0.481016,-0.280593 L 7.5247421,14.060834 A 1.2072578,1.2072578 0 0 1 7.1710581,13.20726 Z"
     id="path2" />
</svg>
