<?xml version="1.0" encoding="UTF-8" standalone="no"?>
<svg
   width="882.36102"
   height="320.49802"
   viewBox="0 0 233.45801 84.798435"
   fill="currentColor"
   stroke="currentColor"
   version="1.1"
   id="svg43232"
   xmlns="http://www.w3.org/2000/svg"
   xmlns:svg="http://www.w3.org/2000/svg">
   <path d="m 6.0281421,6.6179912 c 0,0 13.6379039,9.6883198 19.3425189,6.2454318 2.220439,-1.340095 0.496527,-7.2744452 0.496527,-7.2744452 0,0 9.864736,11.4387342 16.307112,10.1861682 3.605342,-0.700973 5.787873,-8.6001121 5.787873,-8.6001121 0,0 10.212189,8.9573131 16.210171,7.8565361 3.361301,-0.616881 6.513365,-7.2653912 6.513365,-7.2653912 0,0 12.534927,9.7080182 19.547936,8.2848152 3.372054,-0.684317 6.66387,-7.2433769 6.66387,-7.2433769 0,0 10.718075,8.6039949 17.306755,8.7215399 6.59305,0.117623 17.67874,-8.1029813 17.67874,-8.1029813 0,0 3.67126,6.3053753 7.06382,7.1272573 8.57692,2.077845 25.29903,-7.5634725 25.29903,-7.5634725 0,0 3.2047,7.6202965 6.95762,8.4825325 9.31211,2.13946 26.12538,-11.0789552 26.12538,-11.0789552 0,0 2.56837,7.2488792 6.01893,8.2203392 7.01014,1.973609 20.4116,-7.5111346 20.4116,-7.5111346 0,0 -10.04632,9.3517146 -8.19276,14.5290896 0.99516,2.779674 8.59658,3.925313 8.59658,3.925313 0,0 -11.93895,6.501932 -11.97686,11.884002 -0.0312,4.425078 9.70877,9.885642 9.70877,9.885642 0,0 -5.63714,7.565499 -5.17292,11.772028 0.69812,6.326224 11.49155,15.93264 11.49155,15.93264 0,0 -12.45298,-7.087342 -18.02534,-4.538725 -2.96077,1.354161 -3.61571,8.445688 -3.61571,8.445688 0,0 -9.83361,-11.412172 -16.58579,-10.78104 -5.42471,0.507053 -11.12463,10.946836 -11.12463,10.946836 0,0 -14.53498,-12.571636 -22.9994,-10.95503 -5.07349,0.968977 -9.74395,11.060212 -9.74395,11.060212 0,0 -10.04203,-10.590207 -16.96706,-11.015456 -6.20851,-0.38125 -16.52399,7.926907 -16.52399,7.926907 0,0 -6.70453,-7.264445 -11.39038,-7.577316 -7.225121,-0.482417 -19.239015,9.226258 -19.239015,9.226258 0,0 -4.229765,-8.743428 -8.663389,-9.455389 -7.489995,-1.202757 -19.730735,10.454959 -19.730735,10.454959 0,0 -0.247702,-9.859584 -4.32729,-11.248594 -7.855766,-2.674713 -21.841465,11.386952 -21.841465,11.386952 0,0 3.771807,-8.035928 0.320484,-9.967283 -7.110911,-3.979255 -22.1307969,10.814979 -22.1307969,10.814979 0,0 12.1429359,-12.153586 10.1105789,-17.605524 -1.223213,-3.281353 -9.9794125,-0.538799 -9.9794125,-0.538799 0,0 12.8195515,-8.332585 11.2706755,-13.928465 C 15.982872,43.90984 5.4533539,42.712148 5.4533539,42.712148 c 0,0 10.4966521,-4.291808 10.8228921,-8.660559 C 16.657687,28.943603 5.2443672,22.452298 5.2443672,22.452298 c 0,0 9.2157948,0.0112 10.3734858,-3.141465 C 17.407224,14.437949 6.0281421,6.6179912 6.0281421,6.6179912 Z" />
</svg>
