<?xml version="1.0" encoding="UTF-8" standalone="no"?>
<svg
   width="843.55664"
   height="313.49219"
   viewBox="0 0 223.19102 82.944809"
   fill="currentColor"
   stroke="currentColor"
   version="1.1"
   id="svg43232"
   xmlns="http://www.w3.org/2000/svg"
   xmlns:svg="http://www.w3.org/2000/svg">
   <path d="m 97.094766,6.2041082 a 14.402332,13.109165 0 0 0 -13.595741,8.8115458 16.402641,14.929869 0 0 0 -11.187572,-4.012807 16.402641,14.929869 0 0 0 -7.506327,1.665626 11.277583,10.264983 0 0 0 -7.28864,-2.43254 11.277583,10.264983 0 0 0 -9.826056,5.234826 16.402641,14.929869 0 0 0 -7.387763,2.051738 16.402641,14.929869 0 0 0 -12.9971,-5.824386 16.402641,14.929869 0 0 0 -16.402839,14.930048 16.402641,14.929869 0 0 0 3.936351,9.686816 16.402641,14.929869 0 0 0 -1.88387,6.92478 16.402641,14.929869 0 0 0 0.164723,2.077389 11.277583,10.264983 0 0 0 -6.2079761,9.163602 11.277583,10.264983 0 0 0 11.2779531,10.264875 11.277583,10.264983 0 0 0 2.632656,-0.287482 21.302674,19.389933 0 0 0 19.818782,12.282561 21.302674,19.389933 0 0 0 15.370765,-5.977857 10.503494,9.5603979 0 0 0 7.568036,2.938507 10.503494,9.5603979 0 0 0 9.166192,-4.900461 14.402332,13.109165 0 0 0 3.131685,0.316229 14.402332,13.109165 0 0 0 8.682226,-2.659872 14.402332,13.109165 0 0 0 12.561727,6.707619 14.402332,13.109165 0 0 0 10.784272,-4.431646 25.155817,22.897107 0 0 0 16.48106,5.619168 25.155817,22.897107 0 0 0 16.56076,-5.681973 18.972787,17.269244 0 0 0 14.16864,5.798736 18.972787,17.269244 0 0 0 15.75852,-7.660733 12.33209,11.224807 0 0 0 5.94898,1.399374 12.33209,11.224807 0 0 0 9.92276,-4.572733 25.155817,22.897107 0 0 0 3.48105,0.333477 11.650089,10.604042 0 0 0 11.1934,7.685059 11.650089,10.604042 0 0 0 11.64967,-10.604106 11.650089,10.604042 0 0 0 -0.33284,-2.514804 6.1317537,5.5811911 0 0 0 2.13508,-4.227755 6.1317537,5.5811911 0 0 0 -1.11856,-3.213607 25.155817,22.897107 0 0 0 2.5243,-9.99155 25.155817,22.897107 0 0 0 -5.33383,-14.095464 9.3257412,8.4883945 0 0 0 3.32605,-6.491345 9.3257412,8.4883945 0 0 0 -9.32557,-8.488238 9.3257412,8.4883945 0 0 0 -5.74344,1.80406 11.650089,10.604042 0 0 0 -10.6074,-6.2215532 11.650089,10.604042 0 0 0 -11.14773,7.5289332 11.321896,10.305317 0 0 0 -7.61615,-2.681102 11.321896,10.305317 0 0 0 -9.22304,4.338325 18.972787,17.269244 0 0 0 -15.71819,-7.5983707 18.972787,17.269244 0 0 0 -9.94705,2.5771657 12.33209,11.224807 0 0 0 -6.56026,-1.720912 12.33209,11.224807 0 0 0 -7.66327,2.431656 8.2449236,7.5046221 0 0 0 -5.94122,-2.301625 8.2449236,7.5046221 0 0 0 -5.60058,1.997336 14.402332,13.109165 0 0 0 -12.082624,-5.9765298 z" />
</svg>
