<?xml version="1.0" encoding="UTF-8" standalone="no"?>
<svg
   width="858.66919"
   height="321.57227"
   viewBox="0 0 227.18955 85.082663"
   fill="currentColor"
   stroke="currentColor"
   version="1.1"
   id="svg43232"
   xmlns="http://www.w3.org/2000/svg"
   xmlns:svg="http://www.w3.org/2000/svg">
   <path d="m 200.56573,7.8238101 -3.29984,7.4851079 -10.29187,0.275549 -5.49215,5.727029 -0.68183,-6.004013 -29.35512,-0.241109 -1.35656,-6.7345133 -4.55776,6.9720353 -27.79711,-0.03945 -4.2704,-4.43682 -5.23178,11.352879 -4.79475,-13.6613402 -3.35233,6.7804392 -41.780451,-0.04165 2.677622,3.994781 -9.282974,-3.958189 -21.514559,-0.0024 -3.051522,-3.592213 -2.803905,5.61293 -6.179659,-3.349662 1.901435,5.64451 -8.207377,0.567606 3.610591,3.061925 -0.497017,16.830777 5.162513,-1.261832 -5.162513,3.707876 -0.180708,13.574493 -6.068011,5.389379 12.533848,-0.229615 -5.293496,10.224831 7.78594,-5.37972 2.046168,8.459579 4.82311,-5.7055 19.843722,0.08609 -2.45838,-3.897899 12.491991,3.941674 25.023697,0.109142 2.218574,8.093619 5.169346,-7.950811 29.449505,0.09401 8.19531,-4.139025 1.63611,4.170588 21.26408,0.06815 2.98414,3.371206 5.18425,-8.221347 4.54144,10.420022 3.43038,-5.518208 19.55282,0.06252 2.4875,4.705906 6.28181,-7.0402 7.14385,8.654761 1.56939,-8.196949 7.14811,4.169879 -4.45559,-8.474659 9.18789,-0.06953 -7.68024,-5.603597 0.41011,-13.21357 -5.29494,-2.231673 5.43825,-2.373772 0.28663,-9.232419 4.18315,-4.306932 -5.99733,-1.726508 4.84653,-8.087155 -8.00659,3.137988 2.2058,-7.8238 -6.57769,3.512564 z" />
</svg>
