<?xml version="1.0" encoding="UTF-8" standalone="no"?>
<svg
   height="800px"
   width="800px"
   version="1.1"
   viewBox="0 0 512 512"
   fill="currentColor"
   xml:space="preserve"
   xmlns="http://www.w3.org/2000/svg"
   xmlns:svg="http://www.w3.org/2000/svg">
<path d="m 395.12483,125.2198 c -2.14441,0.7514 -3.79972,2.38365 -5.74313,3.50087 -13.81837,9.12408 -27.08972,19.1076 -39.40575,30.1872 -9.60153,8.58893 -18.81502,17.60572 -27.76655,26.86848 -18.74244,19.46924 -36.12726,40.20756 -52.67749,61.56134 -12.84438,16.6019 -25.05557,33.68144 -37.07966,50.88225 -1.1867,1.58963 -2.27437,3.34101 -3.92655,4.49554 -3.54118,2.34187 -8.72985,1.65817 -11.54775,-1.52008 -22.76343,-25.78829 -45.42655,-51.66606 -68.32179,-77.33676 -1.40497,-1.39621 -3.85272,-1.73675 -5.45195,-0.47395 -2.53719,1.55795 -4.40028,3.93249 -6.63528,5.85732 -8.41714,8.01922 -16.8783,15.99211 -25.05518,24.25879 -1.34891,1.87566 -1.02726,4.63055 0.53392,6.28256 2.39835,3.27926 5.09453,6.32215 7.58142,9.53283 20.23492,25.21871 40.5035,50.41157 60.7695,75.60586 11.12435,13.81028 22.24404,27.62811 33.38798,41.42283 1.53392,1.64947 3.9254,2.05037 6.07959,1.93067 8.8486,-0.39224 17.71493,-0.53732 26.54155,-1.30269 1.87673,-0.36737 3.14868,-2.0612 3.72944,-3.78459 3.16643,-8.4803 6.40786,-16.97421 9.83811,-25.37778 6.25321,-15.36458 13.07032,-30.50282 20.56346,-45.30376 12.98348,-25.7707 27.74299,-50.63706 43.85787,-74.59396 10.95001,-16.26351 22.56925,-32.12031 34.80847,-47.47121 11.91408,-14.95874 24.4173,-29.46014 37.42232,-43.48069 3.14111,-3.41926 6.32127,-6.80864 9.38099,-10.29836 1.5302,-2.34292 0.87347,-5.81756 -1.44741,-7.40184 -1.81492,-1.41939 -4.06279,-2.07829 -6.08136,-3.13652 -1.01968,-0.46976 -2.10548,-0.92972 -3.23724,-0.94516 l -0.0594,0.0207 z" />
</svg>
