<?xml version="1.0" encoding="UTF-8" standalone="no"?>
<svg
   width="800px"
   height="800px"
   viewBox="0 0 25 25"
   version="1.1"
   fill="currentColor"
   id="svg11"
   xmlns="http://www.w3.org/2000/svg"
   xmlns:svg="http://www.w3.org/2000/svg">
  <path d="m 14.997874,12.482771 2.514051,-2.5118314 c 0.693636,-0.6923162 0.693636,-1.8195148 0,-2.5118311 -0.694527,-0.6966856 -1.819969,-0.6966856 -2.514051,0 L 12.484277,9.9709396 9.9706804,7.4591085 c -0.693636,-0.6966856 -1.8190779,-0.6966856 -2.5136056,0 -0.693636,0.6923163 -0.693636,1.8195149 0,2.5118311 L 9.9706804,12.482771 7.4570748,14.99906 c -0.693636,0.692317 -0.693636,1.819515 0,2.511832 0.6945277,0.696685 1.8199696,0.696685 2.5136056,0 l 2.5135966,-2.511832 2.513597,2.511832 c 0.694082,0.696685 1.819524,0.696685 2.514051,0 0.693636,-0.692317 0.693636,-1.819515 0,-2.511832 l -2.514051,-2.516289" />
</svg>
