<?xml version="1.0" encoding="UTF-8" standalone="no"?>
<svg
   width="800px"
   height="800px"
   viewBox="0 0 24 24"
   fill="currentColor"
   version="1.1"
   xmlns="http://www.w3.org/2000/svg"
   xmlns:svg="http://www.w3.org/2000/svg">
  <path d="m 9.2119385,9.8056551 c -0.6127276,0.00341 -1.1006359,0.014294 -1.5332031,0.09375 -0.4325672,0.079456 -0.8279192,0.2458879 -1.1289063,0.5468749 -0.3441864,0.344198 -0.508976,0.805991 -0.578125,1.320313 -0.069149,0.514321 -0.064453,1.11496 -0.064453,1.902344 v 0.55664 c 0,0.787384 -0.0047,1.38997 0.064453,1.904297 0.069149,0.514327 0.2339133,0.974179 0.578125,1.318359 0.344191,0.344199 0.8059883,0.508975 1.3203125,0.578125 0.5143243,0.06915 1.1149512,0.06641 1.9023438,0.06641 H 14.22561 c 0.787384,0 1.389975,0.0027 1.904297,-0.06641 0.514322,-0.06915 0.974165,-0.23393 1.318359,-0.578125 0.344219,-0.344179 0.508975,-0.80403 0.578125,-1.318359 0.06915,-0.514329 0.06641,-1.116913 0.06641,-1.904297 v -0.55664 c 0,-0.787384 0.0027,-1.388022 -0.06641,-1.902344 -0.06915,-0.514322 -0.23393,-0.976118 -0.578125,-1.320313 -0.300984,-0.300982 -0.696335,-0.467411 -1.128906,-0.5468749 -0.432571,-0.079464 -0.920475,-0.09036 -1.533203,-0.09375 a 0.52499998,0.52499998 0 0 0 -0.527344,0.5214849 0.52499998,0.52499998 0 0 0 0.521485,0.527343 c 0.598245,0.0033 1.044572,0.02209 1.349609,0.07813 0.305037,0.05604 0.449334,0.129023 0.576172,0.25586 0.145039,0.145039 0.226139,0.32338 0.279297,0.71875 0.05316,0.39537 0.05664,0.974335 0.05664,1.761719 v 0.55664 c 0,0.787384 -0.0035,1.368295 -0.05664,1.763672 -0.05316,0.395377 -0.134282,0.571798 -0.279297,0.716797 -0.145039,0.145039 -0.321427,0.226139 -0.716797,0.279297 -0.39537,0.05316 -0.976288,0.05664 -1.763672,0.05664 H 9.7724854 c -0.7873926,0 -1.3682997,-0.0035 -1.7636719,-0.05664 C 7.6134413,16.932185 7.4370482,16.851081 7.2920166,16.706046 7.147006,16.561048 7.0658765,16.384628 7.0127198,15.989249 6.959563,15.59387 6.9560791,15.012961 6.9560791,14.225577 v -0.55664 c 0,-0.787384 0.00348,-1.366347 0.056641,-1.761719 0.053157,-0.395372 0.1342609,-0.57371 0.2792968,-0.71875 0.1268237,-0.126824 0.2730797,-0.199827 0.578125,-0.25586 0.3050454,-0.05603 0.7493934,-0.07479 1.3476563,-0.07813 A 0.52499998,0.52499998 0 0 0 9.7412354,10.32714 0.52499998,0.52499998 0 0 0 9.2119385,9.8056551 Z" />
  <path d="M 11.999048,5.9072175 A 0.52499998,0.52499998 0 0 0 11.473657,6.430655 v 5.81836 l -0.746094,-0.869141 a 0.52499998,0.52499998 0 0 0 -0.7402336,-0.05859 0.52499998,0.52499998 0 0 0 -0.05664,0.740235 l 1.6699216,1.949214 a 0.52499998,0.52499998 0 0 0 0.01953,0.0098 0.52499998,0.52499998 0 0 0 0.02734,0.02734 0.52499998,0.52499998 0 0 0 0.0098,0.01953 0.52499998,0.52499998 0 0 0 0.15625,0.05078 0.52499998,0.52499998 0 0 0 0.166015,0.06836 0.52499998,0.52499998 0 0 0 0.01953,0.0078 0.52499998,0.52499998 0 0 0 0.02148,-0.0078 0.52499998,0.52499998 0 0 0 0.166016,-0.06836 0.52499998,0.52499998 0 0 0 0.154296,-0.05078 0.52499998,0.52499998 0 0 0 0.01758,-0.02344 0.52499998,0.52499998 0 0 0 0.01953,-0.02344 0.52499998,0.52499998 0 0 0 0.01953,-0.0098 l 1.669922,-1.949218 a 0.52499998,0.52499998 0 0 0 -0.05664,-0.740235 0.52499998,0.52499998 0 0 0 -0.740234,0.05859 l -0.746094,0.869141 V 6.430655 a 0.52499998,0.52499998 0 0 0 -0.52539,-0.5234375 z" />
</svg>
