<?xml version="1.0" encoding="UTF-8" standalone="no"?>
<svg
   fill="currentColor"
   width="800px"
   height="800px"
   viewBox="0 0 20 20"
   version="1.1"
   id="svg4"
   xmlns="http://www.w3.org/2000/svg"
   xmlns:svg="http://www.w3.org/2000/svg">
   <path d="M 13.979434,13.093465 C 12.714207,9.9337998 11.237386,9.1010389 11.237386,7.5252275 V 5.6691481 h 0.309347 A 0.30934656,0.30934656 0 0 0 11.856079,5.3598016 V 4.7411084 A 0.30934656,0.30934656 0 0 0 11.546733,4.4317619 H 8.4532672 A 0.30934656,0.30934656 0 0 0 8.1439206,4.7411084 v 0.6186932 a 0.30934656,0.30934656 0 0 0 0.3093466,0.3093465 h 0.3093466 v 1.8560794 c 0,1.5758114 -1.4768205,2.4085723 -2.742048,5.5682375 C 5.6177966,14.098842 4.5833417,15.568238 10,15.568238 c 5.416658,0 4.382203,-1.469396 3.979434,-2.474773 z m -1.000427,1.083333 C 12.544684,14.306723 11.680371,14.454591 10,14.454591 c -1.6803705,0 -2.5446848,-0.147868 -2.9790074,-0.277793 -0.1540546,-0.04579 -0.2140678,-0.224587 -0.1596228,-0.38854 0.1361124,-0.414524 0.3928701,-1.130971 0.872976,-1.930941 1.1730422,-1.9544518 2.3900112,0.30749 3.4028122,0.30749 1.012801,0 0.735008,-0.96578 1.128497,-0.30749 a 9.4987955,9.4987955 0 0 1 0.872975,1.930941 c 0.05445,0.163953 -0.0055,0.342137 -0.159623,0.38854 z" />
</svg>
