<?xml version="1.0" encoding="UTF-8" standalone="no"?>
<svg
   width="800"
   height="800"
   viewBox="0 0 17 16.999999"
   version="1.1"
   fill="currentColor"
   id="svg4"
   xmlns="http://www.w3.org/2000/svg"
   xmlns:svg="http://www.w3.org/2000/svg">
  <defs
     id="defs8" />
  <path
     d="m 13.494049,7.784612 c -0.170903,0 -0.44781,0.054808 -0.716784,0.14351 C 12.672703,7.1600909 12.370558,6.4576851 11.916979,5.8706642 12.172253,5.7430197 12.407335,5.5850865 12.528481,5.4646535 12.825579,5.1675372 12.841443,4.7009494 12.565258,4.4254678 12.287631,4.1478227 11.821794,4.1644094 11.525417,4.4608049 11.403551,4.5834014 11.244184,4.8206617 11.11727,5.076672 10.530284,4.6259492 9.82648,4.3259483 9.0563339,4.2264287 9.147194,3.9552743 9.2027193,3.6761867 9.2027193,3.5038305 c 0,-0.4197127 -0.3180097,-0.7608194 -0.7095727,-0.7608194 -0.3915631,0 -0.7095727,0.3411067 -0.7095727,0.7608194 0,0.1730775 0.056246,0.4543283 0.1471065,0.7262041 C 7.1626976,4.3331599 6.459615,4.6324396 5.8726309,5.0838831 5.7449943,4.828594 5.5870712,4.5913337 5.4644824,4.4694584 5.168106,4.1723421 4.7022686,4.1564767 4.4253621,4.4334005 4.1484556,4.7103245 4.1650413,5.1761911 4.4614176,5.4725862 4.5832853,5.5944616 4.8212517,5.7538369 5.0772461,5.8807603 4.6258309,6.4677813 4.3258489,7.1709084 4.2227301,7.9403816 3.9537558,7.8502372 3.674686,7.7954293 3.5037829,7.7954293 c -0.4196864,0 -0.7607716,0.3180298 -0.7607716,0.7096174 0,0.3915878 0.3410852,0.7096175 0.7607716,0.7096175 0.1709031,0 0.4485307,-0.054808 0.717505,-0.1442312 0.1016764,0.7694735 0.4031007,1.47188 0.855237,2.059622 -0.2531098,0.126924 -0.4874708,0.284135 -0.607175,0.404568 -0.2970975,0.297116 -0.3129619,0.762983 -0.036776,1.039186 0.2776275,0.277646 0.743465,0.261059 1.0398413,-0.03534 0.1204255,-0.120432 0.2761854,-0.351924 0.403822,-0.603608 0.5869839,0.451444 1.2915089,0.74856 2.061655,0.850242 -0.088697,0.266828 -0.1420589,0.541589 -0.1420589,0.71106 0,0.419712 0.3180098,0.76082 0.7095728,0.76082 0.3915631,0 0.7095727,-0.341108 0.7095727,-0.76082 0,-0.169471 -0.053363,-0.44351 -0.1413376,-0.710338 0.7694247,-0.102406 1.4725078,-0.40601 2.0594918,-0.858174 0.126915,0.250962 0.281954,0.483173 0.401657,0.602884 0.297099,0.297117 0.763657,0.312983 1.040564,0.03678 0.276906,-0.277645 0.26032,-0.743512 -0.03678,-1.039908 -0.119704,-0.119711 -0.351902,-0.275481 -0.602849,-0.402404 0.456464,-0.592791 0.756447,-1.283659 0.851632,-2.061786 0.266811,0.08726 0.540113,0.1406255 0.708853,0.1406255 0.419683,-2.1e-6 0.76077,-0.3180318 0.76077,-0.7096194 0,-0.3915877 -0.34325,-0.7096175 -0.762936,-0.7096175 z M 11.165582,6.2608096 c 0.452858,0.5379822 0.745629,1.2129842 0.807644,1.9536113 L 9.4248214,8.4459119 C 9.4103992,8.2526422 9.3346826,8.0781224 9.2135359,7.9382181 Z M 9.1075326,7.8322083 C 8.9683584,7.7146598 8.7924073,7.6382173 8.5984286,7.6158615 L 8.8003397,5.0326812 c 0.7427441,0.064182 1.4191453,0.3620202 1.9570953,0.8192329 z M 8.2335467,5.0312388 8.4498799,7.6086499 C 8.2465266,7.6165818 8.0604803,7.6858135 7.9097682,7.7990351 L 6.2504928,5.8425392 C 6.7942102,5.3824416 7.4807074,5.0882101 8.2335467,5.0312388 Z M 5.8380176,6.2543192 7.7900639,7.9043238 C 7.6530528,8.0492763 7.5657985,8.2367768 7.5506551,8.4437484 L 5.0231627,8.2281228 C 5.0830151,7.4788419 5.3786702,6.7966285 5.8380176,6.2543192 Z m 1.716243,2.3524105 c 0.023076,0.203366 0.1132143,0.3865397 0.2552732,0.5257226 L 5.8538821,10.778131 C 5.3909291,10.239428 5.0887838,9.5600979 5.0253261,8.8108168 Z M 7.9292381,9.2319719 C 8.0770657,9.3372607 8.2573435,9.4000012 8.4542066,9.4072127 L 8.2378733,11.984624 C 7.4915241,11.929095 6.8100746,11.639911 6.2663573,11.187748 Z M 8.8053874,11.98174 8.5977076,9.4000012 c 0.1889309,-0.021635 0.3598342,-0.095193 0.496845,-0.2069718 l 1.6722564,1.9615456 c -0.537228,0.46154 -1.2157934,0.762983 -1.9614216,0.827165 z M 11.173515,10.745679 9.201277,9.0927888 C 9.3238659,8.9564903 9.402467,8.7848553 9.4226579,8.5966335 l 2.5520111,0.1947121 c -0.06129,0.7399057 -0.34974,1.4156304 -0.801154,1.9543334 z"
     id="path2"
     style="stroke-width:1.05157" />
</svg>
