<?xml version="1.0" encoding="UTF-8" standalone="no"?>
<svg
   width="800px"
   height="800px"
   viewBox="0 0 24 24"
   fill="currentColor"
   version="1.1"
   xmlns="http://www.w3.org/2000/svg"
   xmlns:svg="http://www.w3.org/2000/svg">
  <path d="m 8.7525131,5.5362666 c -0.7861185,0 -1.2760485,-0.036561 -1.7970677,0.2289172 C 6.5593504,5.9670045 6.2361106,6.2902381 6.034294,6.6863352 5.7688238,7.2073503 5.8053769,7.6972844 5.8053769,8.4834029 v 6.7386611 c 0,0.786119 -0.036582,1.276033 0.2289171,1.797068 0.2018087,0.396061 0.5249642,0.719336 0.9211514,0.921152 0.5210231,0.265492 1.0109492,0.228917 1.7970677,0.228917 h 6.7386609 c 0.786119,0 1.276029,0.03659 1.797068,-0.228917 0.396142,-0.201808 0.719344,-0.52501 0.921152,-0.921152 0.265513,-0.521039 0.228917,-1.010949 0.228917,-1.797068 v -3.018415 a 0.70182967,0.70182967 0 0 0 -0.70183,-0.70183 0.70182967,0.70182967 0 0 0 -0.701829,0.70183 v 3.018415 c 0,0.786119 -0.03628,1.080219 -0.07676,1.159664 -0.06727,0.132055 -0.174996,0.239778 -0.30705,0.307051 -0.07945,0.04048 -0.373546,0.07676 -1.159665,0.07676 H 8.7525131 c -0.7861185,0 -1.0801739,-0.03626 -1.1596638,-0.07676 -0.1320514,-0.06727 -0.2397219,-0.174914 -0.3070505,-0.307051 -0.040484,-0.07945 -0.076763,-0.373545 -0.076763,-1.159664 V 8.4834029 c 0,-0.7861185 0.036249,-1.080152 0.076763,-1.1596638 C 7.3531195,7.1916116 7.4607057,7.0840193 7.5928493,7.0166886 7.6723431,6.9761836 7.9663946,6.939926 8.7525131,6.939926 h 2.6675009 a 0.70182967,0.70182967 0 0 0 0.70183,-0.7018297 0.70182967,0.70182967 0 0 0 -0.70183,-0.7018297 z" />
  <path d="m 16.912654,4.8412908 c -0.540317,0 -1.081827,0.2045268 -1.490004,0.6127302 l -1.340604,1.3406042 -3.32548,3.3240818 c -0.589198,0.58919 -0.9178251,0.912527 -1.1966746,1.326911 -0.2356228,0.350147 -0.4259756,0.729418 -0.5647397,1.128122 -0.1641749,0.471712 -0.2248738,0.929729 -0.3427179,1.754588 l -0.032898,0.233043 a 0.70189986,0.70189986 0 0 0 0.8334365,0.786803 l 0.3426766,-0.06855 a 0.70189986,0.70189986 0 0 0 0,-4.1e-5 0.70189986,0.70189986 0 0 0 0,-4.2e-5 0.70189986,0.70189986 0 0 0 0,-4.1e-5 0.70189986,0.70189986 0 0 0 0,-4.1e-5 0.70189986,0.70189986 0 0 0 0,-4.1e-5 0.70189986,0.70189986 0 0 0 0,-4.1e-5 0.70189986,0.70189986 0 0 0 0,-4.1e-5 0.70189986,0.70189986 0 0 0 0,-4.1e-5 0.70189986,0.70189986 0 0 0 0,-4.1e-5 0.70189986,0.70189986 0 0 0 0,-4.2e-5 0.70189986,0.70189986 0 0 0 0,-4.1e-5 0.70189986,0.70189986 0 0 0 0,-4.1e-5 0.70189986,0.70189986 0 0 0 0,-4.1e-5 0.70189986,0.70189986 0 0 0 0,-4.1e-5 0.70189986,0.70189986 0 0 0 0,-4.1e-5 0.70189986,0.70189986 0 0 0 0,-4.1e-5 0.70189986,0.70189986 0 0 0 0,-4.1e-5 0.70189986,0.70189986 0 0 0 0,-4.2e-5 0.70189986,0.70189986 0 0 0 0,-4.1e-5 0.70189986,0.70189986 0 0 0 0,-4.1e-5 0.70189986,0.70189986 0 0 0 0,-4.1e-5 0.70189986,0.70189986 0 0 0 0,-4.1e-5 0.70189986,0.70189986 0 0 0 0,-4.1e-5 0.70189986,0.70189986 0 0 0 0,-4.1e-5 0.70189986,0.70189986 0 0 0 0,-4.1e-5 0.70189986,0.70189986 0 0 0 0,-4.2e-5 0.70189986,0.70189986 0 0 0 0,-4.1e-5 0.70189986,0.70189986 0 0 0 0,-4.1e-5 0.70189986,0.70189986 0 0 0 0,-4.1e-5 0.70189986,0.70189986 0 0 0 0,-4.1e-5 0.70189986,0.70189986 0 0 0 0,-4.1e-5 0.70189986,0.70189986 0 0 0 0,-4.1e-5 0.70189986,0.70189986 0 0 0 0,-4.1e-5 0.70189986,0.70189986 0 0 0 0,-4.1e-5 c 0.7410051,-0.149556 1.1519121,-0.228224 1.5750041,-0.39478 0.357622,-0.140789 0.697639,-0.322545 1.01302,-0.542821 0.372839,-0.260248 0.666263,-0.559273 1.200787,-1.093867 L 17.059339,9.7719185 18.4013,8.431314 c 0.81641,-0.8163576 0.81641,-2.1609353 0,-2.977293 C 17.993123,5.0458176 17.45297,4.8412908 16.912654,4.8412908 Z m 0,1.3940639 c 0.178145,0 0.356278,0.071123 0.496229,0.2110837 0.279987,0.2799694 0.279987,0.7124888 0,0.9924582 L 16.56311,8.2832719 15.570692,7.2908544 16.415068,6.4464384 c 0.139951,-0.1399603 0.31944,-0.2110837 0.497586,-0.2110837 z m -2.33442,2.0479172 0.992458,0.9924174 -2.978691,2.9786907 c -0.534502,0.534572 -0.775553,0.770066 -1.011621,0.934846 -0.225028,0.157168 -0.468126,0.287272 -0.723762,0.387911 -0.133447,0.05253 -0.458871,0.113895 -0.66619,0.163135 0.03957,-0.213046 0.08248,-0.563444 0.131593,-0.704558 0.0991,-0.284738 0.233282,-0.55581 0.401647,-0.806007 0.176426,-0.262179 0.437526,-0.528004 1.026713,-1.117184 z" />
</svg>
