<?xml version="1.0" encoding="UTF-8" standalone="no"?>
<svg
  fill="currentColor"
  width="800px"
  height="800px"
  viewBox="-2 0 24 24"
  version="1.1"
  id="svg4"
  xmlns="http://www.w3.org/2000/svg"
  xmlns:svg="http://www.w3.org/2000/svg">
  <path d="m 6.1735019,8.7621939 v 2.0604221 h -0.883038 c -0.6505047,0 -1.177384,0.526879 -1.177384,1.177384 v 5.88692 c 0,0.650505 0.5268793,1.177384 1.177384,1.177384 h 9.4190721 c 0.650505,0 1.177384,-0.526879 1.177384,-1.177384 V 12 c 0,-0.650505 -0.526879,-1.177384 -1.177384,-1.177384 H 13.826498 V 8.7621939 c 0,-2.1134043 -1.713094,-3.826498 -3.826498,-3.826498 -2.1134043,0 -3.8264981,1.7130937 -3.8264981,3.826498 z M 7.645232,10.822616 V 8.7621939 c 0,-1.3004206 1.0543473,-2.354768 2.354768,-2.354768 1.300421,0 2.354768,1.0543474 2.354768,2.354768 v 2.0604221 z m 1.177384,3.237806 c 0,-0.650505 0.5268793,-1.177384 1.177384,-1.177384 0.650505,0 1.177384,0.526879 1.177384,1.177384 0,0.412673 -0.212518,0.776485 -0.534532,0.986648 l -0.0047,0.0029 c 0,0 0.114795,0.694657 0.244307,1.512939 v 5.88e-4 c 0,0.243719 -0.197211,0.440931 -0.44093,0.440931 -5.89e-4,0 -5.89e-4,0 -0.0012,0 H 9.5578923 9.5573036 c -0.2437185,0 -0.4409303,-0.197212 -0.4409303,-0.440931 v -5.88e-4 L 9.3606805,15.050013 C 9.0345451,14.837495 8.8214386,14.473684 8.8214386,14.061011 Z"/>
</svg>
