<?xml version="1.0" encoding="UTF-8" standalone="no"?>
<svg
   width="800px"
   height="800px"
   viewBox="0 0 24 24"
   fill="currentColor"
   version="1.1"
   id="svg4"
   xmlns="http://www.w3.org/2000/svg"
   xmlns:svg="http://www.w3.org/2000/svg">
  <defs
     id="defs8" />
  <path
     d="m 10.551,12.248197 5.720008,-2.055415 v 3.41733 c -0.339894,-0.195485 -0.744063,-0.308864 -1.177658,-0.308864 -1.207884,0 -2.187034,0.87965 -2.187034,1.964716 0,1.085066 0.97915,1.964715 2.187034,1.964715 1.207884,0 2.187095,-0.879649 2.187095,-1.964715 0,0 0,6.1e-5 0,0 V 9.4904754 c 0,-0.6908771 0,-1.2702864 -0.05409,-1.7319362 C 17.218635,7.693294 17.20963,7.6284301 17.199633,7.5679095 17.147508,7.2525184 17.055414,6.9582983 16.877634,6.7126132 16.788693,6.5897645 16.678386,6.4790556 16.54095,6.3838918 16.51517,6.3660518 16.48839,6.3487548 16.46069,6.3320268 l -0.0056,-0.00333 C 15.979231,6.0441531 15.444223,6.0645036 14.893054,6.1906711 14.360021,6.3126931 13.699172,6.5611789 12.888857,6.8658796 L 11.479629,7.3957237 C 11.099824,7.538528 10.778006,7.6595139 10.5254,7.78483 10.25667,7.9181593 10.025177,8.0754107 9.8515785,8.3097456 9.6779745,8.5440865 9.6058753,8.7966251 9.5727188,9.0708031 9.5415607,9.3284986 9.5415732,9.6418788 9.5415918,10.011769 v 4.807398 C 9.2016496,14.623683 8.7975287,14.510304 8.363934,14.510304 c -1.2078841,0 -2.1870654,0.87965 -2.1870654,1.964716 0,1.085065 0.9791813,1.964716 2.1870654,1.964716 1.2078841,0 2.187066,-0.879651 2.187066,-1.964716 0,0 0,6.2e-5 0,0 z"
     id="path2"
     style="stroke-width:0.927729" />
</svg>
