<?xml version="1.0" encoding="UTF-8" standalone="no"?>
<svg
   width="800px"
   height="800px"
   viewBox="0 0 24 24"
   fill="currentColor"
   version="1.1"
   xmlns="http://www.w3.org/2000/svg"
   xmlns:svg="http://www.w3.org/2000/svg">
  <path d="m 10.276475,12.218115 6.165593,-2.21553 v 3.683537 c -0.366372,-0.210713 -0.802025,-0.332925 -1.269396,-0.332925 -1.301979,0 -2.357404,0.948175 -2.357404,2.117767 0,1.169592 1.055425,2.117765 2.357404,2.117765 1.301976,0 2.357468,-0.948173 2.357468,-2.117765 0,0 0,6.6e-5 0,0 V 9.2455688 c 0,-0.7446959 0,-1.3692409 -0.05831,-1.8668529 C 17.46353,7.3083879 17.45381,7.2384714 17.44303,7.1732362 17.38685,6.8332765 17.287579,6.5161368 17.09595,6.251313 17.000075,6.1188944 16.881181,5.9995614 16.733038,5.8969844 c -0.02779,-0.01923 -0.05665,-0.037874 -0.08651,-0.055906 l -0.006,-0.00359 C 16.127561,5.5307803 15.550877,5.5527161 14.956772,5.6887119 14.382215,5.8202394 13.669888,6.088082 12.79645,6.4165187 L 11.277443,6.9876373 C 10.868052,7.1415661 10.521165,7.2719766 10.248881,7.4070548 9.9592162,7.5507704 9.7096906,7.7202715 9.522569,7.972861 9.3354413,8.2254568 9.2577256,8.497668 9.2219862,8.7932043 9.188401,9.0709742 9.1884144,9.4087664 9.1884345,9.8074715 V 14.989362 C 8.822011,14.77865 8.3864093,14.656439 7.9190379,14.656439 c -1.3019774,0 -2.3574363,0.948173 -2.3574363,2.117765 0,1.169592 1.0554589,2.117767 2.3574363,2.117767 1.3019775,0 2.3574371,-0.948175 2.3574371,-2.117767 0,0 0,6.7e-5 0,0 z" />
</svg>
