<?xml version="1.0" encoding="UTF-8" standalone="no"?>
<svg
   width="800"
   height="800"
   fill="currentColor"
   stroke="currentColor"
   viewBox="0 0 211.66667 211.66667"
   version="1.1"
   id="svg1347"
   xmlns="http://www.w3.org/2000/svg"
   xmlns:svg="http://www.w3.org/2000/svg">
  <defs
     id="defs9" />
  <path
     class="bottle"
     d="m 196.47001,99.421264 c -1e-5,-4.38191 -4.46253,-7.49741 -7.49743,-7.49741 -2.94744,0 -22.7546,2.34582 -34.44986,-0.62331 -19.24898,-4.886817 -28.78435,-19.410689 -51.72476,-19.410689 l -78.262307,-2e-6 c -5.74434,10e-7 -9.33899,5.770022 -9.33899,9.339005 v 49.208952 c 0,3.56897 2.77908,9.33901 9.33899,9.33901 h 78.262307 c 22.94041,1e-5 32.47578,-14.52354 51.72475,-19.8652 11.49589,-3.19012 31.50242,-0.16875 34.44986,-0.16875 2.91405,0 7.49743,-3.39751 7.49744,-7.49742 z"
     id="path4" />
</svg>
