<?xml version="1.0" encoding="UTF-8" standalone="no"?>
<svg
   width="800"
   height="800"
   fill="currentColor"
   stroke="currentColor"
   viewBox="0 0 211.66667 211.66667"
   version="1.1"
   id="svg1347"
   xmlns="http://www.w3.org/2000/svg"
   xmlns:svg="http://www.w3.org/2000/svg">
  <defs
     id="defs9" />
  <path
     class="bottle"
     d="m 30.39782,39.530869 c -3.098474,3.098484 -2.145992,8.456949 1.5e-5,10.60295 2.084147,2.084153 17.748676,14.431186 23.918975,24.800472 10.155585,17.066589 6.628186,34.079039 22.849509,50.300359 l 55.339791,55.33981 c 4.06187,4.06186 10.68369,2.52364 13.20735,-10e-6 l 34.79597,-34.79599 c 2.52365,-2.52363 4.63857,-8.56878 2e-5,-13.20733 L 125.16964,77.231323 C 108.94833,61.009991 91.93611,64.537169 74.547905,54.703217 64.163331,48.830151 52.153008,32.546965 50.068851,30.462809 48.008309,28.40226 42.364966,27.563723 39.465886,30.4628 Z"
     id="path4" />
</svg>
