<?xml version="1.0" encoding="UTF-8" standalone="no"?>
<svg
   height="800"
   width="800"
   version="1.1"
   fill="currentColor"
   viewBox="0 0 512.00001 512.00001"
   xmlns="http://www.w3.org/2000/svg"
   xmlns:svg="http://www.w3.org/2000/svg">
  <path d="M 356.90764,163.38873 H 155.0916 c -51.14646,0 -92.610904,41.45916 -92.610904,92.61164 0,51.14571 41.464444,92.6109 92.610904,92.6109 32.2398,0 60.6198,-16.48463 77.20799,-41.4652 h 47.4008 c 16.58744,24.98057 44.96745,41.4652 77.20801,41.4652 51.14569,0 92.6109,-41.4652 92.6109,-92.6109 -7.4e-4,-51.15248 -41.46597,-92.61165 -92.61166,-92.61164 z M 171.642,317.75483 c -34.10923,9.13999 -69.16487,-11.10088 -78.305628,-45.20405 -9.140741,-34.10921 11.100138,-69.16562 45.210108,-78.30561 34.10318,-9.14076 69.16562,11.10617 78.30562,45.20329 9.14076,34.10998 -11.10013,69.17245 -45.2101,78.30637 z m 201.81604,0 c -34.11602,9.14075 -69.17167,-11.10012 -78.31167,-45.2101 -9.12864,-34.10317 11.10693,-69.15884 45.21011,-78.29957 34.10922,-9.14076 69.17168,11.10617 78.31167,45.20329 9.13394,34.10998 -11.10694,69.17245 -45.21011,78.30638 z" />
  <path d="m 195.64061,242.1804 h -28.56823 v -28.56219 h -24.88382 v 28.56219 h -28.56218 v 24.88381 h 28.56218 v 28.56218 h 24.88382 v -28.56218 h 28.56823 z" />
  <path d="m 366.85497,234.53339 c 5.49865,-5.49866 5.49865,-14.4028 0,-19.9007 -5.49262,-5.49261 -14.40204,-5.49261 -19.90146,0 -5.49261,5.49865 -5.49261,14.40204 0,19.9007 5.49866,5.4926 14.40885,5.4926 19.90146,0 z" />
  <path d="m 378.37463,246.05229 c -5.4926,5.49262 -5.4926,14.39598 0,19.89541 5.49262,5.49866 14.40205,5.49866 19.89541,0 5.49868,-5.49943 5.49868,-14.40279 0,-19.89541 -5.49336,-5.49866 -14.40278,-5.49866 -19.89541,0 z" />
  <path d="m 315.54524,246.05229 c -5.49865,5.49262 -5.49865,14.39598 0,19.89541 5.49261,5.49866 14.396,5.49866 19.8886,0 5.49866,-5.49943 5.49866,-14.40279 0,-19.90069 -5.4926,-5.49338 -14.39599,-5.49338 -19.8886,0.005 z" />
  <path d="m 346.95351,277.46738 c -5.49261,5.49866 -5.49261,14.40279 0,19.89541 5.49866,5.49866 14.40885,5.49866 19.90146,0 5.49865,-5.49262 5.49865,-14.39601 0.007,-19.89541 -5.49867,-5.49866 -14.40885,-5.48657 -19.9075,0 z" />
</svg>
