<?xml version="1.0" encoding="UTF-8" standalone="no"?>
<!-- Created with Inkscape (http://www.inkscape.org/) -->

<svg
   width="800"
   height="800"
   viewBox="0 0 211.66666 211.66667"
   version="1.1"
   fill="currentColor"
   id="svg19685"
   xmlns="http://www.w3.org/2000/svg"
   xmlns:svg="http://www.w3.org/2000/svg">
  <defs
     id="defs19682" />
  <path
     d="m 99.835174,181.06736 c -0.554688,-0.52752 -4.591584,-2.85196 -8.970867,-5.16541 -18.214461,-9.62225 -48.005868,-26.78644 -49.423725,-28.4753 -0.755233,-0.89957 -0.996905,-14.03749 -0.743235,-40.40471 0.32742,-34.028969 0.595816,-39.314756 2.079879,-40.954664 0.9372,-1.035586 2.182038,-1.882866 2.766298,-1.882866 0.58426,0 2.540594,-1.107209 4.347423,-2.460425 1.806829,-1.353215 7.823652,-5.032677 13.370733,-8.176511 5.54704,-3.143834 15.101805,-8.873081 21.232784,-12.731623 6.130979,-3.85854 13.380924,-8.128723 16.111026,-9.489281 l 4.96375,-2.473746 6.71427,3.492319 c 16.0689,8.357957 56.28454,31.613765 57.24152,33.101519 0.34668,0.538759 0.70536,7.104573 0.79737,14.590693 0.18939,15.407999 0.90461,13.975256 -10.01055,20.052665 -4.03786,2.24821 -12.83554,7.33931 -19.55042,11.31353 -6.71488,3.97422 -15.63824,9.17 -19.8297,11.54621 -4.19145,2.3762 -7.38015,4.70979 -7.08599,5.18575 0.7113,1.15091 16.76948,8.8194 22.13828,10.57201 l 4.24659,1.38628 0.6672,10.61535 c 0.45743,7.27767 0.29051,11.01363 -0.53081,11.88206 -0.65893,0.69669 -8.29151,5.35464 -16.96128,10.351 -15.37209,8.85888 -20.82315,10.73793 -23.570546,8.12515 z m 1.971706,-18.20178 c -1.1357,-1.07326 -11.832144,-6.89825 -20.762724,-11.30678 l -7.166084,-3.53754 V 128.8948 c 0,-21.34397 0.374767,-22.36455 6.814067,-18.54554 1.799325,1.06721 5.58861,3.08437 8.420632,4.48257 2.832022,1.39823 7.012245,3.71834 9.289378,5.15586 l 4.140221,2.61358 v -7.79621 c 0,-7.43203 -0.13643,-7.86662 -2.919498,-9.3027 C 98.01711,104.67382 90.970478,100.72629 83.963651,96.730077 76.956823,92.733868 69.551875,88.627596 67.508229,87.60505 65.464582,86.582505 60.448315,83.795222 56.360983,81.411075 52.27369,79.026928 48.319532,76.922612 47.574009,76.734787 c -2.100302,-0.529168 -2.230027,64.515903 -0.132412,66.465453 1.385957,1.28821 20.949702,12.57405 44.484498,25.66202 l 10.085575,5.60868 0.32622,-5.39774 c 0.17936,-2.96877 -0.0594,-5.76219 -0.53081,-6.20762 z m 22.49913,1.68461 c 10.72593,-5.8493 11.1472,-6.3381 11.1472,-12.93514 v -5.66468 l -5.16019,3.17509 c -2.83813,1.74632 -5.48537,3.17513 -5.88277,3.17513 -0.39764,0 -4.28499,2.26923 -8.63907,5.04279 l -7.91646,5.04279 -0.002,6.15541 -0.002,6.15546 4.51198,-3.04709 c 2.48157,-1.6759 7.85615,-4.87082 11.94345,-7.09976 z m -10.43511,-13.0769 c 4.57152,-2.79061 10.13236,-6.01534 12.35745,-7.16604 2.94927,-1.52523 3.52466,-2.17851 2.1233,-2.41051 -2.87969,-0.47677 -13.12758,-5.59094 -17.03984,-8.50365 l -3.4394,-2.56066 -5.0537,3.17 c -2.77954,1.74355 -8.303148,4.95672 -12.27468,7.1404 -3.971532,2.18372 -6.990136,4.20121 -6.708017,4.48333 0.763699,0.7637 20.183437,10.81027 21.010977,10.86978 0.39162,0.0281 4.45243,-2.23203 9.02391,-5.02265 z m -22.12308,-17.58851 8.8458,-5.80043 -7.253319,-3.97719 c -3.989348,-2.18745 -8.805993,-4.89934 -10.703705,-6.02637 l -3.450308,-2.04915 v 12.8636 c 0,11.93831 0.133616,12.78904 1.857868,11.8268 1.021823,-0.57026 5.838468,-3.647 10.703664,-6.83726 z m 25.00843,-15.03363 c 4.60619,-2.91524 12.11706,-7.77209 16.69087,-10.79302 4.57381,-3.02089 9.28497,-5.80007 10.46926,-6.17596 1.18428,-0.37597 2.15326,-1.12896 2.15326,-1.67354 0,-0.544533 0.50417,-0.990081 1.12037,-0.990081 0.6162,0 4.91588,-2.434705 9.55477,-5.410415 l 8.43439,-5.410455 v -7.948521 c 0,-4.371699 -0.37878,-7.789305 -0.8419,-7.594699 -1.27313,0.535147 -26.61579,15.493465 -32.06898,18.928446 -2.62755,1.655156 -9.19645,5.549448 -14.59756,8.654035 -8.91457,5.12421 -9.82536,5.94019 -9.87652,8.84841 -0.0321,1.76205 -0.319,6.00683 -0.63955,9.43286 -0.3206,3.42604 -0.17615,6.05009 0.3218,5.83129 0.49775,-0.21868 4.67364,-2.78307 9.27983,-5.69835 z m -5.56193,-21.739886 c 3.70799,-2.326849 8.17507,-4.933409 9.92676,-5.792405 1.7517,-0.858995 7.72342,-4.436059 13.2705,-7.949002 5.54708,-3.512944 13.97069,-8.641881 18.71912,-11.397626 l 8.63353,-5.010409 -17.12663,-9.488318 C 112.2667,39.55091 106.71067,36.581741 105.52402,36.581741 c -1.05044,0 -25.824613,14.360377 -44.013315,25.512317 -3.590585,2.201498 -7.488809,4.307539 -8.662666,4.6801 -4.639332,1.472467 -4.607995,3.302728 0.09148,5.348903 2.465641,1.073504 7.000408,3.548414 10.077233,5.499732 3.076825,1.951319 5.79758,3.547853 6.046115,3.547853 0.596337,0 26.734082,15.141408 30.825267,17.856827 1.751696,1.162667 3.495246,2.159047 3.874546,2.214137 0.37918,0.055 3.72348,-1.803538 7.43151,-4.130346 z"
     id="path15564" />
</svg>
