<?xml version="1.0" encoding="UTF-8" standalone="no"?>
<!-- Created with Inkscape (http://www.inkscape.org/) -->

<svg
   width="800"
   height="800"
   viewBox="0 0 211.66666 211.66667"
   version="1.1"
   fill="currentColor"
   id="svg19685"
   xmlns="http://www.w3.org/2000/svg"
   xmlns:svg="http://www.w3.org/2000/svg">
  <defs
     id="defs19682" />
  <path
     d="m 93.597012,175.73027 c -4.481601,-2.75056 -10.681555,-6.43404 -13.77768,-8.1859 -7.381274,-4.17581 -13.679093,-7.8023 -22.132026,-12.74289 -3.795383,-2.21851 -8.911039,-5.08063 -11.368174,-6.36022 -8.246929,-4.29498 -7.664234,-1.01315 -7.130251,-40.1591 0.264424,-19.37275 0.716994,-36.179106 1.006094,-37.346743 0.646013,-2.60973 7.286017,-7.547512 17.03912,-12.671876 7.861289,-4.130467 16.81129,-9.392459 25.401771,-14.934122 2.919495,-1.883468 7.935762,-4.843489 11.147206,-6.578093 3.211444,-1.734603 7.318958,-4.035371 9.127798,-5.11353 3.23174,-1.925999 3.35136,-1.920382 6.90065,0.316988 1.98655,1.252301 6.32318,3.716377 9.6369,5.475457 3.31377,1.75908 6.26954,4.045402 6.56839,5.081029 0.29893,1.035225 0.40935,7.991696 0.24556,15.458556 -0.16371,7.466861 0.0201,13.771702 0.40699,14.01165 0.38761,0.24075 3.29876,-1.19733 6.46915,-3.192746 13.09524,-8.242076 16.5104,-10.043287 19.06162,-10.052917 3.99693,0 17.22201,8.574712 18.053,11.724925 0.37678,1.42845 0.77895,16.911483 0.89375,34.406382 0.11475,17.4953 0.47002,32.85074 0.78946,34.1235 0.65564,2.61214 -0.43263,3.56029 -11.26987,9.81859 -15.82073,9.13646 -23.13997,13.32672 -28.58485,16.36618 -3.16779,1.76791 -10.57037,6.01033 -16.45021,9.42697 -5.87983,3.41664 -11.40958,6.19329 -12.28832,6.17002 -0.87869,-0.0401 -5.264436,-2.29234 -9.746037,-5.04251 z m 7.129448,-17.42789 0.553,-12.40464 -6.136873,-3.69832 C 91.767272,140.16548 83.511715,135.3561 76.796836,131.51253 70.081958,127.66855 62.67701,123.18699 60.341374,121.5535 l -4.246549,-2.97045 V 100.31013 82.037201 L 50.521223,78.845659 44.94762,75.654117 44.813201,88.149843 c -0.275659,25.638267 0.02408,50.205197 0.620292,51.173017 0.339859,0.54971 1.922188,1.6684 3.516274,2.48534 5.34782,2.74134 24.125315,13.79016 24.662068,14.51161 0.29211,0.39322 1.964038,1.29684 3.715735,2.00986 1.751697,0.71302 7.245692,3.87728 12.208873,7.0319 4.963141,3.15463 9.386842,5.648 9.830424,5.54046 0.443582,-0.10833 1.055363,-5.77719 1.359513,-12.59965 z m 11.63533,10.34623 c 2.33559,-1.40879 10.21827,-5.94893 17.51705,-10.08983 7.29877,-4.1409 16.85354,-9.67935 21.23282,-12.30754 4.37928,-2.62819 9.22598,-5.27523 10.77047,-5.88232 1.54662,-0.6079 3.00637,-2.14749 3.24933,-3.42708 0.24275,-1.27798 0.49558,-15.36667 0.56215,-31.30753 l 0.12118,-28.983488 -4.43197,2.586858 c -2.43759,1.423234 -7.29842,4.126054 -10.80181,6.006311 -3.50343,1.880257 -6.85102,3.807862 -7.4391,4.283344 -0.65038,0.526038 -1.00043,7.4476 -0.89366,17.669445 0.10914,10.4337 -0.24717,17.31714 -0.93912,18.15656 -0.99097,1.20174 -9.74962,6.43565 -28.23998,16.87457 -3.27665,1.85016 -6.05141,3.76091 -6.16621,4.24683 -0.11475,0.48551 -0.42869,6.25749 -0.69753,12.82635 -0.34628,8.46357 -0.13923,11.93839 0.71057,11.92596 0.65966,0 3.11037,-1.16965 5.44597,-2.57844 z m 15.06714,-42.46709 4.54832,-2.30558 -5.03035,-2.71767 -5.03035,-2.71726 -0.2909,-17.65621 c -0.1601,-9.711048 -0.45787,-17.656199 -0.66178,-17.656199 -0.45021,0 -15.53131,8.851976 -21.106876,12.388593 -2.206514,1.399961 -5.789556,3.531802 -7.962285,4.737956 -8.849969,4.91291 -23.213876,13.03742 -25.5136,14.43136 -2.39791,1.45293 -2.253299,1.60861 6.369844,6.85094 4.852877,2.95039 9.778943,5.76476 10.946741,6.25388 1.167798,0.48953 6.420401,3.45316 11.672402,6.58612 l 9.549144,5.69655 8.98082,-5.79325 c 4.93943,-3.18673 11.02751,-6.83128 13.52907,-8.09923 z m 9.41344,-20.42242 c 0.51216,-16.864938 0.39563,-17.264583 -6.08792,-20.85577 l -5.42077,-3.002554 0.68012,3.400594 c 0.37396,1.870226 0.68012,9.025315 0.68012,15.89993 v 12.49934 l 4.51197,2.66791 c 2.48161,1.46737 4.6793,2.5034 4.88378,2.30157 0.20463,-0.20062 0.54317,-6.01153 0.7527,-12.91102 z m -69.265656,1.00874 c 2.2277,-1.38632 5.571877,-3.39217 7.43147,-4.45708 1.859593,-1.06492 6.247543,-3.602425 9.750937,-5.63917 9.3927,-5.459808 29.543349,-16.986516 33.332959,-19.067398 l 3.29366,-1.808434 V 61.94501 c 0,-7.617731 -0.19982,-13.850748 -0.44434,-13.850748 -0.24437,0 -5.29955,2.86653 -11.23372,6.369843 -5.93417,3.503314 -10.978079,6.369844 -11.208637,6.369844 -0.230719,0 -5.219219,2.86653 -11.085814,6.369843 -5.866596,3.503314 -10.866572,6.369844 -11.111013,6.369844 -1.820512,0 -14.389667,9.09433 -14.470278,10.469815 -0.62579,10.680071 -0.241954,26.375369 0.632731,25.864569 0.583899,-0.34106 2.884305,-1.75426 5.112045,-3.14018 z M 146.67348,79.848784 c 8.97933,-4.928152 15.05457,-8.553847 15.05457,-8.985191 0,-0.212662 -2.12811,-1.632285 -4.72917,-3.156633 l -4.72921,-2.771835 -11.16936,6.278358 -11.16935,6.278359 5.01675,2.792699 c 2.75919,1.535584 5.18166,2.803935 5.38321,2.817979 0.20143,0 3.05568,-1.450117 6.34256,-3.253736 z M 62.055554,74.823128 c 1.526676,-0.97905 5.109718,-3.155029 7.962284,-4.835464 2.852607,-1.680434 6.380878,-3.873266 7.840626,-4.873582 1.459747,-1.000316 6.476014,-3.898143 11.147246,-6.440062 4.671191,-2.541517 10.64789,-6.081344 13.28149,-7.865703 2.63361,-1.78476 6.81383,-4.153339 9.28934,-5.263998 2.47555,-1.110259 4.48786,-2.30478 4.47181,-2.653868 -0.016,-0.349087 -2.19375,-1.727381 -4.83943,-3.06234 l -4.81027,-2.427161 -9.758116,5.513977 c -5.36696,3.032246 -13.706098,7.827184 -18.531369,10.654792 -4.825312,2.827609 -9.028446,5.141216 -9.340378,5.141216 -0.311771,0 -3.052268,1.559659 -6.08969,3.465997 -3.037462,1.90674 -7.292277,4.392083 -9.455135,5.523608 -3.013146,1.57611 -3.665298,2.379011 -2.78953,3.434298 0.628639,0.75756 1.72706,1.37709 2.440924,1.37709 0.713864,0 2.162617,0.955778 3.219469,2.123415 2.258958,2.496176 2.356822,2.499386 5.960729,0.188587 z"
     id="path17372" />
</svg>
