<?xml version="1.0" encoding="UTF-8" standalone="no"?>
<!-- Created with Inkscape (http://www.inkscape.org/) -->

<svg
   width="800"
   height="800"
   viewBox="0 0 211.66666 211.66667"
   version="1.1"
   fill="currentColor"
   id="svg19685"
   xmlns="http://www.w3.org/2000/svg"
   xmlns:svg="http://www.w3.org/2000/svg">
  <defs
     id="defs19682" />
  <path
     d="m 91.985713,149.01036 c -3.795384,-2.38735 -10.244835,-6.17359 -14.332128,-8.41385 -4.087332,-2.2403 -8.864735,-4.86299 -10.616432,-5.82823 -1.751697,-0.96529 -4.857011,-3.06716 -6.900657,-4.67083 -2.043646,-1.60368 -6.94989,-4.69254 -10.902764,-6.86415 -3.952874,-2.1716 -7.59474,-4.73539 -8.093052,-5.69726 -0.498312,-0.96192 -0.799009,-5.09311 -0.668202,-9.18044 0.130808,-4.0873 0.308963,-12.693787 0.396034,-19.125503 l 0.158494,-11.69399 9.243796,-5.82306 c 5.084119,-3.202697 10.219797,-6.332045 11.412633,-6.954143 1.192876,-0.622058 4.217498,-2.489154 6.721379,-4.149045 l 4.552542,-3.018042 4.471409,2.318222 c 6.651079,3.448302 15.86727,8.7316 21.853639,12.527866 l 5.303156,3.362997 8.82847,-5.602332 c 4.85564,-3.081319 10.70449,-6.876021 12.99743,-8.43271 6.29108,-4.271105 8.15192,-4.390718 14.00014,-0.899924 2.85284,1.702865 9.92969,5.88389 15.72635,9.291225 15.48937,9.104803 14.40921,7.037122 14.40921,27.582043 0,15.099996 -0.22671,17.517046 -1.64248,17.517046 -2.11483,0 -15.61721,7.33477 -26.49101,14.39051 -19.8985,12.91154 -38.74689,23.82418 -41.04958,23.7664 -1.36273,-0.0361 -5.582954,-2.01544 -9.378337,-4.4028 z m 7.493584,-12.78683 c 0.03611,-4.81721 0.153679,-19.22144 0.265226,-32.0094 C 99.869312,89.950982 99.537478,80.477029 98.886169,79.705345 97.747382,78.356022 76.940323,66.42064 75.726783,66.42064 c -0.400046,0 -0.727506,7.404948 -0.727506,16.455422 0,20.932528 1.677626,20.405568 -21.326677,6.699069 l -8.056137,-4.800033 0.09389,14.621509 c 0.05176,8.041853 0.332636,14.780603 0.624666,14.975093 0.29211,0.1946 3.636087,1.97884 7.43147,3.96527 3.795384,1.98643 12.022372,6.89175 18.282273,10.90068 6.259901,4.00897 14.142577,8.77798 17.51709,10.59781 3.374472,1.81987 6.589286,3.72236 7.144015,4.22773 2.201538,2.00577 2.709641,0.56733 2.769266,-7.83966 z m 11.522653,4.86632 c 2.67887,-1.55681 6.34898,-3.94553 8.1558,-5.30822 1.80683,-1.36268 3.67268,-2.47763 4.14635,-2.47763 0.47368,0 2.42708,-1.19436 4.34093,-2.65411 1.91384,-1.45975 3.77339,-2.65411 4.13235,-2.65411 0.35912,0 3.37672,-1.74548 6.70609,-3.87884 3.32941,-2.13341 8.20328,-5.05527 10.83082,-6.49307 13.12553,-7.18234 14.53444,-8.44627 15.25219,-13.68299 0.36996,-2.69816 0.67242,-7.964487 0.67242,-11.702973 v -6.797255 l -5.04279,2.873471 c -2.77352,1.580363 -8.42705,4.944684 -12.56338,7.47621 -4.13632,2.531566 -8.7064,4.602817 -10.15567,4.602817 -1.44932,0 -9.17206,-3.821904 -17.16171,-8.493136 -7.98959,-4.671232 -14.68413,-8.493138 -14.87673,-8.493138 -0.1926,0 -0.39041,13.615575 -0.43957,30.256774 -0.0489,16.6412 0.18538,30.25674 0.52147,30.25674 0.33584,0 2.80261,-1.27373 5.48143,-2.83054 z m 32.1873,-50.554848 c 3.07683,-1.918537 7.29645,-4.367807 9.37697,-5.442756 2.08048,-1.074988 4.70574,-2.629391 5.83386,-3.45428 1.7614,-1.288013 1.82693,-1.638103 0.4638,-2.478762 -0.873,-0.538398 -2.3039,-1.485347 -3.17975,-2.104356 -2.58328,-1.825647 -20.4544,-11.6976 -21.13724,-11.676173 -0.34468,0.01204 -5.79477,3.076784 -12.11173,6.813264 l -11.48533,6.793684 4.58468,2.626984 c 11.63259,6.665404 21.59278,12.306818 21.81571,12.356332 0.13442,0.02809 2.76221,-1.515361 5.83903,-3.433937 z M 69.691261,79.196199 V 67.554011 l -7.696897,4.268497 c -4.233308,2.347674 -8.784165,4.802561 -10.113065,5.455275 -1.328899,0.652713 -2.284396,1.580202 -2.123294,2.0611 0.315382,0.941052 17.815138,11.434421 19.137016,11.475027 0.437924,0.01204 0.79624,-5.214524 0.79624,-11.617711 z"
     id="path8508" />
</svg>
