<?xml version="1.0" encoding="UTF-8" standalone="no"?>
<!-- Created with Inkscape (http://www.inkscape.org/) -->

<svg
   width="800"
   height="800"
   viewBox="0 0 211.66666 211.66667"
   version="1.1"
   fill="currentColor"
   id="svg19685"
   xmlns="http://www.w3.org/2000/svg"
   xmlns:svg="http://www.w3.org/2000/svg">
  <defs
     id="defs19682" />
  <path
     d="m 132.75227,170.22903 c -1.75169,-1.16242 -8.60223,-5.24714 -15.22338,-9.07788 l -12.03846,-6.96489 -31.699794,-0.11235 c -19.651098,-0.0682 -32.058789,-0.51481 -32.644253,-1.17286 -0.533582,-0.59946 -0.733284,-17.56189 -0.45907,-38.98826 l 0.485392,-37.926547 8.632371,-4.998371 c 4.74779,-2.748963 13.409734,-7.846443 19.248763,-11.327286 5.83903,-3.481245 12.76625,-7.535475 15.393795,-9.008865 2.627546,-1.473791 8.280476,-4.748793 12.562013,-7.278273 4.281543,-2.529079 8.403223,-4.598726 9.159333,-4.598726 1.74885,0 2.66839,1.20375 6.89452,9.024112 1.89322,3.503313 5.02172,8.997228 6.95222,12.208833 11.72705,19.508372 17.15428,28.748758 19.64158,33.441778 4.08934,7.715235 6.56622,12.142225 24.25877,43.361905 3.62,6.38749 6.52445,12.81269 6.52445,14.43294 0,3.61165 -1.72501,5.18014 -11.14725,10.13638 -4.08729,2.1503 -10.05901,5.5224 -13.2705,7.49374 -6.67298,4.09636 -8.80824,4.31424 -13.2705,1.35342 z m 17.49354,-10.99545 c 5.70942,-3.23287 11.15599,-6.73418 12.10342,-7.78104 2.06343,-2.2803 1.94867,-2.52507 -14.74918,-31.46119 -3.3695,-5.83901 -7.1441,-12.52705 -8.38801,-14.86272 -1.24396,-2.33568 -3.00521,-5.440952 -3.91392,-6.900699 -5.51313,-8.85639 -12.63143,-21.069637 -12.63143,-21.672715 0,-0.389213 -0.89872,-2.002238 -1.99718,-3.584366 -1.09842,-1.582129 -4.97975,-8.01216 -8.62511,-14.288913 -3.64535,-6.277155 -7.02745,-11.412753 -7.51581,-11.412753 -1.05914,0 -22.418317,11.913914 -30.697348,17.12254 -3.211484,2.020695 -10.006091,5.773586 -15.099157,8.340382 l -9.260087,4.666537 6.075165,3.089625 c 3.341369,1.699294 11.808065,6.518707 18.814893,10.710164 7.006827,4.191056 14.172911,8.441899 15.924608,9.446228 16.081976,9.22032 18.409746,10.9473 21.722786,16.11542 6.82178,10.64115 14.07457,23.58668 18.31602,32.69183 2.37998,5.10911 4.67769,9.28934 5.10607,9.28934 0.42841,0 1.37256,1.43326 2.09814,3.18512 0.72558,1.75145 1.54786,3.18472 1.82729,3.18472 0.27927,0 5.17941,-2.64464 10.88884,-5.87751 z m -22.37687,-2.35012 c -1.34142,-2.18962 -4.90006,-8.75849 -7.90803,-14.59746 -3.00802,-5.83899 -6.43481,-12.40585 -7.61513,-14.59306 l -2.14604,-3.97639 -0.0919,11.40794 c -0.11476,14.25038 -0.54702,13.64369 17.34628,24.35064 3.07494,1.84013 3.08633,1.76871 0.41497,-2.59167 z M 105.08019,144.4094 c 0.31418,-1.16802 0.5778,-7.71402 0.58574,-14.5469 l 0.016,-12.4231 -4.51197,-3.00298 c -2.481613,-1.65154 -5.945203,-3.69069 -7.6969,-4.53091 -1.751696,-0.84062 -5.573602,-2.99975 -8.493137,-4.79815 -2.919495,-1.7984 -8.652354,-5.1039 -12.739687,-7.346083 -4.087293,-2.241784 -8.148103,-4.667741 -9.023952,-5.390793 -1.682802,-1.389529 -15.621945,-9.005655 -16.482065,-9.005655 -0.277263,0 -0.50417,14.073843 -0.50417,31.275431 v 31.27543 l 8.758524,0.30896 c 4.817207,0.16853 17.930297,0.30897 29.140218,0.30897 19.483459,0 20.406809,-0.0923 20.952869,-2.12302 z"
     id="path17596" />
</svg>
