<?xml version="1.0" encoding="UTF-8" standalone="no"?>
<!-- Created with Inkscape (http://www.inkscape.org/) -->

<svg
   width="800"
   height="800"
   viewBox="0 0 211.66666 211.66667"
   version="1.1"
   fill="currentColor"
   id="svg19685"
   xmlns="http://www.w3.org/2000/svg"
   xmlns:svg="http://www.w3.org/2000/svg">
  <defs
     id="defs19682" />
  <path
     d="M 90.587622,163.87839 C 83.872743,160.20611 73.84025,154.64683 68.29317,151.52446 62.74613,148.4021 54.385685,143.86801 49.714493,141.44872 l -8.493137,-4.39875 -0.08707,-5.20529 C 40.454609,91.11303 40.434506,62.477224 41.084126,60.558768 41.76914,58.535986 51.67219,51.162055 59.380764,46.934846 c 1.229309,-0.6741 4.087212,-2.484219 6.350864,-4.02241 5.433045,-3.69186 8.026444,-3.468243 16.893427,1.456617 4.087332,2.270112 10.29792,5.649279 13.801313,7.509153 3.503434,1.859914 7.564202,4.200967 9.023952,5.202326 1.45975,1.00136 11.73115,6.501534 22.82527,12.222596 11.09416,5.721062 21.36552,11.215779 22.82526,12.210518 1.45979,0.994699 6.11774,3.611972 10.35101,5.816159 l 7.6969,4.007644 0.008,11.811961 c 0.003,6.49655 0.28368,15.63386 0.62222,20.30505 l 0.61584,8.49314 -7.85704,5.04279 c -4.32138,2.77352 -8.2178,5.04279 -8.65865,5.04279 -0.4409,0 -2.79864,1.35678 -5.23944,3.01507 -10.96869,7.45205 -42.21303,25.64228 -43.93419,25.57812 -1.04923,-0.0401 -7.401658,-3.0757 -14.116536,-6.74798 z m 12.050218,-25.82638 c -0.27766,-13.28378 -0.59417,-27.95548 -0.70375,-32.60376 l -0.19942,-8.451491 -7.962327,-4.139375 C 89.3931,90.580732 79.599471,85.24162 72.008704,80.992744 54.612111,71.255009 46.993256,67.431377 46.322848,68.101786 c -0.507662,0.507661 -0.323006,47.890954 0.227509,58.364574 0.148462,2.82432 0.682165,5.52923 1.186094,6.01085 1.685652,1.61118 53.384099,29.72712 54.660999,29.72712 0.40956,0 0.51765,-10.86853 0.24035,-24.15232 z m 11.52458,20.84049 c 3.09119,-1.82152 7.53126,-4.63235 9.8669,-6.2463 2.3356,-1.61399 9.50168,-6.18005 15.92461,-10.14685 16.22639,-10.02146 23.5815,-15.12528 24.22912,-16.8129 0.30414,-0.79263 0.31899,-7.5908 0.0321,-15.10706 -0.57387,-15.091732 -0.64192,-15.239151 -8.86863,-19.205467 -2.04369,-0.985269 -7.72563,-4.08332 -12.62666,-6.884487 -4.90094,-2.801166 -9.46536,-5.093065 -10.14311,-5.093065 -0.67776,0 -3.59508,1.519052 -6.48292,3.375635 -2.88788,1.856584 -8.35595,5.092103 -12.15129,7.189999 -6.60546,3.651214 -6.89841,3.98369 -6.84761,7.77161 0.0281,2.17646 0.14886,17.572785 0.26522,34.213985 0.11677,16.6412 0.43018,30.25673 0.69645,30.25673 0.26603,0 3.01323,-1.49032 6.10442,-3.31183 z m 0.0465,-76.615997 c 5.69305,-3.516074 10.351,-6.756849 10.351,-7.201755 0,-0.444946 -5.6134,-3.789405 -12.47426,-7.432193 C 92.154743,57.060189 89.448312,55.609349 80.882829,50.915567 l -8.112191,-4.445368 -6.219976,3.577384 c -3.420978,1.967569 -8.902012,5.221105 -12.180104,7.230043 l -5.960167,3.652699 7.552608,4.066107 c 4.15394,2.236326 13.524371,7.27743 20.823148,11.202418 7.298777,3.925027 15.888496,8.599108 19.088304,10.386917 3.199768,1.787769 6.305079,2.987948 6.900659,2.667028 0.59557,-0.321 5.7408,-3.460259 11.43386,-6.976292 z"
     id="path11160" />
</svg>
