<?xml version="1.0" encoding="UTF-8" standalone="no"?>
<!-- Created with Inkscape (http://www.inkscape.org/) -->

<svg
   width="800"
   height="800"
   viewBox="0 0 211.66666 211.66667"
   version="1.1"
   fill="currentColor"
   id="svg19685"
   xmlns="http://www.w3.org/2000/svg"
   xmlns:svg="http://www.w3.org/2000/svg">
  <defs
     id="defs19682" />
  <path
     d="m 69.144185,171.59938 c -2.03502,-1.09999 -8.635742,-4.92189 -14.668335,-8.49314 -6.032593,-3.5712 -11.383382,-6.49314 -11.890682,-6.49314 -2.59958,0 -2.948386,-5.44212 -2.482094,-38.7244 0.270042,-19.282788 0.708688,-36.501147 0.974476,-38.262995 0.510751,-3.385547 0.382391,-3.289969 21.617625,-16.097989 16.713987,-10.081044 22.189324,-13.078662 23.888899,-13.078662 0.926967,0 1.68537,-0.47175 1.68537,-1.048346 0,-1.127111 4.65466,-4.232104 13.479226,-8.991611 l 5.51695,-2.975509 10.40766,6.386134 c 5.72424,3.512342 13.27411,7.929342 16.77755,9.815578 3.50339,1.886195 6.60871,3.766734 6.90066,4.178978 0.29211,0.412204 4.11385,2.772878 8.49309,5.245902 11.90798,6.724588 19.31421,11.485981 20.31051,13.057356 0.48941,0.771845 0.89712,10.563989 0.90607,21.760388 l 0.0161,20.357016 -4.51198,2.67417 c -2.48157,1.47078 -7.13952,4.14423 -10.351,5.94103 -3.21145,1.7968 -7.74999,4.45448 -10.08558,5.906 -2.3356,1.45152 -6.63523,3.93197 -9.55477,5.51209 -2.91949,1.58012 -6.11204,3.36829 -7.09454,3.97366 -0.98246,0.6054 -5.75986,3.30862 -10.61639,6.00719 -4.85653,2.69857 -13.36861,7.67559 -18.915647,11.06006 -12.269783,7.4862 -24.565727,14.22443 -26.025916,14.26226 -0.592566,0.016 -2.742383,-0.87203 -4.777403,-1.97202 z m 18.070092,-12.03409 c 4.375711,-2.57498 8.871757,-5.02489 9.991245,-5.44424 1.206318,-0.45192 1.638745,-1.13995 1.061627,-1.68914 -2.50063,-2.37973 -21.888788,-12.79871 -22.785341,-12.24458 -1.100308,0.68 -1.383911,19.71381 -0.351094,23.56649 0.716592,2.67325 0.0028,2.92066 12.083643,-4.18853 z m -17.919664,3.15226 c 0.188187,-1.85325 0.534786,-12.43798 0.747529,-22.8253 0.14124,-6.90162 0.509026,-8.75853 1.734203,-8.75853 1.617799,0 5.375706,1.94667 21.033604,10.89587 5.124804,2.92908 9.565401,5.07805 9.867901,4.77555 0.45421,-0.45421 0.77935,-18.25803 0.51886,-28.4111 -0.0702,-2.74516 -2.67405,-4.77215 -14.396452,-11.20804 -2.919495,-1.60291 -7.825619,-4.51418 -10.902404,-6.46955 -3.076865,-1.955374 -5.809176,-3.555238 -6.071875,-3.555238 -0.424282,0 -13.200281,-7.33818 -22.571836,-12.964628 l -3.450308,-2.071493 0.0019,34.324489 0.0019,34.32449 4.51009,2.80794 c 2.480527,1.54437 7.022235,4.10467 10.09268,5.68961 3.070486,1.5849 5.845651,3.30718 6.167092,3.82732 0.859116,1.39009 2.56158,1.15111 2.717145,-0.38159 z m 47.639127,-20.41744 c 0.87585,-0.7245 5.17548,-3.16574 9.55476,-5.42502 4.37929,-2.25928 9.99334,-5.46511 12.47575,-7.12407 2.48237,-1.65893 7.02091,-4.31637 10.08558,-5.9054 11.89846,-6.16934 15.63173,-9.00686 16.24135,-12.34466 0.3206,-1.75587 0.44001,-8.55986 0.26523,-15.119979 l -0.31779,-11.927476 -8.49314,4.902592 c -24.74661,14.284823 -29.09949,16.801823 -33.97247,19.644113 -2.91954,1.70291 -7.37181,4.14676 -9.89402,5.43076 l -4.58577,2.33463 0.26924,15.0726 0.26924,15.07255 3.25494,-1.64669 c 1.79022,-0.90566 3.97153,-2.23945 4.84738,-2.96395 z m 0.86541,-37.59022 c 5.7587,-3.43896 18.19119,-10.643359 27.62775,-16.009756 9.43656,-5.366438 17.15231,-10.077113 17.14609,-10.468211 -0.008,-0.391219 -3.69254,-2.860872 -8.19187,-5.488418 -15.8702,-9.267991 -17.23265,-10.100465 -19.11307,-11.678059 -1.04397,-0.875848 -5.1185,-3.19078 -9.05456,-5.144265 -3.93606,-1.953446 -7.15646,-3.983851 -7.15646,-4.511936 0,-0.528125 -0.74195,-0.960191 -1.64877,-0.960191 -0.90687,0 -3.40645,-1.194361 -5.55467,-2.654108 -2.14821,-1.459748 -4.26428,-2.654108 -4.70237,-2.654108 -0.43808,0 -3.79076,1.830783 -7.450445,4.068353 -3.659681,2.237611 -8.803786,5.27728 -11.431331,6.754843 -2.627545,1.477563 -7.166084,4.114738 -10.085579,5.860416 -14.909085,8.914611 -23.541055,13.860659 -25.213986,14.447367 -3.063945,1.074587 -2.183643,2.173932 4.777402,5.966186 3.649369,1.988113 9.979408,5.592662 14.066741,8.010113 6.419438,3.796748 17.891054,10.524784 31.318408,18.368064 2.04364,1.19375 3.82387,2.21004 3.95604,2.25843 0.13201,0.0481 4.95199,-2.72577 10.71068,-6.16472 z"
     id="path2007" />
</svg>
