<?xml version="1.0" encoding="UTF-8" standalone="no"?>
<!-- Created with Inkscape (http://www.inkscape.org/) -->

<svg
   width="800"
   height="800"
   viewBox="0 0 211.66666 211.66667"
   version="1.1"
   fill="currentColor"
   id="svg19685"
   xmlns="http://www.w3.org/2000/svg"
   xmlns:svg="http://www.w3.org/2000/svg">
  <defs
     id="defs19682" />
  <path
     d="m 103.19563,158.39878 c -1.36161,-2.18963 -4.173445,-6.84734 -6.24859,-10.35105 -2.075104,-3.50331 -4.771223,-8.04185 -5.991384,-10.08542 -1.220161,-2.04356 -3.432814,-5.97381 -4.917078,-8.7332 -1.484263,-2.7598 -4.809382,-8.25372 -7.389178,-12.20884 -3.960458,-6.07211 -5.862905,-7.85246 -12.222596,-11.43803 -4.142625,-2.33568 -11.70378,-6.690843 -16.802544,-9.678149 l -9.27052,-5.43172 -0.2889,-19.152063 c -0.249577,-16.537117 -0.05296,-19.388399 1.440568,-20.88145 1.546538,-1.546819 6.407401,-1.718152 45.939511,-1.620649 24.315511,0.06019 52.251011,0.393225 62.078951,0.737899 17.03101,0.599468 17.94257,0.741109 19.43831,3.02382 1.28753,1.964921 1.62996,8.789381 1.90686,38.002786 0.37196,39.238236 0.7105,37.091546 -6.33485,40.170336 -1.73436,0.75796 -4.34771,2.13586 -5.80745,3.06234 -1.45975,0.92649 -6.23715,3.7533 -10.6164,6.28237 -9.03935,5.21986 -23.14153,13.46997 -32.00923,18.72634 -7.78481,4.61437 -9.81313,4.54777 -12.9054,-0.42532 z m 25.27429,-14.39244 c 4.67119,-2.87255 11.59841,-6.92156 15.39376,-8.99803 3.79538,-2.07647 8.81161,-4.99035 11.14724,-6.47497 2.3356,-1.48503 5.67977,-3.4343 7.43147,-4.3323 l 3.18492,-1.63268 0.53082,-31.157466 c 0.29211,-17.136584 0.2588,-31.596429 -0.0738,-32.1329 -0.33264,-0.536472 -4.87118,1.71093 -10.08558,4.994358 -5.21441,3.283429 -10.4583,6.348176 -11.65314,6.810817 -1.19485,0.46224 -6.21107,3.197561 -11.14721,6.078536 -4.93618,2.880975 -12.19956,7.01385 -16.14088,9.184612 l -7.16609,3.945892 -0.0361,8.17587 c -0.0473,10.682481 -0.0477,54.642621 -3.2e-4,55.728811 0.0401,0.89839 4.99175,-1.81245 18.61531,-10.19055 z M 104.58299,120.01921 V 90.398139 l -3.98116,-2.383425 C 95.861659,85.176673 90.410397,82.147637 67.318742,69.521504 57.743112,64.285593 48.953009,59.121506 47.785211,58.045354 45.671346,56.098088 45.660553,56.151855 45.348099,70.219278 l -0.313777,14.130018 3.16518,2.654268 c 2.805981,2.35293 20.126779,12.696352 27.984698,16.711656 1.605722,0.82056 2.919495,1.94165 2.919495,2.49217 0,0.54971 1.608892,3.5009 3.575257,6.55723 5.406402,8.40377 13.208508,21.69197 17.443698,29.70975 2.08193,3.94107 3.93719,7.16592 4.12285,7.16592 0.18578,0 0.33745,-13.32952 0.33745,-29.62108 z m 24.91044,-47.878747 c 1.73075,-0.875528 9.10817,-5.05575 16.39431,-9.289338 l 13.24747,-7.696777 -38.15791,-0.05216 c -20.986859,-0.04012 -43.980569,-0.268837 -51.097138,-0.53607 -7.11653,-0.264825 -13.181263,-0.09229 -13.477185,0.3852 -0.295721,0.479093 2.18256,2.27268 5.507718,3.986419 3.325119,1.713738 6.811499,3.723599 7.747455,4.466313 1.856303,1.472989 13.179738,7.860888 27.758754,15.659182 5.109156,2.733315 9.289376,5.380762 9.289376,5.883528 0,0.502766 4.41905,-1.814854 9.82015,-5.150445 5.40111,-3.335591 11.23625,-6.781124 12.967,-7.657053 z"
     id="path18044" />
</svg>
