<?xml version="1.0" encoding="UTF-8" standalone="no"?>
<!-- Created with Inkscape (http://www.inkscape.org/) -->

<svg
   width="800"
   height="800"
   viewBox="0 0 211.66666 211.66667"
   version="1.1"
   fill="currentColor"
   id="svg19685"
   xmlns="http://www.w3.org/2000/svg"
   xmlns:svg="http://www.w3.org/2000/svg">
  <defs
     id="defs19682" />
  <path
     d="m 93.782522,165.22556 c -4.800354,-2.78788 -12.868407,-7.45763 -17.929012,-10.37712 -5.060565,-2.9195 -14.732254,-8.5045 -21.492634,-12.41107 -6.76042,-3.90617 -12.55724,-7.85968 -12.881852,-8.78496 -0.324611,-0.92569 -0.461678,-18.03298 -0.304548,-38.017236 l 0.28569,-36.334389 25.747891,-0.252788 c 40.812903,-0.402855 36.303253,0.373163 52.819743,-9.108775 7.88268,-4.5261 15.48781,-8.523353 16.90029,-8.882472 2.65005,-0.6741 12.3528,3.808666 22.38044,10.339811 2.62754,1.711332 6.09113,3.639739 7.6969,4.28535 3.70189,1.488638 3.84758,5.155661 0.43904,11.052029 -7.48527,12.948337 -27.33455,47.09752 -37.02486,63.69843 -6.13511,10.51035 -13.79328,23.64807 -17.01813,29.19495 -4.52586,7.78505 -6.43681,10.15203 -8.37706,10.37753 -1.48739,0.17254 -6.077128,-1.77794 -11.241657,-4.77768 z m 9.176508,-34.09421 0.14124,-31.679487 -5.852152,-3.885303 c -3.218707,-2.137057 -6.120185,-3.885705 -6.447766,-3.885705 -0.675705,0 -26.430978,-14.709423 -36.001231,-20.561252 -3.469047,-2.121008 -6.693772,-3.856414 -7.166044,-3.856414 -1.04967,0 -1.106767,2.310398 -0.865937,35.027521 0.105127,14.30175 0.582454,26.70238 1.060423,27.55624 0.800374,1.43046 19.107765,12.53304 36.414078,22.084 3.965794,2.18841 9.459789,5.48548 12.208873,7.32642 2.749084,1.84093 5.306326,3.39337 5.682786,3.45035 0.37637,0.0562 0.74801,-14.15289 0.82573,-31.57637 z m 10.40662,16.81639 c 2.88844,-4.96306 7.48259,-13.08476 10.20928,-18.04782 2.72666,-4.96307 8.28425,-14.51803 12.3502,-21.23295 4.06598,-6.71492 8.96015,-15.045269 10.87596,-18.51247 1.91576,-3.4668 4.4387,-8.027005 5.6065,-10.133568 1.16784,-2.106562 3.23075,-5.361101 4.58428,-7.232129 1.35354,-1.87143 2.18308,-3.4026 1.84338,-3.4026 -0.69817,0 -21.69526,12.323992 -29.78374,17.481257 -2.91949,1.861399 -8.5721,5.202206 -12.56133,7.423928 -3.98923,2.221721 -7.43271,4.573447 -7.6522,5.22628 -0.36032,1.071742 -1.22208,58.055652 -0.87163,57.632332 0.081,-0.0963 2.5109,-4.2392 5.3993,-9.20226 z m -2.36204,-57.83818 c 1.75174,-1.238658 4.61815,-2.939958 6.36984,-3.780978 1.75174,-0.840619 5.33478,-2.988911 7.96233,-4.773671 2.62754,-1.785161 7.64381,-4.735954 11.1472,-6.557629 3.50344,-1.822076 10.38748,-5.740683 15.29786,-8.708328 4.91038,-2.967645 9.44891,-5.404837 10.08558,-5.416072 1.3423,-0.04012 -6.4832,-5.045718 -16.08515,-10.323761 -5.95527,-3.273397 -7.01481,-3.535814 -10.03274,-2.483737 -1.85582,0.646815 -4.12184,1.840534 -5.0356,2.652262 -0.91377,0.811729 -7.01518,4.388471 -13.55864,7.948762 l -11.89722,6.473366 H 81.656347 58.055666 l 7.364462,4.363594 c 4.050418,2.399876 10.469735,6.154773 14.265118,8.344796 6.20184,3.577946 9.144487,5.304123 20.582434,12.072408 1.81747,1.075349 3.73925,2.370183 4.27063,2.876962 1.03892,0.991087 1.58285,0.765184 6.4653,-2.687974 z"
     id="path17820" />
</svg>
