<?xml version="1.0" encoding="UTF-8" standalone="no"?>
<!-- Created with Inkscape (http://www.inkscape.org/) -->

<svg
   width="800"
   height="800"
   viewBox="0 0 211.66666 211.66667"
   version="1.1"
   fill="currentColor"
   id="svg5"
   xmlns="http://www.w3.org/2000/svg"
   xmlns:svg="http://www.w3.org/2000/svg">
  <defs
     id="defs2" />
  <g
     id="layer1" />
  <path d="m 98.169392,177.65206 c -1.41388,-1.01865 -5.09128,-3.28083 -8.171919,-5.02709 -3.08068,-1.74624 -10.7214,-6.25591 -16.979359,-10.02148 -12.679319,-7.62944 -13.038999,-7.83785 -21.961479,-12.72572 -11.076157,-6.06771 -10.099558,-1.4752 -9.429118,-44.3403 0.419799,-26.841005 0.947719,-38.024728 1.834279,-38.859268 1.32312,-1.245444 19.259238,-11.957939 32.465678,-19.390407 4.365639,-2.456932 12.938119,-7.31057 19.049998,-10.785865 11.112518,-6.318725 11.112518,-6.318725 14.816678,-4.284256 9.59588,5.270412 19.4608,10.948694 29.63332,17.057069 6.11188,3.67004 13.25564,7.874104 15.875,9.342364 2.61936,1.468255 6.78656,4.050119 9.2604,5.737475 4.49792,3.067916 4.49792,3.067916 4.49792,40.423878 0,42.38384 0.98776,37.9904 -9.91008,44.07954 -5.8326,3.25895 -6.4374,3.38556 -10.05416,2.10469 -3.69056,-1.30702 -21.44452,-11.43387 -24.25044,-13.83248 -1.08848,-0.93045 -1.31624,1.48948 -1.16784,12.40693 0.2992,22.01881 1.20164,19.53222 -9.11156,25.10848 -9.8196,5.30935 -12.51492,5.80353 -16.397318,3.00644 z m 4.537878,-8.99583 c 0.3064,-1.89177 0.62668,-9.21458 0.7118,-16.27291 0.1548,-12.83333 0.1548,-12.83333 -8.052638,-17.46251 -21.915158,-12.36064 -19.438958,-8.88218 -19.438958,-27.3067 0,-15.749578 0,-15.749578 -5.55624,-18.979105 -3.05596,-1.77624 -9.366239,-5.580072 -14.022919,-8.452964 -8.46668,-5.22344 -8.46668,-5.22344 -8.99584,19.268083 -0.2912,13.470336 -0.376,28.086166 -0.1884,32.479616 0.3408,7.98809 0.3408,7.98809 6.87916,12.17084 3.59616,2.3005 7.01472,4.36875 7.596799,4.59612 0.58208,0.22736 5.002,2.72768 9.82204,5.55626 4.82004,2.82856 8.953559,5.14285 9.185599,5.14285 0.232,0 3.28988,1.905 6.79524,4.23333 3.5054,2.32834 6.753759,4.24393 7.218599,4.25687 0.46484,0.0128 2.0358,0.95485 3.491,2.09313 3.550558,2.77727 3.907598,2.67356 4.554798,-1.32291 z m 8.67436,0.2646 c 0.3596,-0.58208 1.52016,-1.05833 2.57872,-1.05833 1.05852,0 2.40444,-0.59532 2.99092,-1.32292 0.58648,-0.7276 1.28448,-8.28149 1.55108,-16.78642 0.48476,-15.4635 0.48476,-15.4635 -4.64088,-12.27722 -5.12568,3.18628 -5.12568,3.18628 -5.12568,17.84476 0,13.35555 0.66968,16.79767 2.64584,13.60013 z m 47.03908,-27.07557 c 2.2722,-1.50365 4.38124,-3.38543 4.68684,-4.18175 0.73164,-1.90671 1.12408,-59.649617 0.41024,-60.363477 -0.3032,-0.30308 -2.75176,0.518152 -5.44152,1.824936 -4.89048,2.375976 -4.89048,2.375976 -4.89048,33.915081 0,17.34652 0.2484,31.53911 0.55188,31.53911 0.3036,0 2.41088,-1.23026 4.68304,-2.7339 z m -10.29448,-30.34137 c 0.2972,-30.388625 0.2972,-30.388625 -2.87792,-31.664685 -1.74624,-0.701832 -4.64872,-2.376828 -6.44988,-3.722216 -1.8012,-1.345384 -3.82528,-2.446155 -4.49792,-2.446155 -0.67268,0 -1.22304,-0.476252 -1.22304,-1.058332 0,-0.582084 -0.5218,-1.058336 -1.15952,-1.058336 -0.63776,0 -2.54276,-0.984928 -4.23336,-2.188732 -1.69056,-1.203804 -3.10128,-2.03724 -3.13492,-1.852084 -0.032,0.18516 -0.224,14.257507 -0.42352,31.271886 -0.3624,30.935234 -0.3624,30.935234 3.4858,33.337494 5.85232,3.65343 7.826,4.78296 11.28636,6.45918 1.74624,0.84589 4.12748,2.27114 5.29168,3.16721 1.16416,0.89606 2.4592,1.29491 2.87788,0.88631 0.41868,-0.40859 0.89492,-14.41778 1.05836,-31.13154 z m -34.09876,18.06373 c 0,-0.4749 -0.5578,-0.86345 -1.23956,-0.86345 -0.6818,0 -2.01016,-0.69734 -2.95192,-1.54964 -0.9418,-0.8523 -5.00132,-3.26396 -9.02116,-5.35925 -7.308838,-3.80962 -7.308838,-3.80962 -11.452197,-1.94121 -4.1434,1.86841 -4.1434,1.86841 -1.78548,3.77772 2.04072,1.6525 2.1632,2.14494 0.91036,3.66088 -1.30864,1.58346 -1.23912,1.62178 0.72444,0.39932 1.8586,-1.15713 2.927479,-0.9648 7.408319,1.33305 2.88,1.47692 6.188878,3.40032 7.353038,4.27423 1.91112,1.43463 2.50208,1.37252 6.0854,-0.63962 2.18284,-1.22572 3.96876,-2.61713 3.96876,-3.09202 z m 5.29168,-32.613456 c 0,-16.879059 -0.40224,-28.574998 -0.98276,-28.574998 -0.54048,0 -1.69712,0.714376 -2.57024,1.5875 -0.87312,0.873128 -1.93872,1.5875 -2.368,1.5875 -0.42928,0 -4.15424,2.06768 -8.27768,4.594847 -4.12344,2.527168 -11.171958,6.694352 -15.663397,9.260416 -8.1662,4.665571 -8.1662,4.665571 -8.20208,18.159321 -0.02,7.42156 0.1952,13.49375 0.4774,13.49375 0.2824,0 2.83532,-1.42875 5.67332,-3.175 2.838,-1.74625 5.500359,-3.175 5.916279,-3.175 0.84292,0 13.395558,7.19561 20.622358,11.82143 2.57364,1.64738 4.83584,2.99524 5.02708,2.99524 0.1912,0 0.3476,-12.85876 0.3476,-28.575006 z M 84.997433,80.550001 c 3.38324,-2.037292 6.568319,-3.704168 7.077999,-3.704168 0.50964,0 2.4876,-1.190624 4.39548,-2.645832 1.90788,-1.455207 3.720238,-2.645835 4.027478,-2.645835 0.3072,0 4.92424,-2.619372 10.26,-5.820832 5.33576,-3.20146 10.64684,-5.820832 11.8024,-5.820832 1.78496,0 10.1664,4.911948 14.44076,8.463044 0.70304,0.584076 1.52932,1.061956 1.8362,1.061956 0.3068,0 2.87992,1.428748 5.71796,3.175 6.01144,3.698875 8.18072,3.893351 11.80508,1.058332 1.45524,-1.13828 3.24116,-2.080192 3.96876,-2.093132 1.8646,-0.0332 1.64268,-1.396692 -0.52916,-3.251564 -2.32304,-1.983976 -17.09704,-10.530303 -18.20368,-10.530303 -0.45092,0 -2.61768,-1.428752 -4.81508,-3.175 -2.19736,-1.746252 -4.43924,-3.175 -4.98192,-3.175 -0.54268,0 -2.97752,-1.353396 -5.41072,-3.007548 -2.4332,-1.654148 -7.69688,-4.823299 -11.69708,-7.042558 -7.27304,-4.035011 -7.27304,-4.035011 -13.77324,-0.82962 -3.575078,1.762967 -12.446597,6.762186 -19.714437,11.109382 -7.267839,4.347192 -13.690519,8.097983 -14.272599,8.335083 -3.464,1.411 -15.161919,8.868248 -14.808479,9.440164 0.3748,0.606544 12.369039,7.910735 21.158479,12.885071 4.363359,2.469416 4.746159,2.411064 11.715799,-1.785808 z m 4.4788,-35.950166 c 0.3092,-0.30928 -0.4414,-0.562356 -1.66824,-0.562356 -1.22684,0 -2.50956,0.451356 -2.85048,1.003012 -0.62452,1.010492 3.46652,0.611544 4.51872,-0.440656 z"
     id="path2291" />
</svg>
