<?xml version="1.0" encoding="UTF-8" standalone="no"?>
<!-- Created with Inkscape (http://www.inkscape.org/) -->

<svg
   width="800"
   height="800"
   viewBox="0 0 211.66666 211.66667"
   version="1.1"
   fill="currentColor"
   id="svg19685"
   xmlns="http://www.w3.org/2000/svg"
   xmlns:svg="http://www.w3.org/2000/svg">
  <defs
     id="defs19682" />
  <path
     d="M 86.039927,160.31883 C 74.069918,153.9605 59.260022,145.95536 53.129042,142.52961 l -11.147205,-6.22864 -0.302542,-10.86116 -0.302543,-10.86115 2.80883,-1.06789 c 1.544812,-0.58735 4.78635,-2.44337 7.20332,-4.12445 2.417009,-1.68111 7.246293,-4.83919 10.731751,-7.01802 l 6.337222,-3.9615 -6.411774,-3.314606 C 58.519635,93.269195 52.204282,89.980069 48.011982,87.783105 l -7.622345,-3.994484 0.02407,-12.460938 0.02408,-12.460938 12.306256,-7.962285 c 6.768445,-4.379282 13.956758,-8.826857 15.974002,-9.883508 l 3.667746,-1.921225 7.622867,3.907251 c 4.192581,2.149015 12.251887,6.487811 17.909596,9.641796 l 10.286726,5.734545 9.35362,-6.265358 c 9.92271,-6.646505 19.18127,-11.829933 21.1305,-11.829933 1.36622,0 8.77771,3.848148 15.10763,7.844076 2.41544,1.52479 4.67344,2.772356 5.01775,2.772356 0.34427,0 2.633,1.380822 5.08592,3.068479 l 4.4599,3.068479 0.27485,35.415968 c 0.17896,23.036204 0.69099,36.462994 1.46517,38.411264 1.59689,4.01863 0.3226,5.19381 -16.1506,14.89379 -7.27996,4.28672 -19.89911,11.9284 -28.04251,16.98154 -8.14345,5.0531 -15.5484,9.17579 -16.45543,9.16146 -0.90706,-0.0161 -11.442844,-5.22828 -23.412816,-11.58661 z m 19.811283,-26.34102 c -0.37357,-16.20328 -0.68425,-31.03945 -0.69047,-32.96927 -0.012,-3.186562 -0.52307,-3.7508 -5.584922,-6.144898 C 96.510348,93.413766 88.508216,89.086606 81.793338,85.247687 75.078459,81.408768 66.240327,76.596817 62.152994,74.554455 58.065701,72.512133 54.004048,70.210523 53.127116,69.439802 52.250185,68.669081 50.198072,67.531056 48.56683,66.910844 l -2.965919,-1.127633 0.313777,7.077046 c 0.313377,7.065731 0.320599,7.080578 4.560287,9.327216 10.403087,5.512493 26.599382,14.889905 27.194195,15.745009 1.195966,1.719276 2.248525,37.018638 1.136982,38.130188 -1.493854,1.49385 -3.416082,0.68393 -18.152308,-7.64835 -7.23855,-4.09287 -13.326034,-7.44158 -13.527782,-7.44158 -0.201829,0 -0.366743,2.34502 -0.366743,5.21119 v 5.2112 l 11.412633,6.30255 c 6.276954,3.46644 17.62326,9.6615 25.213987,13.76681 7.590726,4.1053 15.473407,8.44498 17.517051,9.64372 2.04369,1.19873 4.14592,2.21337 4.67164,2.25482 0.56062,0.0441 0.67502,-12.10695 0.27686,-29.38522 z m 12.96876,25.47937 c 17.5093,-11.04593 25.21338,-15.78381 27.67637,-17.02054 1.49117,-0.74873 5.98878,-3.61514 9.99474,-6.36984 l 7.28357,-5.00848 -0.14686,-32.32085 c -0.0806,-17.776457 -0.26843,-32.442304 -0.4167,-32.590807 -0.14846,-0.148462 -8.61515,4.774754 -18.81485,10.940482 -10.19969,6.165767 -22.25208,13.426667 -26.78311,16.135385 -6.63367,3.965674 -8.14514,5.33847 -7.76026,7.0482 0.26282,1.16779 0.61472,12.63351 0.78188,25.47937 0.32541,25.02452 0.81959,37.68825 1.47006,37.68825 0.22229,0 3.24422,-1.7915 6.71508,-3.98117 z M 74.26332,116.46076 c -0.146857,-6.5689 -0.453332,-12.30441 -0.681282,-12.74558 -0.428575,-0.82959 -5.996802,2.16895 -16.340464,8.79953 l -5.973088,3.82889 10.75045,5.91731 c 5.91278,3.25454 11.146644,5.96819 11.630873,6.03031 0.484188,0.0622 0.760288,-5.26155 0.613511,-11.83046 z m 38.19082,-27.665703 c 2.69732,-1.9325 6.33738,-4.24687 8.08908,-5.143101 1.75173,-0.896192 9.63441,-5.60157 17.51708,-10.456334 7.88268,-4.854804 16.38741,-10.000072 18.8994,-11.434019 2.51199,-1.433947 4.42294,-2.729744 4.24655,-2.879611 -0.17615,-0.150067 -3.42595,-1.943213 -7.22134,-3.985255 -3.79538,-2.042041 -8.69938,-4.782579 -10.89779,-6.090011 l -3.99713,-2.377206 -7.15011,4.523371 c -25.0715,15.861091 -22.48112,14.949932 -30.34586,10.674173 -3.591584,-1.952643 -9.635456,-5.214324 -13.430839,-7.24822 -3.795343,-2.033856 -7.617249,-4.265368 -8.493098,-4.958928 -0.875848,-0.693521 -2.867493,-1.897511 -4.425907,-2.675535 -2.594322,-1.295195 -3.248279,-1.134574 -7.750104,1.90365 -2.704184,1.825046 -5.115495,3.318257 -5.358492,3.318257 -0.243158,0 -3.322109,1.86164 -6.842516,4.137008 l -6.40078,4.137048 10.34611,5.850104 c 5.690327,3.217583 18.228787,9.998307 27.86316,15.068301 9.634377,5.069994 17.970906,9.65279 18.525636,10.184005 1.40851,1.348882 1.36609,1.364731 6.82695,-2.547697 z"
     id="path10824" />
</svg>
