<?xml version="1.0" encoding="UTF-8" standalone="no"?>
<!-- Created with Inkscape (http://www.inkscape.org/) -->

<svg
   width="800"
   height="800"
   viewBox="0 0 211.66666 211.66667"
   version="1.1"
   fill="currentColor"
   id="svg19685"
   xmlns="http://www.w3.org/2000/svg"
   xmlns:svg="http://www.w3.org/2000/svg">
  <defs
     id="defs19682" />
  <path
     d="M 96.5256,177.17393 C 91.270509,174.3736 79.565927,167.86846 70.515413,162.71801 61.464938,157.56761 50.954717,151.62482 47.159334,149.51183 l -6.900659,-3.84176 -0.530813,-26.51861 c -0.29211,-14.58524 -0.29211,-32.338505 0,-39.451744 l 0.530813,-12.93317 4.246551,-3.057926 c 2.335595,-1.681879 6.672827,-4.416639 9.638265,-6.077252 l 5.391676,-3.019326 3.101462,2.130598 c 1.705753,1.17181 7.998236,5.061928 13.98324,8.64473 l 10.881819,6.514132 0.107936,-4.497289 c 0.05939,-2.473506 0.178958,-9.959787 0.265227,-16.636145 l 0.15729,-12.138855 6.900657,-4.627295 c 8.705762,-5.837705 10.935622,-6.399776 15.387252,-3.878682 18.39061,10.415165 37.75458,21.222431 40.34886,22.519191 8.72895,4.363112 17.77946,11.167509 19.08028,14.344967 1.01544,2.480487 1.42054,12.792491 1.55945,39.695816 l 0.18779,36.34483 -4.75357,2.9359 c -7.85772,4.85308 -17.2495,10.46179 -36.24495,21.64531 -9.92632,5.84409 -19.34234,11.54962 -20.92442,12.67894 -1.58209,1.12932 -3.01528,2.03618 -3.18493,2.01524 -0.16972,-0.0201 -4.60803,-2.32918 -9.863161,-5.1295 z m 6.45832,-32.67303 c -0.28007,-0.72947 -3.363841,-2.74274 -6.85311,-4.47397 -5.280731,-2.62004 -21.937299,-12.26397 -23.381518,-13.53758 -0.23112,-0.20383 -0.470025,-8.3289 -0.530854,-18.05572 C 72.127354,93.890202 71.824812,90.593211 70.515413,89.87401 68.498008,88.766039 53.056344,79.749029 48.486388,77.010338 l -3.450349,-2.067722 v 32.344804 32.34484 l 7.696898,4.51366 c 4.233307,2.48253 9.997905,5.88148 12.810226,7.55329 2.812361,1.67181 5.448453,3.03963 5.858009,3.03963 0.409556,0 2.452761,1.16065 4.540424,2.57927 2.087664,1.41862 8.05084,4.84177 13.251521,7.60698 5.200682,2.76521 10.411274,5.67552 11.579073,6.46731 2.08301,1.41232 2.12895,1.18352 2.42198,-12.06282 0.16411,-7.42634 0.0698,-14.09924 -0.21025,-14.82868 z m 12.88891,23.50844 c 3.03469,-2.04365 5.77162,-3.71574 6.08211,-3.71574 0.31056,0 4.98729,-2.7949 10.39285,-6.21091 5.4056,-3.41596 14.92189,-9.23083 21.14728,-12.92189 9.16848,-5.43609 11.38711,-7.23109 11.67802,-9.44831 0.19742,-1.50553 0.12038,-16.22334 -0.17173,-32.70633 l -0.53082,-29.969 -4.51197,2.691946 -4.51198,2.691946 -0.0983,12.414113 c -0.0542,6.82775 -0.016,14.483755 0.0855,17.013355 0.17535,4.38498 -2.00613,8.67126 -4.41335,8.67126 -0.50168,0 -10.22128,5.57685 -21.59908,12.39304 l -20.68693,12.39305 v 15.20962 c 0,8.36526 0.36474,15.20958 0.81041,15.20958 0.44575,0 3.2933,-1.67209 6.32795,-3.71573 z m 21.79136,-52.2911 c 3.35742,-2.03125 6.10442,-3.83872 6.10442,-4.01659 0,-0.17776 -6.5689,-4.00981 -14.59755,-8.51541 C 112.48688,93.823273 101.13291,87.360741 96.5256,84.604876 l -3.184922,-1.905095 0.352297,16.351258 0.352298,16.351261 -6.575043,4.15731 -6.575042,4.15731 11.369618,6.35279 11.369614,6.35283 13.96274,-8.50554 c 7.67948,-4.67805 16.7097,-10.16747 20.06716,-12.19876 z m -51.035582,-3.34951 c 0.915211,-0.79685 1.632486,-28.762886 0.737658,-28.761121 -0.366341,7.23e-4 -1.218315,0.666517 -1.893097,1.479529 -0.674742,0.813053 -2.576707,2.037387 -4.226607,2.720796 l -2.999785,1.242551 -0.126393,14.337465 -0.126394,14.33746 3.957568,-2.3652 c 2.176621,-1.30086 4.281257,-2.64701 4.67693,-2.99148 z M 148.31365,79.325831 c -0.4561,-0.406747 -3.45685,-2.166108 -6.66829,-3.90966 -12.65342,-6.86972 -41.01903,-22.946322 -43.52728,-24.669691 -1.459747,-1.002964 -3.131836,-2.095407 -3.715735,-2.427682 -1.569088,-0.892902 -0.713141,25.931943 0.876852,27.478802 1.420144,1.381584 27.159893,16.293196 28.180753,16.325697 0.36754,0.01204 6.16231,3.334187 12.87719,7.383281 l 12.20887,7.361972 0.29853,-13.401547 c 0.16411,-7.370841 -0.0746,-13.734385 -0.53081,-14.141172 z m -65.128649,0.08948 2.443733,-1.843343 -7.822048,-4.042433 C 73.504524,71.306209 68.31251,68.434664 66.268864,67.148377 60.128295,63.283457 58.285193,63.083072 53.581981,65.76912 c -2.355658,1.345351 -4.286673,2.719712 -4.291208,3.054114 -0.004,0.334241 2.02222,1.666231 4.503831,2.959499 2.48157,1.293309 5.434931,2.93065 6.563005,3.638535 14.794648,9.283922 14.651843,9.223212 17.600108,7.481627 1.530929,-0.904337 3.883217,-2.473746 5.227284,-3.487584 z m 73.384889,-9.530129 4.28976,-3.10752 -7.7493,-4.472132 c -4.26207,-2.459702 -12.14178,-7.033029 -17.51043,-10.16302 -5.36864,-3.12999 -10.00476,-5.690848 -10.30245,-5.690848 -0.29773,0 -4.69246,-2.388721 -9.76614,-5.308215 -5.07365,-2.919495 -9.75343,-5.297583 -10.39952,-5.284583 -0.64609,0.01204 -2.36906,0.957824 -3.82881,2.099661 -1.459745,1.141837 -3.251286,2.086701 -3.98116,2.099661 -0.729874,0.01204 -1.327054,0.39804 -1.327054,0.855505 0,0.457505 10.868574,6.979181 24.152324,14.492587 13.28378,7.513405 25.58554,14.535962 27.33724,15.605654 4.11381,2.512186 4.05146,2.51993 9.08554,-1.12675 z"
     id="path15452" />
</svg>
