<?xml version="1.0" encoding="UTF-8" standalone="no"?>
<!-- Created with Inkscape (http://www.inkscape.org/) -->

<svg
   width="800"
   height="800"
   viewBox="0 0 211.66666 211.66667"
   version="1.1"
   fill="currentColor"
   id="svg19685"
   xmlns="http://www.w3.org/2000/svg"
   xmlns:svg="http://www.w3.org/2000/svg">
  <defs
     id="defs19682" />
  <path
     d="m 101.47554,171.72693 c -8.27747,-4.60334 -27.923191,-16.37405 -29.369817,-17.59686 -1.556409,-1.31566 -1.709486,-3.61783 -1.28384,-19.30454 l 0.483306,-17.81076 -13.16112,-7.5862 c -7.238589,-4.17239 -13.696507,-7.58619 -14.350866,-7.58619 -0.654398,0 -1.860353,-1.07491 -2.679906,-2.388679 -1.204111,-1.930213 -1.361642,-6.054019 -0.820717,-21.48501 l 0.669446,-19.096289 8.657528,-5.321417 c 4.761673,-2.926798 10.972261,-6.647268 13.801354,-8.267676 2.829053,-1.620448 6.754,-3.967319 8.722091,-5.215287 3.556559,-2.255225 3.60182,-2.25667 7.43151,-0.241151 2.119202,1.115274 4.434896,2.576587 5.145911,3.247317 1.856744,1.751496 21.16541,12.056117 22.59065,12.056117 0.65777,0 7.52886,-3.821906 15.26905,-8.493138 7.74019,-4.671232 14.88521,-8.493138 15.87782,-8.493138 0.99258,0 5.49881,2.28255 10.0138,5.072321 4.51502,2.789731 11.43205,6.731089 15.37124,8.758525 4.13131,2.126304 7.1638,4.377236 7.16609,5.31917 0.004,2.264174 -7.92196,16.736297 -17.67222,32.262023 -2.54007,4.04468 -4.6183,7.698302 -4.6183,8.119213 0,0.420911 -2.02949,4.038819 -4.50989,8.039849 l -4.50989,7.27458 -0.27686,19.10953 c -0.15248,10.51022 -0.46289,19.61876 -0.69003,20.24113 -0.36755,1.00762 -12.86661,8.82405 -24.5165,15.33189 -2.33563,1.3047 -5.18892,3.03096 -6.34067,3.83615 -2.49774,1.7462 -3.58537,1.78335 -6.39901,0.21868 z m 14.41711,-12.65783 c 3.25819,-2.1883 8.51332,-5.37631 11.67802,-7.08447 l 5.75408,-3.1058 0.53082,-19.00829 0.53081,-19.00826 6.82193,-12.206826 c 3.75209,-6.713754 7.59189,-13.640051 8.53286,-15.391748 2.0392,-3.796065 4.90573,-8.467578 7.65445,-12.4743 1.10159,-1.605722 1.76048,-2.919495 1.4642,-2.919495 -0.87886,0 -12.6596,6.472885 -14.38786,7.905347 -0.87585,0.725941 -4.45889,2.890204 -7.96229,4.809422 -3.50343,1.919219 -8.04193,4.575935 -10.08557,5.903792 -2.04369,1.327856 -7.29878,4.342728 -11.67806,6.699751 l -7.96233,4.28551 -0.21707,28.459937 c -0.23674,31.0009 0.22149,38.97149 2.17489,37.83081 0.67498,-0.39403 3.89309,-2.50709 7.15128,-4.69538 z m -14.90596,-25.40402 c 0.0911,-16.04274 0.11917,-30.68038 0.0618,-32.52814 -0.0867,-2.796387 -0.86028,-3.789641 -4.615864,-5.924933 C 73.470173,82.156216 55.545895,71.722152 54.232404,70.64636 c -2.312284,-1.893819 -7.607379,-4.01607 -8.29777,-3.32572 -0.846798,0.846798 -0.230718,26.415169 0.657449,27.27894 0.406787,0.395632 3.606073,2.360954 7.109507,4.367164 3.503394,2.006246 10.171406,5.842846 14.817801,8.525796 l 8.447957,4.87808 -0.310568,18.3821 -0.310567,18.38215 8.848926,4.99957 c 4.866881,2.74977 10.26269,5.943 11.990673,7.09603 1.727983,1.15307 3.252738,1.98546 3.388398,1.8498 0.13562,-0.13562 0.3214,-13.3725 0.41248,-29.41519 z M 119.5234,82.950571 c 4.67123,-3.039108 8.8848,-5.525694 9.36349,-5.525774 0.47873,-8.1e-5 2.86741,-1.350407 5.30821,-3.000788 2.44081,-1.650342 8.7375,-5.31263 13.99259,-8.138393 16.45759,-8.849448 16.19505,-7.239473 2.43708,-14.946722 l -11.95136,-6.695177 -3.20514,1.939602 C 123.24238,53.981847 110.8556,60.632606 108.37964,61.127788 105.53586,61.69656 100.05114,59.17659 81.270673,48.672507 L 75.928752,45.68476 62.967254,52.796194 c -7.128807,3.911264 -12.965951,7.385005 -12.971408,7.719447 -0.004,0.334241 2.020494,1.679352 4.502105,2.988751 4.92113,2.596609 9.888806,5.495038 15.659181,9.136381 2.043647,1.289658 8.732002,5.136121 14.862982,8.547708 6.130979,3.411588 12.745986,7.260538 14.700073,8.553205 3.446773,2.280184 3.668593,2.296394 7.431473,0.54241 2.13324,-0.994378 7.70055,-4.294458 12.37174,-7.333525 z"
     id="path8396" />
</svg>
