<?xml version="1.0" encoding="UTF-8" standalone="no"?>
<!-- Created with Inkscape (http://www.inkscape.org/) -->

<svg
   width="800"
   height="800"
   viewBox="0 0 211.66666 211.66667"
   version="1.1"
   fill="currentColor"
   id="svg19685"
   xmlns="http://www.w3.org/2000/svg"
   xmlns:svg="http://www.w3.org/2000/svg">
  <defs
     id="defs19682" />
  <path
     d="m 84.553207,161.48856 c -3.285033,-1.88062 -8.30126,-4.79955 -11.147206,-6.48653 -2.845945,-1.68701 -7.802025,-4.57609 -11.013469,-6.42024 l -5.83903,-3.35296 -0.530813,-26.49065 c -0.29211,-14.56982 -0.29211,-32.405746 0,-39.635388 l 0.530813,-13.144749 6.438417,-4.50708 C 75.048358,53.011071 86.78191,46.066196 88.984772,46.066196 c 2.02868,0 27.110898,13.355204 30.736348,16.365823 1.5662,1.300612 13.31299,6.990256 14.432,6.990256 0.31498,0 2.0934,1.076112 3.95211,2.39137 4.27737,3.026709 6.62031,4.473616 11.65896,7.20027 2.21807,1.200299 4.21353,2.757952 4.4343,3.461423 0.746,2.376965 1.40188,42.908832 0.71101,43.939362 -0.37677,0.56203 -1.632,1.37292 -2.78937,1.80189 -1.15732,0.42902 -12.50519,7.32137 -25.21748,15.31635 -12.71228,7.99499 -25.59862,16.08901 -28.636324,17.98668 -3.037703,1.89767 -6.021999,3.43634 -6.631739,3.41925 -0.609739,-0.0161 -3.796346,-1.56973 -7.08138,-3.45031 z m 23.820723,-14.76138 7.23153,-4.37146 -7.23153,-4.17994 c -3.97735,-2.29901 -8.784161,-5.13247 -10.681873,-6.29658 l -3.450308,-2.11655 v 12.93052 12.93052 l 3.450308,-2.26253 c 1.897712,-1.24439 6.704523,-4.22969 10.681873,-6.63398 z m -19.567032,-7.81864 c -0.127597,-10.08438 0.210255,-15.85102 0.974195,-16.61476 1.233041,-1.23304 9.841699,2.80642 23.304757,10.93535 l 6.63527,4.00632 v -15.75151 -15.75147 l -4.51197,-2.34519 C 103.94245,97.5312 92.532544,91.310381 91.309575,90.356931 89.760469,89.149209 86.359394,87.232036 77.352415,82.489342 73.81319,80.625736 68.775095,77.626954 66.156618,75.825382 l -4.760871,-3.275564 0.07945,25.77349 c 0.04374,14.175402 0.387608,29.582432 0.76378,34.237782 l 0.684211,8.46432 11.67802,6.65654 c 6.422928,3.66108 12.290768,6.65991 13.039581,6.66408 1.054484,0.004 1.317424,-3.47563 1.165952,-15.43749 z m 44.309552,-7.35608 c 4.01864,-2.61422 9.33705,-6.21239 11.81862,-7.99595 l 4.51197,-3.24278 V 105.44706 90.580387 l -2.35453,1.260126 c -1.29495,0.693039 -4.85504,2.859668 -7.91129,4.814718 -3.05624,1.955051 -5.8505,3.554629 -6.20946,3.554629 -0.35912,0 -2.29286,1.25106 -4.29755,2.78011 l -3.64491,2.7801 v 15.2678 c 0,8.39728 0.17575,15.26776 0.39041,15.26776 0.21467,0 3.67822,-2.1389 7.6969,-4.75317 z m -6.5949,-34.851005 c 1.80683,-1.345752 6.74874,-4.560968 10.98205,-7.144938 4.23327,-2.583929 7.6969,-4.977465 7.6969,-5.318889 0,-0.341464 -1.79155,-1.470742 -3.98117,-2.509618 -2.18962,-1.038836 -7.86939,-4.232625 -12.62172,-7.097269 -4.75232,-2.864644 -8.93487,-5.208466 -9.29459,-5.208466 -0.35992,0 -6.50398,-3.276085 -13.65389,-7.280239 -7.149918,-4.004154 -14.056474,-7.613558 -15.347897,-8.020947 -1.70158,-0.536752 -3.893649,0.24396 -7.962284,2.836275 -3.087859,1.967329 -8.122423,4.936057 -11.187892,6.597192 -3.06551,1.661135 -5.573603,3.307343 -5.573603,3.658236 0,0.350693 6.768645,4.455199 15.041497,9.120653 8.272812,4.665454 20.574579,11.672923 27.337239,15.57219 6.76267,3.899267 12.96724,7.123993 13.78799,7.166084 0.82072,0.04213 2.97054,-1.024551 4.77737,-2.370264 z"
     id="path6125" />
</svg>
