<?xml version="1.0" encoding="UTF-8" standalone="no"?>
<!-- Created with Inkscape (http://www.inkscape.org/) -->

<svg
   width="800"
   height="800"
   viewBox="0 0 211.66666 211.66667"
   version="1.1"
   fill="currentColor"
   id="svg19685"
   xmlns="http://www.w3.org/2000/svg"
   xmlns:svg="http://www.w3.org/2000/svg">
  <defs
     id="defs19682" />
  <path
     d="m 92.7494,175.44099 c -5.54704,-3.13392 -16.057302,-9.20463 -23.356079,-13.49042 -7.298777,-4.28575 -16.375814,-9.4301 -20.171157,-11.43181 -3.795384,-2.00172 -7.300382,-4.0174 -7.788944,-4.47924 -0.488521,-0.46184 -0.890614,-18.21189 -0.893503,-39.44448 l -0.004,-38.604778 6.06706,-4.096842 c 3.336875,-2.2533 8.836126,-5.597437 12.220549,-7.431511 3.384464,-1.834033 10.611136,-6.020074 16.059268,-9.302258 29.120336,-17.54329 31.105006,-18.405977 35.414306,-15.393954 1.15175,0.805028 6.63262,4.08633 12.1797,7.291755 5.54704,3.205464 14.79136,8.548549 20.54288,11.873507 5.75152,3.324998 11.48438,6.437454 12.73969,6.916546 1.25531,0.479093 4.90993,2.844943 8.12142,5.257458 l 5.83899,4.386385 0.53085,11.828408 c 0.29211,6.505626 0.29211,15.423126 0,19.816653 l -0.53085,7.988241 -7.43147,4.03782 c -4.0873,2.22084 -8.48708,4.04528 -9.77726,4.05431 -2.24756,0.0161 -17.16676,-7.32895 -20.47948,-10.08209 -1.69516,-1.40874 -8.00377,-4.7644 -8.9571,-4.7644 -0.31338,0 -0.69521,16.12367 -0.84897,35.83038 l -0.27967,35.83038 -6.07902,4.04376 c -9.22309,6.13523 -11.23247,6.08014 -23.116074,-0.63382 z m 22.10192,-6.98046 c 2.29683,-1.73252 2.32159,-2.09112 2.34916,-34.0053 0.0161,-17.73986 -0.18739,-32.46946 -0.4502,-32.7324 -0.26282,-0.26282 -2.66543,0.80378 -5.33884,2.3705 l -4.8607,2.84855 -0.0967,6.5344 c -0.0991,6.69373 -0.0967,10.10801 0.0241,41.89395 l 0.071,18.37332 2.98963,-1.76603 c 1.64428,-0.9713 4.03421,-2.55395 5.31094,-3.51699 z M 101.24253,138.70764 V 105.91509 L 93.014827,101.5094 C 88.48957,99.086253 82.876163,95.91702 80.540527,94.466621 78.204931,93.016183 75.099657,91.266332 73.63987,90.578028 72.180122,89.889764 69.78466,88.514921 68.316607,87.52291 66.848554,86.5309 61.228365,83.318132 55.8273,80.38347 l -9.820112,-5.335742 0.280474,33.097862 0.280474,33.09787 14.332127,8.13546 c 7.882677,4.4745 16.211984,9.25187 18.509581,10.6164 2.297558,1.36453 7.552689,4.48726 11.67802,6.93941 4.125371,2.45216 8.097826,4.48257 8.8277,4.51198 1.034126,0.0417 1.327046,-7.18422 1.327046,-32.73907 z m 49.04185,-44.779295 0.32421,-13.873379 -11.67802,-6.40419 c -6.42293,-3.522293 -12.43229,-7.072914 -13.35412,-7.89022 -0.92183,-0.817306 -1.99674,-1.486029 -2.38868,-1.486029 -0.39202,0 -0.71262,6.568903 -0.71258,14.597554 l 4e-5,14.597555 10.88178,5.515341 c 5.98496,3.033453 11.83723,6.242973 13.00503,7.132303 1.1678,0.88933 2.45505,1.63216 2.86051,1.65074 0.40547,0.0201 0.88319,-6.20927 1.06163,-13.839675 z m 14.42173,-5.175563 0.29612,-13.791925 -5.07336,2.629792 -5.07337,2.629793 0.32461,13.815438 0.32461,13.81544 4.45259,-2.65331 4.45264,-2.65334 z m -55.39401,9.922711 c 2.86052,-1.516043 5.33683,-2.886111 5.50291,-3.044565 0.31337,-0.298931 -14.58105,-8.801578 -23.377015,-13.345453 -5.121475,-2.645682 -6.453544,-4.231382 -5.542827,-6.598315 0.419547,-1.090437 29.019592,-18.446625 32.575592,-19.768744 1.33427,-0.496106 9.40578,3.474825 15.74817,7.747575 2.66362,1.79447 7.91875,4.869289 11.67806,6.832966 l 6.8351,3.570323 4.51334,-2.594403 4.51334,-2.594442 -5.04416,-3.199447 c -2.77428,-1.759681 -11.01587,-6.492666 -18.31465,-10.517725 -7.29878,-4.025018 -14.70373,-8.162186 -16.45546,-9.19364 -1.7517,-1.031453 -5.33474,-2.948264 -7.96229,-4.259547 -2.62754,-1.311245 -5.39252,-2.965117 -6.14434,-3.675249 -1.08321,-1.023108 -2.84618,-0.500399 -8.493124,2.518284 -3.91937,2.095166 -7.842752,4.394729 -8.7186,5.110198 -0.875849,0.715469 -4.220027,2.738331 -7.431511,4.495284 -8.612028,4.711477 -31.965178,18.124542 -32.517017,18.676421 -0.614434,0.614434 21.287755,14.054543 30.393763,18.650861 3.414476,1.723529 20.456589,12.02819 22.932549,13.866395 0.059,0.0437 2.4477,-1.16073 5.30817,-2.676777 z m 8.02765,-20.863635 c -0.19701,-7.153564 -0.51717,-13.167419 -0.71141,-13.364031 -0.29211,-0.295721 -21.47445,11.001632 -22.657455,12.084164 -0.203835,0.186582 1.945822,1.568406 4.777403,3.070445 4.499242,2.386635 18.949662,10.868538 18.949662,11.12277 0,0.05136 -0.1613,-5.759743 -0.35832,-12.913348 z"
     id="path7976" />
</svg>
