<?xml version="1.0" encoding="UTF-8" standalone="no"?>
<!-- Created with Inkscape (http://www.inkscape.org/) -->

<svg
   width="800"
   height="800"
   viewBox="0 0 211.66666 211.66667"
   version="1.1"
   fill="currentColor"
   id="svg19685"
   xmlns="http://www.w3.org/2000/svg"
   xmlns:svg="http://www.w3.org/2000/svg">
  <defs
     id="defs19682" />
  <path
     d="m 79.674505,168.88251 c -2.335636,-1.66996 -7.534552,-4.77908 -11.553191,-6.90924 -4.018638,-2.13012 -8.729755,-4.88634 -10.469133,-6.12488 l -3.162492,-2.2519 0.708487,-38.29104 c 0.433109,-23.407037 1.12972,-38.798625 1.792183,-39.596832 1.272845,-1.533657 5.987854,-4.515747 25.096661,-15.872967 28.54914,-16.968019 34.78749,-20.456325 36.69567,-20.519241 1.84985,-0.06099 5.54532,1.906258 23.32041,12.414312 4.20181,2.483938 8.95345,5.038817 10.55918,5.677447 l 2.91949,1.161177 0.0939,14.493711 c 0.0518,7.971553 0.26162,24.854346 0.4667,37.517313 l 0.37316,23.02364 -3.91708,2.36465 c -3.72633,2.24945 -8.23301,4.78984 -17.7184,9.98775 -2.33563,1.27987 -5.91864,3.35225 -7.96232,4.60519 -5.109,3.13236 -7.6457,2.88443 -15.08231,-1.47403 -3.52859,-2.06808 -6.68113,-3.49465 -7.00558,-3.17016 -0.32461,0.32461 -3.73086,6.19671 -7.569742,13.04945 -6.325827,11.29214 -7.277672,12.48257 -10.159289,12.70571 -2.090632,0.1617 -4.633835,-0.79368 -7.426053,-2.79006 z m 4.777362,-21.25621 c 0,-8.12688 0.290104,-15.53183 0.644408,-16.45543 1.141315,-2.97422 4.923177,-1.80843 18.449235,5.6872 9.24877,5.12533 13.49512,6.96698 14.05045,6.09378 0.43776,-0.6883 0.80322,-6.85383 0.81217,-13.70124 0.0161,-11.78884 -0.11075,-12.52554 -2.37247,-13.87691 -1.31378,-0.78492 -5.01623,-3.02418 -8.22771,-4.97614 -3.21145,-1.95196 -9.899804,-5.68916 -14.862945,-8.30487 -4.963181,-2.615708 -9.799407,-5.422933 -10.747159,-6.238233 -0.947793,-0.8153 -6.03476,-3.774559 -11.304416,-6.576126 l -9.581207,-5.093708 -0.586146,3.809347 c -0.45891,2.982411 -0.22791,58.8929 0.255596,61.8333 0.200625,1.22012 20.609443,12.52683 22.674155,12.5617 0.437924,0.008 0.79624,-6.6358 0.79624,-14.76267 z m 10.604556,3.12164 c 2.342136,-4.65823 4.258426,-8.67081 4.258426,-8.91674 0,-0.46842 -8.192321,-4.90817 -9.056654,-4.90817 -0.274053,0 -0.498111,5.01627 -0.498111,11.14725 0,6.13098 0.233527,11.14721 0.518976,11.14721 0.285289,0 2.435227,-3.81128 4.777363,-8.46955 z m 52.828447,-19.94646 3.45035,-2.62357 v -13.67532 c 0,-13.96948 -0.61363,-15.823775 -4.08621,-12.34827 -0.72923,0.72988 -6.19935,3.96359 -12.15574,7.18603 l -10.82986,5.85897 -0.29612,14.6693 -0.29613,14.6693 10.38158,-5.55647 c 5.70983,-3.05604 11.93418,-6.73703 13.83185,-8.17997 z m -25.21394,-21.35227 c 0,-0.51308 1.40967,-1.51677 3.1326,-2.23043 1.72292,-0.71366 6.74545,-3.57895 11.16121,-6.36732 l 8.02861,-5.06971 -12.74194,-7.297413 C 120.8436,81.950985 119.50824,80.881212 119.49772,78.26739 c -0.008,-1.605723 0.44206,-2.919495 0.99671,-2.919495 0.55461,0 3.13203,-1.433225 5.72756,-3.184922 2.59557,-1.751697 5.05563,-3.184922 5.46683,-3.184922 1.168,0 13.27909,-7.655167 13.25561,-8.378621 -0.0241,-0.694804 -8.08891,-5.610839 -18.91973,-11.53052 l -6.73178,-3.679301 -5.47706,2.952076 c -3.01238,1.623618 -9.39382,5.378395 -14.180974,8.343873 -4.787113,2.965518 -12.555192,7.541654 -17.262376,10.169199 -4.707184,2.627585 -10.714618,6.278158 -13.349828,8.112392 l -4.791285,3.335029 4.536612,2.607764 c 2.495133,1.434268 7.164198,3.971331 10.375642,5.637883 3.211485,1.666551 6.555662,3.591949 7.431511,4.278649 0.875848,0.686699 4.81195,2.969651 8.746888,5.073204 3.934979,2.103553 9.19007,5.146152 11.67806,6.761342 9.96304,6.46803 15.67082,8.94045 15.67082,6.78819 z m 28.66429,-30.916394 c 0,-7.590726 -0.19019,-13.801314 -0.42231,-13.801314 -0.23233,0 -3.45701,1.828135 -7.16609,4.062536 -3.70907,2.234401 -8.77413,5.188804 -11.2557,6.565332 -2.48161,1.376529 -4.51198,2.781586 -4.51198,3.122287 0,0.340661 4.55327,3.188693 10.11836,6.328795 5.5651,3.140103 10.37067,6.117538 10.67907,6.616492 1.85739,3.005322 2.55865,-0.528607 2.55865,-12.894128 z"
     id="path8620" />
</svg>
