<?xml version="1.0" encoding="UTF-8" standalone="no"?>
<!-- Created with Inkscape (http://www.inkscape.org/) -->

<svg
   width="800"
   height="800"
   viewBox="0 0 211.66666 211.66667"
   version="1.1"
   fill="currentColor"
   id="svg5"
   xmlns="http://www.w3.org/2000/svg"
   xmlns:svg="http://www.w3.org/2000/svg">
  <defs
     id="defs2" />
  <g
     id="layer1" />
  <path d="m 79.097957,167.01929 c -4.07456,-2.82136 -7.74,-5.1594 -8.14536,-5.19568 -1.31168,-0.1172 -14.053719,-7.79284 -14.898639,-8.9746 -0.45044,-0.63 -0.61256,-9.61608 -0.36,-19.969 l 0.45884,-18.82356 6.81216,-7.6348 c 3.74668,-4.19912 9.122999,-10.492282 11.947399,-13.984802 2.82436,-3.49248 5.63596,-6.92876 6.248,-7.6362 0.61204,-0.7074 1.58908,-1.902839 2.17116,-2.656519 0.582079,-0.75368 3.957679,-4.69928 7.501319,-8.76796 3.54368,-4.06872 7.20532,-8.350159 8.136999,-9.514319 8.038515,-10.04456 17.368675,-21.200639 20.080395,-24.010238 2.74652,-2.84564 5.03772,-2.38824 12.53592,2.502519 3.72824,2.4318 8.84964,5.539 11.3808,6.90484 2.5312,1.36584 6.22212,3.71896 8.20212,5.229159 l 3.59992,2.7458 -0.016,38.768118 c -0.008,21.322482 -0.366,39.285082 -0.79376,39.916882 -0.42768,0.6318 -3.63504,2.70268 -7.12756,4.602 -7.54692,4.10424 -16.95172,9.6616 -24.58996,14.53044 -3.047,1.94224 -5.9264,3.53132 -6.39868,3.53132 -0.47228,0 -4.40868,2.19156 -8.74752,4.87016 -11.016274,6.80088 -15.360034,8.90329 -18.165394,8.79221 -1.33288,-0.0528 -5.757159,-2.40441 -9.831759,-5.22577 z m 22.754203,-8.0486 c 3.20144,-1.88912 9.86891,-5.67668 14.81663,-8.41684 4.94768,-2.74012 11.37708,-6.48028 14.28748,-8.31144 2.91044,-1.83116 7.03724,-4.229 9.17068,-5.32856 2.13348,-1.09956 4.99096,-2.83736 6.35,-3.8618 l 2.471,-1.86264 0.248,-32.605443 0.248,-32.605437 -4.48144,5.216519 c -2.46476,2.86908 -12.85064,15.013439 -23.07972,26.987479 -10.22908,11.974042 -19.86487,22.961602 -21.41291,24.416842 -1.548085,1.4552 -2.822884,3.14772 -2.832964,3.76112 -0.008,0.61344 -1.68516,2.73092 -3.72244,4.70552 l -3.70416,3.59024 v 15.78912 15.78908 l 2.9104,-1.91448 c 1.60072,-1.053 5.529799,-3.46016 8.731244,-5.34928 z M 83.639356,133.93905 c -0.751519,-0.45712 -4.938239,-2.8554 -9.303879,-5.32944 -4.36564,-2.47408 -9.286159,-5.39508 -10.934559,-6.49108 l -2.99704,-1.9928 0.53176,14.70256 c 0.2924,8.0864 0.92676,14.84272 1.40956,15.014 0.48276,0.1712 5.64028,3.11892 11.461119,6.55028 l 10.583319,6.2388 0.308,-13.9306 c 0.2324,-10.51348 -0.028,-14.13444 -1.05832,-14.76172 z m 5.1956,-6.48652 c 0.46548,-0.82324 2.77052,-3.56168 5.12232,-6.0854 2.35176,-2.52372 7.032084,-7.92236 10.400684,-11.99692 3.36859,-4.0746 7.13079,-8.52196 8.36047,-9.883043 1.22964,-1.361079 5.1218,-5.914799 8.64928,-10.119359 3.52748,-4.20456 10.84672,-12.800039 16.265,-19.101039 l 9.8514,-11.456399 -4.55976,-2.64544 c -2.50784,-1.455 -7.92388,-4.634199 -12.03564,-7.064879 -5.2082,-3.07884 -7.77644,-4.06952 -8.46668,-3.26592 -0.54492,0.63444 -2.89576,3.32396 -5.22408,5.97672 -2.32832,2.652759 -5.9002,6.877599 -7.93752,9.388559 -2.03728,2.51092 -5.84835,6.99468 -8.46907,9.963879 -2.620724,2.9692 -8.317884,9.6848 -12.660324,14.923559 -4.34244,5.23876 -11.604159,13.748639 -16.137119,18.910882 -8.044279,9.16092 -9.373479,11.25164 -7.153479,11.25164 0.59856,0 5.718239,2.84104 11.377079,6.3134 5.65884,3.4724 10.622319,6.32988 11.029959,6.35 0.40764,0.02 1.122,-0.63696 1.58748,-1.46024 z"
     id="path3026" />
</svg>
