<?xml version="1.0" encoding="UTF-8" standalone="no"?>
<!-- Created with Inkscape (http://www.inkscape.org/) -->

<svg
   width="800"
   height="800"
   viewBox="0 0 211.66666 211.66667"
   version="1.1"
   fill="currentColor"
   id="svg19685"
   xmlns="http://www.w3.org/2000/svg"
   xmlns:svg="http://www.w3.org/2000/svg">
  <defs
     id="defs19682" />
  <path
     d="m 100.34966,159.26731 c -3.455207,-1.82601 -11.537305,-6.2985 -17.960234,-9.93888 -6.422928,-3.64038 -17.406745,-9.65171 -24.408517,-13.35845 -7.001732,-3.70679 -13.693498,-7.72098 -14.870525,-8.92039 -1.983821,-2.02154 -2.134771,-3.50853 -2.067923,-20.36906 0.05698,-14.355917 0.394028,-18.502314 1.599986,-19.678699 2.075024,-2.024105 10.952158,-7.923563 15.118697,-10.04738 1.867498,-0.951925 6.500772,-3.747554 10.296115,-6.212473 19.993363,-12.98493 34.882671,-21.78045 36.870541,-21.78045 0.53723,0 6.19614,2.931813 12.57533,6.515176 6.37916,3.583323 13.98718,7.813902 16.90667,9.401287 31.01201,16.861687 34.19862,18.921263 34.92949,22.575527 0.34949,1.747564 0.63546,11.198125 0.63546,21.001222 v 17.82381 l -6.63523,3.82676 c -3.64941,2.10467 -11.17377,6.69987 -16.72085,10.21145 -5.54708,3.51162 -10.80221,6.67965 -11.67806,7.04009 -0.87584,0.36032 -6.6087,3.65085 -12.73968,7.31206 -6.13098,3.66116 -12.14211,6.94058 -13.35814,7.28754 -1.39984,0.39964 -4.5155,-0.58707 -8.49313,-2.68914 z m 6.7241,-6.53042 c 0.58157,-0.72987 2.84037,-4.67119 5.01952,-8.75853 2.17919,-4.08733 4.31721,-7.90923 4.75116,-8.49313 0.43391,-0.5839 2.7155,-4.64467 5.07016,-9.02395 2.35465,-4.37925 5.81535,-10.7446 7.69047,-14.14515 1.87512,-3.40059 3.2297,-6.36246 3.01022,-6.58194 -0.97576,-0.97576 -21.07321,-12.054155 -22.9458,-12.648486 -1.7474,-0.554608 -3.02956,0.93732 -7.89841,9.190666 -11.439472,19.39149 -20.974134,36.43563 -20.974134,37.49328 0,0.92236 22.685754,14.07657 24.553164,14.23703 0.36634,0.0321 1.14208,-0.53992 1.72365,-1.26979 z m 22.90949,-10.76931 c 19.1771,-11.65178 31.86591,-19.57313 33.31815,-20.79988 1.49779,-1.26518 1.43479,-28.208711 -0.0654,-28.057239 -0.49494,0.05016 -6.01422,3.129709 -12.26501,6.84384 l -11.36512,6.752959 -9.93728,18.63553 c -5.46555,10.24957 -10.84735,19.94935 -11.95958,21.55507 -1.11226,1.60576 -1.71245,2.91953 -1.33375,2.91953 0.37878,0 6.50242,-3.53244 13.60823,-7.84981 z m -57.611511,-8.87103 c 0.03611,-1.60573 0.02006,-7.45804 -0.03611,-13.00512 -0.09229,-9.01801 -0.342266,-10.25414 -2.363001,-11.67802 -3.972295,-2.79916 -20.445853,-11.577905 -21.82198,-11.628864 -0.986554,-0.03611 -1.327054,3.041194 -1.327054,11.995124 0,13.85452 -0.46216,13.05415 11.147206,19.30486 4.087332,2.2007 8.625831,4.87045 10.085578,5.93276 3.600978,2.62057 4.235274,2.48519 4.314481,-0.92074 z m 11.548336,-11.67806 c 2.936788,-5.69302 6.401301,-12.02306 7.698863,-14.06674 3.206509,-5.05014 5.199197,-8.760817 4.856208,-9.042935 -0.156487,-0.128802 -4.464628,2.160895 -9.573744,5.087845 l -9.289378,5.32178 v 11.52551 c 0,6.33906 0.217879,11.52554 0.484228,11.52554 0.26643,0 2.887034,-4.65795 5.823823,-10.351 z m 7.489652,-28.05456 c 14.987453,-8.619652 15.408203,-8.77963 19.086743,-7.255923 1.83828,0.761452 8.51705,4.337151 14.84167,7.945993 l 11.49926,6.56156 5.99969,-3.532564 c 3.29984,-1.942893 6.45608,-3.532565 7.01393,-3.532565 0.55782,0 1.0142,-0.389613 1.0142,-0.866138 0,-0.476404 1.94237,-1.957819 4.31637,-3.292095 4.46487,-2.509378 4.53256,-2.798719 1.11319,-4.758424 -5.87021,-3.364361 -18.96039,-10.600543 -29.31645,-16.205925 -6.42293,-3.47655 -13.94356,-7.64979 -16.71254,-9.27393 L 105.2313,56.201 98.587727,59.988158 c -3.653942,2.082969 -9.748849,5.671307 -13.544192,7.974081 -7.369117,4.471088 -25.350492,15.179648 -31.379233,18.687535 -2.007052,1.167798 -3.639899,2.362159 -3.628584,2.654108 0.01204,0.29211 5.620589,3.698281 12.464991,7.569661 l 12.444447,7.038887 4.780131,-3.2888 c 2.62907,-1.808879 7.88705,-5.075736 11.68444,-7.2597 z"
     id="path13914" />
</svg>
