<?xml version="1.0" encoding="UTF-8" standalone="no"?>
<!-- Created with Inkscape (http://www.inkscape.org/) -->

<svg
   width="800"
   height="800"
   viewBox="0 0 211.66666 211.66667"
   version="1.1"
   id="svg19685"
   fill="currentColor"
   xmlns="http://www.w3.org/2000/svg"
   xmlns:svg="http://www.w3.org/2000/svg">
  <defs
     id="defs19682" />
  <path
     d="m 41.6222,160.72745 c -0.79279,-0.49033 -1.113028,-6.49143 -0.988279,-18.5197 0.208249,-20.08577 -0.10593,-19.2616 9.26731,-24.30933 14.312547,-7.70721 26.002283,-15.04807 27.005528,-16.95883 0.61315,-1.167633 2.521976,-4.512052 4.241774,-7.431547 1.719797,-2.919495 3.895375,-6.973724 4.834581,-9.009265 0.939246,-2.035542 2.551227,-4.663328 3.582199,-5.83899 1.031012,-1.175663 3.47346,-5.243134 5.427668,-9.038557 1.954248,-3.795424 4.790403,-8.819474 6.302549,-11.164781 1.51216,-2.345306 3.27834,-5.211434 3.92479,-6.369843 1.75294,-3.140182 3.81224,-3.063543 9.55693,0.357113 2.85574,1.700096 8.05871,4.80898 11.5621,6.908722 3.50344,2.099741 8.99743,5.221466 12.20887,6.93721 7.5342,4.02534 28.79804,16.698821 30.52217,18.191872 1.0144,0.878336 1.32705,9.888404 1.32705,38.244336 v 37.09516 l -2.38868,0.55092 c -3.65198,0.84182 -125.048672,1.18409 -126.38656,0.35711 z m 110.99277,-7.19281 12.47426,-0.0481 V 122.59385 91.701616 l -3.98113,2.402283 c -2.18966,1.321317 -6.08034,3.541433 -8.64593,4.93377 -5.80304,3.149011 -20.77644,12.062381 -29.55527,17.594411 -3.63958,2.29314 -9.37244,5.50595 -12.73969,7.13944 l -6.12231,2.96965 -28.664295,0.56937 c -15.765353,0.31298 -28.783707,0.59787 -28.929682,0.63278 -0.146055,0.0401 -0.265226,6.07933 -0.265226,13.43184 v 13.36804 l 46.977584,-0.58141 c 25.837689,-0.321 52.591029,-0.60268 59.451889,-0.62836 z M 92.337669,119.17239 c -1.151748,-0.77321 -5.332331,-3.19314 -9.29014,-5.37715 l -7.196098,-3.97077 -8.463124,4.99757 c -4.6547,2.74856 -8.463124,5.1681 -8.463124,5.37715 0,0.20865 7.988967,0.37718 17.753305,0.37718 15.081181,0 17.438083,-0.21267 15.659181,-1.40598 z m 26.039401,-7.84885 c 14.03051,-8.49887 36.45813,-21.672713 40.30299,-23.673746 2.60199,-1.353818 2.60363,-1.364652 0.33344,-2.204468 -1.25479,-0.464246 -5.29787,-2.709641 -8.98463,-4.989944 -3.68673,-2.279903 -10.52507,-6.194096 -15.1963,-8.697495 -4.67123,-2.5038 -11.94858,-6.636674 -16.17194,-9.184211 -4.22336,-2.547536 -8.11026,-4.632029 -8.63755,-4.632029 -0.82148,0 -6.0561,8.111669 -11.787959,18.266905 -3.660844,6.485804 -14.369484,23.844678 -16.186665,26.238538 -2.26634,2.9857 -2.270914,2.98008 6.029503,7.45884 3.480082,1.87744 7.610228,4.32748 9.178072,5.44375 3.028439,2.15672 7.498639,4.09958 8.381429,3.64335 0.29211,-0.15247 6.02481,-3.60202 12.73969,-7.66949 z"
     id="path17708" />
</svg>
