<?xml version="1.0" encoding="UTF-8" standalone="no"?>
<!-- Created with Inkscape (http://www.inkscape.org/) -->

<svg
   width="800"
   height="800"
   viewBox="0 0 211.66666 211.66667"
   version="1.1"
   fill="currentColor"
   id="svg19685"
   xmlns="http://www.w3.org/2000/svg"
   xmlns:svg="http://www.w3.org/2000/svg">
  <defs
     id="defs19682" />
  <path
     d="m 126.58466,165.86621 c -6.62492,-3.95813 -28.915241,-16.42773 -40.873173,-22.86519 -3.795383,-2.0432 -10.973344,-6.05658 -15.95109,-8.91866 -4.977747,-2.86208 -10.471742,-5.87867 -12.208874,-6.70356 -1.737131,-0.82489 -6.172669,-3.45248 -9.856745,-5.83903 -6.151889,-3.98526 -6.64984,-4.58822 -6.104421,-7.39147 0.326618,-1.67871 0.59385,-10.15543 0.59385,-18.83716 V 79.526167 l 9.289382,-6.035642 c 5.109116,-3.319582 10.961427,-7.068099 13.005074,-8.33003 2.043686,-1.261931 5.14896,-3.201172 6.900697,-4.309425 4.137248,-2.617554 5.490745,-3.43787 12.91419,-7.827183 3.407415,-2.014756 9.016368,-5.478346 12.464349,-7.696898 3.447941,-2.218591 7.002371,-4.033764 7.898651,-4.033764 1.38395,0 20.08324,9.8748 47.93829,25.315421 3.79539,2.103834 8.81161,4.861745 11.14725,6.128692 l 4.24655,2.303496 0.66118,11.525103 c 0.36353,6.338787 0.72193,23.575683 0.7962,38.304203 l 0.13522,26.77919 -2.9195,1.51086 c -1.60572,0.83095 -8.63823,4.904 -15.62776,9.0512 -7.02368,4.16746 -13.90953,7.52251 -15.39379,7.50048 -1.47705,-0.0201 -5.55198,-1.7525 -9.05537,-3.84566 z m 20.6086,-9.48518 c 5.59844,-3.26658 11.75582,-7.13126 13.68306,-8.58816 l 3.50412,-2.64897 -0.3194,-30.263 c -0.17534,-16.644647 -0.66025,-30.473848 -1.07711,-30.731531 -0.4169,-0.257602 -6.38863,2.971457 -13.2705,7.175834 -6.88192,4.204378 -16.49226,10.074227 -21.35633,13.044077 -4.86408,2.96989 -11.31357,6.85018 -14.33217,8.6229 -4.07124,2.39093 -5.4688,3.83005 -5.41254,5.5736 0.0417,1.29279 0.1613,8.46064 0.26522,15.92862 l 0.18939,13.5781 12.4743,7.04278 c 6.86086,3.87351 13.14885,7.07926 13.97333,7.12383 0.82449,0.0445 6.07962,-2.59151 11.67806,-5.85808 z m -43.92388,-25.57195 c -0.33183,-7.98868 -0.71563,-14.60915 -0.85289,-14.71211 -0.2568,-0.1926 -26.170891,-14.02966 -42.184376,-22.524727 C 55.268933,90.939321 50.754309,88.3708 50.199621,87.864462 47.885131,85.75164 47.492423,87.605656 47.492423,100.64375 v 13.7 l 6.104421,3.53357 c 3.357459,1.94345 8.015409,4.51647 10.351005,5.71785 4.761353,2.44911 15.399774,8.28641 26.541041,14.56309 10.4524,5.88858 12.69406,7.11524 13.06173,7.1475 0.17695,0.0161 0.0506,-6.50799 -0.28128,-14.49668 z m 16.94543,-29.02506 c 5.83903,-3.563697 13.48284,-8.324568 16.98624,-10.579753 3.50343,-2.255186 9.83106,-6.166771 14.0614,-8.692399 4.23038,-2.525628 7.69397,-4.918161 7.6969,-5.316723 0.003,-0.398441 -0.83071,-0.992532 -1.85253,-1.319912 C 156.085,75.547813 144.26096,69.293891 130.8312,61.977499 116.36233,54.094984 105.62384,48.869385 104.47546,49.152186 102.39731,49.66402 50.432627,80.701589 50.918099,81.141078 c 0.352699,0.319395 26.358793,14.370406 35.613583,19.242102 10.712572,5.63905 16.625508,8.9825 17.698538,10.00758 0.60003,0.57326 1.87704,0.33865 3.18492,-0.58519 1.20078,-0.8482 6.96064,-4.45788 12.79967,-8.02155 z"
     id="path11376" />
</svg>
