<?xml version="1.0" encoding="UTF-8" standalone="no"?>
<!-- Created with Inkscape (http://www.inkscape.org/) -->

<svg
   width="800"
   height="800"
   viewBox="0 0 211.66666 211.66667"
   version="1.1"
   fill="currentColor"
   id="svg19685"
   xmlns="http://www.w3.org/2000/svg"
   xmlns:svg="http://www.w3.org/2000/svg">
  <defs
     id="defs19682" />
  <path
     d="m 96.87364,176.34342 c -11.431773,-6.7593 -10.53871,-4.70707 -10.468773,-24.05707 0.05337,-14.80959 -0.152073,-17.01004 -1.538432,-16.47802 -3.239813,1.24323 -25.070379,14.85884 -26.233322,16.36156 -1.042929,1.34766 -1.796637,1.35677 -5.698954,0.069 -2.473345,-0.8163 -6.59049,-2.81176 -9.149101,-4.43441 l -4.652093,-2.95032 v -20.19455 c 0,-15.44651 0.312172,-20.19515 1.327054,-20.19707 0.729873,-0.001 4.020646,-1.79291 7.312862,-3.98117 3.292216,-2.188212 9.638506,-6.244167 14.102893,-9.013233 l 8.117047,-5.034604 -0.478932,-17.87043 C 69.250267,58.734424 69.35379,50.209788 69.743002,49.61951 c 0.389614,-0.590279 3.574616,-2.906415 7.07805,-5.146994 16.754072,-10.714989 23.187438,-14.322274 25.542858,-14.322274 2.95444,0 58.76551,29.606126 66.04354,35.034155 2.04746,1.526997 2.1625,3.162893 2.8,39.811503 l 0.66479,38.21906 -3.46752,2.23203 c -1.90714,1.22763 -12.06679,7.40456 -22.57701,13.72658 -10.51026,6.32197 -22.93144,13.79706 -27.60267,16.61131 -4.67123,2.81424 -9.68746,5.09567 -11.14724,5.06987 -1.45975,-0.0241 -6.0517,-2.05584 -10.204321,-4.51121 z m 45.76927,-23.0661 c 11.09416,-6.61522 21.02205,-12.74781 22.06197,-13.62803 1.74098,-1.47367 1.87885,-4.08332 1.74042,-32.94379 -0.0827,-17.238818 -0.37196,-31.921037 -0.64301,-32.627156 -0.31899,-0.831149 -3.92731,0.855384 -10.23356,4.78306 -5.35748,3.336755 -17.98185,10.96893 -28.05419,16.960395 -17.54766,10.438081 -18.31501,11.035101 -18.35482,14.280331 -0.0674,5.48905 0.37798,44.18883 0.59449,51.69144 0.37999,13.1537 -0.33584,12.32748 6.61312,7.63426 3.35742,-2.26758 15.18146,-9.5353 26.27558,-16.15051 z m -38.66088,17.80563 c 0.51356,-7.65866 -0.44611,-62.97953 -1.09657,-63.21426 -0.47557,-0.17174 -3.429295,-1.85655 -6.56378,-3.74423 l -5.699154,-3.43217 0.266832,21.79213 c 0.146857,11.98566 0.553805,26.73035 0.904658,32.76605 l 0.637947,10.97398 4.876792,3.09276 c 5.399025,3.42398 6.541905,3.72637 6.673355,1.76574 z M 53.995947,131.09673 v -14.77218 l -4.711838,-2.63348 c -2.591513,-1.44844 -4.860742,-2.48643 -5.04279,-2.30671 -0.182167,0.17976 -0.09229,6.92377 0.199823,14.98677 l 0.530813,14.65999 4.246549,2.40148 c 2.335636,1.32079 4.366001,2.4093 4.511976,2.41889 0.146055,0.008 0.265226,-6.63001 0.265226,-14.75476 z m 20.171157,3.58745 c 2.043647,-1.27553 5.507277,-3.38049 7.696898,-4.67773 l 3.981162,-2.35855 v -13.81901 -13.819 l -3.450349,2.25458 c -1.897671,1.24002 -7.869394,4.88558 -13.2705,8.10128 l -9.820192,5.84673 v 13.72275 13.72275 l 5.573643,-3.32733 c 3.06547,-1.83006 7.245692,-4.37093 9.289338,-5.64647 z m -4.984768,-31.43011 12.722312,-7.580774 -4.058362,-1.973989 c -2.232074,-1.085702 -4.386264,-1.974029 -4.787113,-1.974029 -0.400849,0 -3.540229,1.909829 -6.976493,4.244021 -3.436265,2.334231 -6.589448,4.245181 -7.007069,4.246591 -0.417661,0.001 -2.938393,1.38439 -5.60161,3.07337 l -4.842244,3.07085 3.478315,2.14941 c 1.91308,1.18217 3.674447,2.18898 3.914154,2.23733 0.239546,0.0486 6.160832,-3.32339 13.15811,-7.49278 z m 43.144694,-5.612803 c 2.0111,-1.502079 4.06771,-2.731068 4.5702,-2.731068 0.50252,0 3.72765,-1.910953 7.167,-4.246549 3.43932,-2.335595 6.57384,-4.246548 6.96558,-4.246548 0.39162,0 2.92608,-1.590275 5.63187,-3.533889 2.70578,-1.943655 9.30249,-6.103293 14.65938,-9.243676 l 9.73974,-5.709747 -6.024,-3.326523 c -3.31324,-1.829539 -9.60705,-5.251479 -13.98633,-7.604289 -4.37928,-2.352769 -12.97855,-7.032628 -19.10953,-10.399597 -6.13098,-3.367009 -12.97787,-7.121791 -15.21532,-8.343978 l -4.06811,-2.222163 -3.894224,2.214744 c -9.63024,5.477003 -19.280342,11.602766 -19.283993,12.241315 -0.0022,0.384398 2.981889,2.347874 6.631258,4.363433 3.649408,2.015519 8.546223,4.753649 10.881819,6.084715 2.335636,1.331067 7.8296,4.327802 12.20888,6.659386 9.80069,5.218055 11.67806,6.806563 11.67806,9.881302 0,2.528316 0.2873,2.321552 -17.47829,12.579227 -4.984494,2.878005 -9.062758,5.542546 -9.062758,5.921165 0,0.37878 2.508133,1.878452 5.573643,3.332943 5.937985,2.81746 6.509525,2.74058 12.415125,-1.670203 z M 92.641375,90.398224 c 2.580198,-1.897672 8.078325,-5.566622 12.218035,-8.153199 4.13973,-2.586578 7.52676,-5.014301 7.52676,-5.394967 0,-0.380786 -5.13568,-3.475587 -11.41264,-6.877625 C 94.696578,66.570355 86.050885,61.884919 81.76084,59.560317 l -7.800058,-4.226526 0.480817,15.225189 c 0.324612,10.284438 0.883111,15.359288 1.72052,15.638397 0.681844,0.227108 3.497776,1.992607 6.257614,3.922901 2.759837,1.930293 5.133191,3.558846 5.27411,3.618953 0.140839,0.06019 2.367294,-1.443296 4.947532,-3.341007 z"
     id="path5901" />
</svg>
