<?xml version="1.0" encoding="UTF-8" standalone="no"?>
<!-- Created with Inkscape (http://www.inkscape.org/) -->

<svg
   width="800"
   height="800"
   viewBox="0 0 211.66666 211.66667"
   version="1.1"
   id="svg19685"
   fill="currentColor"
   xmlns="http://www.w3.org/2000/svg"
   xmlns:svg="http://www.w3.org/2000/svg">
  <defs
     id="defs19682" />
  <path
     d="m 101.47337,180.62154 c -1.986867,-1.37055 -23.595863,-13.60426 -35.004925,-19.81774 -2.919535,-1.58999 -9.67213,-5.34886 -15.005786,-8.35302 l -9.697571,-5.46213 -0.513439,-10.8602 c -0.28248,-5.97308 -0.56801,-23.52023 -0.634657,-38.993629 L 40.495814,69.00134 46.568493,64.754791 c 3.339965,-2.335636 9.661538,-6.422848 14.047962,-9.082735 4.386425,-2.659886 12.274959,-7.577164 17.53009,-10.92732 10.132685,-6.459525 10.548059,-6.720578 19.293664,-12.124893 l 5.616421,-3.470652 9.30859,4.788517 c 9.9951,5.141697 23.34517,12.341568 31.07224,16.757685 2.62754,1.501678 8.3604,4.638811 12.73969,6.971357 4.37924,2.332587 8.75704,5.359376 9.72846,6.726194 1.19729,1.684688 1.95016,5.595471 2.33744,12.142225 0.65882,11.136172 -0.008,12.716856 -7.07207,16.739507 -2.45468,1.398035 -8.01356,4.582395 -12.35316,7.076404 l -7.8901,4.53457 4.70522,2.35545 c 4.47951,2.24255 20.30806,11.18047 22.92806,12.94686 0.77474,0.5223 1.36955,5.15939 1.59249,12.41379 l 0.3559,11.58003 -7.43147,4.62974 c -4.08733,2.54634 -12.20887,7.51385 -18.0479,11.03887 -5.83903,3.52506 -16.34925,9.936 -23.35608,14.24654 -12.95355,7.96895 -16.46316,9.10256 -20.20037,6.52461 z m 11.17642,-9.17189 c 1.45975,-1.14184 2.96656,-2.0867 3.34843,-2.09966 0.70989,-0.0241 18.34848,-10.78725 37.75477,-23.03805 9.5187,-6.009 10.92817,-7.28297 11.51435,-10.40754 0.36755,-1.95822 0.24437,-4.31697 -0.27285,-5.24165 -0.93695,-1.67426 -4.79176,0.38159 -26.33443,14.04383 -7.90776,5.01514 -11.65531,7.32778 -20.9674,12.93915 l -9.28934,5.59767 v 5.16477 c 0,2.84061 0.35832,5.15414 0.7962,5.14114 0.43793,-0.012 1.9906,-0.95783 3.45035,-2.09966 z m -9.55593,-3.98116 -0.001,-5.04279 -10.349804,-5.74145 c -5.692413,-3.1578 -12.857936,-7.33208 -15.923445,-9.27618 l -5.573603,-3.53469 -0.07463,-25.22715 C 71.130248,104.77129 70.766756,92.586292 70.36362,91.568481 69.782168,90.100388 48.072258,76.963624 46.227511,76.963624 c -1.118886,0 0.894266,64.278686 2.050548,65.472116 0.662263,0.68361 5.742649,3.737 11.289689,6.78542 5.547081,3.04842 13.907525,7.69626 18.578717,10.32854 14.715401,8.29235 23.328635,12.90476 24.152315,12.93365 0.43793,0.0161 0.79572,-2.2413 0.79508,-5.01486 z m 10.51135,-14.98509 c 6.38545,-3.73941 25.31028,-15.40571 40.71399,-25.09842 3.35742,-2.11262 6.08985,-4.16975 6.07203,-4.5714 -0.0161,-0.40162 -5.92393,-3.67545 -13.12476,-7.27523 l -13.09239,-6.54499 -10.49674,6.7215 c -19.17341,12.27757 -25.283039,16.10313 -34.052117,21.32186 -4.780853,2.84519 -8.492134,5.37338 -8.247332,5.61819 0.934351,0.93435 23.356479,13.6967 24.264989,13.81126 0.52548,0.0662 4.10852,-1.72598 7.96233,-3.98277 z M 84.904357,132.85253 c 10.143118,-6.65983 29.294463,-18.75872 37.163013,-23.47778 l 6.76351,-4.05636 -11.78094,-6.027572 c -15.86005,-8.114639 -16.33092,-8.591805 -15.89781,-16.110468 0.1914,-3.323192 0.0578,-6.332487 -0.29732,-6.687312 -0.63687,-0.636864 -7.866911,3.198805 -18.727384,9.93527 l -5.573603,3.45713 v 23.795852 c 0,13.08773 0.294117,23.79585 0.653436,23.79585 0.35952,0 3.82303,-2.08109 7.696897,-4.62461 z M 143.59752,96.338581 c 7.07327,-4.162286 10.61992,-6.561882 15.83075,-10.710766 2.68998,-2.141792 3.11864,-3.199688 3.11864,-7.696898 0,-2.867613 -0.18096,-5.213842 -0.40221,-5.213842 -0.41803,0 -8.11938,4.506639 -19.4658,11.390885 l -6.59752,4.00291 -0.0361,6.104416 c -0.0201,3.35746 0.14806,6.104454 0.37517,6.104454 0.22711,0 3.45757,-1.791538 7.17856,-3.981159 z M 131.1993,93.575533 c -0.86077,-5.339192 -1.44972,-5.97718 -9.52556,-10.318383 -3.50343,-1.883267 -8.32899,-4.498213 -10.72348,-5.811023 l -4.35361,-2.386916 0.10714,5.424338 c 0.10071,5.102576 0.35912,5.592382 4.3536,8.257243 6.51293,4.344815 18.90581,10.440444 19.93414,9.804945 0.50473,-0.312173 0.59826,-2.54854 0.20785,-4.970204 z M 79.028212,80.838335 C 91.38647,72.829024 101.17601,67.408859 103.28361,67.408859 c 1.23011,0 8.25981,3.224766 15.62155,7.166084 7.36173,3.941358 13.67853,7.303752 14.03729,7.471997 1.01797,0.477367 25.23252,-14.655255 25.31293,-15.81908 0.0241,-0.357514 -4.13524,-2.776931 -9.2444,-5.376308 -5.10915,-2.599378 -16.69428,-8.828864 -25.7448,-13.843285 -9.05047,-5.014423 -17.18923,-9.283401 -18.08606,-9.486634 -1.6885,-0.382793 -16.036035,7.858683 -34.465126,19.796953 -5.839029,3.782463 -12.88518,8.197336 -15.658138,9.810802 -2.772918,1.613467 -5.042187,3.191342 -5.042789,3.506404 -6.02e-4,0.314981 3.462546,2.427562 7.695814,4.694424 4.233307,2.266861 9.360439,5.233824 11.393693,6.593259 2.033214,1.359395 3.863195,2.47166 4.066629,2.47166 0.203433,0 2.839525,-1.600586 5.858009,-3.5568 z"
     id="path10712" />
</svg>
