<?xml version="1.0" encoding="UTF-8" standalone="no"?>
<!-- Created with Inkscape (http://www.inkscape.org/) -->

<svg
   width="800"
   height="800"
   viewBox="0 0 211.66666 211.66667"
   version="1.1"
   fill="currentColor"
   id="svg19685"
   xmlns="http://www.w3.org/2000/svg"
   xmlns:svg="http://www.w3.org/2000/svg">
  <defs
     id="defs19682" />
  <path
     d="m 89.968017,176.88333 c -5.64819,-3.16185 -15.37722,-8.87601 -21.62007,-12.69816 -6.24285,-3.82215 -11.59504,-6.94933 -11.89377,-6.94933 -0.29853,0 -4.50146,-2.42744 -9.33941,-5.39432 -6.14567,-3.76882 -8.99422,-6.18286 -9.45309,-8.01112 -0.36113,-1.43924 -0.41052,-3.01531 -0.10954,-3.50235 0.30093,-0.487 0.57454,-16.88259 0.60793,-36.43466 0.071,-41.715308 -2.23709,-35.802809 18.55011,-47.514173 7.59072,-4.276562 16.29352,-9.353979 19.3396,-11.283109 3.04605,-1.929131 7.90591,-4.707306 10.79973,-6.173714 2.89377,-1.466368 7.08988,-3.913512 9.32465,-5.438061 4.708503,-3.212046 9.825523,-3.102104 14.830673,0.318593 1.66864,1.140472 5.0643,3.407615 7.54587,5.038134 l 4.51198,2.964556 v 16.955461 c 0,13.669303 0.27365,16.850453 1.41151,16.413773 0.77634,-0.297728 7.09181,-3.93205 14.03436,-8.075878 6.94255,-4.143829 13.31203,-7.534231 14.15438,-7.534231 0.84234,0 5.28197,2.198729 9.86585,4.886061 l 8.33432,4.886101 -0.27887,37.807417 -0.27886,37.80745 -17.51705,10.2846 c -9.63442,5.65654 -20.88856,12.43454 -25.00927,15.06221 -10.61106,6.76647 -22.045,12.42362 -25.0116,12.37491 -1.39169,-0.0241 -7.151593,-2.62847 -12.799793,-5.79032 z m 10.800243,-16.43809 c 0,-13.14483 -0.10954,-13.84417 -2.388673,-15.24345 -1.31378,-0.80663 -10.74913,-6.38111 -20.9674,-12.38767 -10.21827,-6.00659 -19.4601,-11.68331 -20.53734,-12.61493 -1.80799,-1.5636 -1.91272,-3.09781 -1.36184,-19.94718 l 0.59678,-18.253343 -5.38903,-3.31589 c -2.96395,-1.823761 -5.53894,-3.165982 -5.72215,-2.982771 -0.55107,0.551036 -1.25198,61.430004 -0.73822,64.117574 0.34829,1.82208 3.21731,4.09861 10.70933,8.49783 5.62849,3.30498 13.36764,7.85844 17.19809,10.11885 3.83045,2.26036 7.30432,4.10976 7.71965,4.10976 0.82794,0 9.41112,5.41812 10.26441,6.47938 0.68056,0.84644 8.7692,5.08982 9.820189,5.15177 0.437934,0.0241 0.796204,-6.15269 0.796204,-13.72993 z m 11.37688,11.52458 c 2.20548,-1.23874 5.15089,-3.14969 6.54531,-4.24655 1.39443,-1.09689 2.93282,-1.99433 3.41865,-1.99433 0.48584,0 4.60162,-2.30418 9.14622,-5.12043 4.54455,-2.81621 13.83213,-8.4234 20.63901,-12.46042 11.43823,-6.78369 12.42298,-7.62266 12.99344,-11.0696 0.78557,-4.74679 0.83805,-59.465686 0.057,-59.465686 -1.02219,0 -6.58688,3.080717 -11.30506,6.258737 -2.51179,1.691831 -6.76331,4.14086 -9.44791,5.442274 l -4.88105,2.366252 -0.22149,18.113023 c -0.12198,9.96219 -0.42051,18.43503 -0.66375,18.82857 -0.565,0.91421 -19.69026,12.35698 -25.97921,15.54354 -4.77527,2.41962 -4.7776,2.42363 -5.30821,9.07271 -0.54486,6.82803 -0.14967,20.98417 0.58566,20.98417 0.22631,0 2.2159,-1.01352 4.42137,-2.25226 z m 0.56801,-35.17056 c 3.90677,-2.48161 9.55324,-5.85215 12.54773,-7.49014 l 5.44448,-2.97815 -6.19128,-3.72822 c -3.40521,-2.0505 -6.57477,-4.29337 -7.04347,-4.98412 -0.46866,-0.6908 -0.67666,-7.82486 -0.4622,-15.85351 0.21427,-8.028647 0.23835,-14.597551 0.0534,-14.597551 -0.18538,0 -2.61322,1.364852 -5.39553,3.033009 -13.051823,7.825337 -41.483063,24.447952 -44.281143,25.889402 l -3.12662,1.6107 4.7191,2.47925 c 2.59549,1.36356 5.52919,2.9735 6.51931,3.57754 0.99013,0.60408 6.48412,3.82788 12.20887,7.164 5.72472,3.33611 11.841809,7.03543 13.593553,8.22073 1.75169,1.18525 3.43823,2.1582 3.74783,2.16201 0.30977,0.004 3.75939,-2.02338 7.6662,-4.50495 z m 20.966,-28.84289 c 0,-6.66713 0.24436,-12.759187 0.54333,-13.537933 0.33625,-0.876731 -1.58381,-2.698406 -5.04283,-4.784063 l -5.58608,-3.368133 -0.53085,10.80165 c -0.78156,15.904299 -0.56817,16.834679 4.60506,20.076779 2.43041,1.52314 4.7772,2.80634 5.21513,2.85152 0.43792,0.0453 0.79624,-5.37269 0.79624,-12.03982 z m -64.760103,-0.37999 c 12.71661,-7.19095 17.52463,-10.031122 20.16939,-11.914349 1.64103,-1.16852 3.26309,-2.124538 3.60463,-2.124538 0.34146,0 6.1201,-3.173647 12.841203,-7.05249 l 12.22027,-7.05249 V 64.721365 c 0,-8.091126 -0.24757,-14.711148 -0.55003,-14.711148 -0.30255,0 -3.7661,1.982295 -7.6969,4.405122 -7.407,4.565423 -13.257343,7.980702 -35.118363,20.501065 l -12.90167,7.389099 v 15.335293 c 0,14.525564 0.0983,15.248214 1.85787,13.686034 1.02182,-0.90711 3.52995,-2.59481 5.5736,-3.75045 z M 147.26439,80.001566 c 5.65526,-3.357459 11.12269,-6.447325 12.14985,-6.866471 2.78664,-1.137022 2.29334,-2.242104 -2.04,-4.570157 -4.14796,-2.228462 -6.25392,-2.228622 -8.83215,-8.02e-4 -1.39338,1.204071 -7.68378,4.77652 -17.23056,9.785684 -1.59412,0.836446 -3.16281,1.948631 -3.48598,2.47154 -0.53073,0.858715 6.22945,5.124042 8.30126,5.237716 0.47043,0.02407 5.48232,-2.700091 11.13758,-6.05751 z M 63.214277,73.949231 c 1.20953,-0.847159 5.01831,-3.075621 8.46393,-4.952106 3.44565,-1.876486 6.50366,-3.7429 6.79561,-4.147641 0.29211,-0.404741 3.90203,-2.595365 8.02243,-4.868045 C 117.27497,43.004591 116.17518,44.058636 107.88768,39.47977 l -4.02779,-2.225372 -4.996123,2.773961 c -4.7457,2.634928 -12.94456,7.312542 -23.07865,13.166779 -2.52695,1.459748 -6.18045,3.54701 -8.11893,4.63837 -1.93848,1.091319 -7.21532,4.161363 -11.72629,6.822293 l -8.20175,4.838031 5.01683,2.944372 c 5.79204,3.39935 7.42629,3.635445 10.4593,1.511027 z"
     id="path1347" />
</svg>
