<?xml version="1.0" encoding="UTF-8" standalone="no"?>
<!-- Created with Inkscape (http://www.inkscape.org/) -->

<svg
   width="800"
   height="800"
   viewBox="0 0 211.66666 211.66667"
   version="1.1"
   fill="currentColor"
   id="svg19685"
   xmlns="http://www.w3.org/2000/svg"
   xmlns:svg="http://www.w3.org/2000/svg">
  <defs
     id="defs19682" />
  <path
     d="m 97.530205,178.1332 c -3.503394,-1.81217 -8.041932,-4.3837 -10.085579,-5.71453 -4.511012,-2.93763 -21.492954,-12.73274 -34.503324,-19.90147 -5.255131,-2.89558 -10.162057,-5.76259 -10.904287,-6.37117 -1.048587,-0.85976 -1.333475,-9.61993 -1.27758,-39.28193 l 0.07182,-38.175486 3.169994,-2.89534 c 1.743511,-1.592441 7.695452,-5.486532 13.226563,-8.653517 5.53107,-3.166946 16.499921,-9.6879 24.375174,-14.491023 7.875253,-4.803083 16.233209,-9.709608 18.573184,-10.903367 l 4.25453,-2.170521 4.51198,2.283513 c 2.48161,1.255913 5.71311,3.128907 7.18117,4.162166 1.46805,1.033299 6.96205,4.234191 12.20887,7.11308 9.8602,5.410254 29.49886,16.516251 37.40773,21.154701 l 4.51198,2.646203 v 38.697311 38.69735 l -6.63078,4.19254 c -10.76834,6.80865 -11.01306,6.76917 -29.99584,-4.8414 -2.3356,-1.42857 -5.44677,-3.2659 -6.91374,-4.08296 l -2.66719,-1.48559 0.27727,16.08683 c 0.15247,8.84773 -0.0802,16.56589 -0.51774,17.15143 -2.29374,3.07113 -15.69657,10.09248 -19.24194,10.08033 -0.36433,-0.001 -3.52915,-1.48499 -7.032589,-3.29715 z m 5.739435,-19.37564 0.008,-15.24357 -5.528583,-2.75992 c -3.040753,-1.51793 -10.067121,-5.54194 -15.614201,-8.94225 l -10.085579,-6.18234 v -17.69581 c 0,-10.38459 -0.438606,-18.132607 -1.061627,-18.753019 -2.134811,-2.125983 -23.194857,-13.808978 -23.997798,-13.312752 -1.057735,0.653716 -0.652673,63.204091 0.420229,64.896561 0.441616,0.69669 4.437784,3.32424 8.880384,5.83903 4.44256,2.5148 10.116716,5.76673 12.60924,7.22648 2.492525,1.45974 9.47596,5.46992 15.518744,8.91152 6.042825,3.44156 12.658996,7.35419 14.702682,8.69472 2.043649,1.3405 3.810589,2.46601 3.926549,2.50111 0.11596,0.0361 0.21507,-6.79581 0.22029,-15.17976 z m 10.57511,11.49505 4.06017,-2.68689 0.68316,-15.01839 c 0.37557,-8.26017 0.47492,-15.22667 0.22029,-15.48123 -0.25439,-0.25439 -2.62068,0.9051 -5.25814,2.57695 l -4.79538,3.03967 -0.0401,15.12841 c -0.0201,8.3206 0.21025,15.12837 0.5148,15.12837 0.30455,0 2.38066,-1.20909 4.61373,-2.68689 z M 149.981,110.27857 150.24903,79.997684 146.0918,78.16353 c -2.28648,-1.008783 -7.45987,-3.973579 -11.49645,-6.588404 -4.03657,-2.614866 -8.05782,-4.764483 -8.93612,-4.776961 -1.39278,-0.02006 -1.56046,4.059887 -1.31188,31.917469 0.21105,23.627446 0.62667,32.281886 1.59773,33.252906 0.72197,0.72201 3.70101,2.51444 6.62007,3.98317 2.91909,1.46878 7.69609,4.16068 10.61559,5.98204 5.28819,3.29903 5.31054,3.30269 5.92024,0.96861 0.33665,-1.28861 0.7326,-15.9693 0.88002,-32.62379 z m 10.77597,32.36527 3.65659,-2.69303 0.53081,-13.49701 c 0.29211,-7.42336 0.36715,-22.1374 0.16733,-32.697897 l -0.36354,-19.200934 -4.67905,2.152585 c -4.19788,1.931216 -4.69166,2.541116 -4.80124,5.930435 -0.44535,13.772063 -0.53009,57.380751 -0.11636,59.779341 0.6188,3.58614 1.02186,3.60243 5.6057,0.22631 z m -50.75246,-7.3515 c 2.18962,-1.11475 3.96759,-2.29664 3.95102,-2.62642 -0.0321,-0.62459 -6.93921,-4.90476 -16.977485,-10.51945 l -5.860376,-3.27786 -4.563416,2.72128 -4.563456,2.72132 11.447581,6.80969 c 6.296134,3.74535 11.703462,6.67211 12.016232,6.50398 0.31298,-0.16812 2.36023,-1.21779 4.5499,-2.33254 z m 9.28933,-38.863269 V 64.507549 l -3.07361,2.188618 c -1.69051,1.20375 -3.95974,2.550064 -5.04279,2.9918 -1.08305,0.441776 -5.94508,3.191903 -10.80454,6.111398 -4.859458,2.919535 -12.025541,7.069102 -15.924608,9.221246 l -7.089244,3.91307 -0.102319,14.931069 c -0.063,9.1729 0.301339,14.93108 0.944222,14.93108 0.575673,0 3.375916,-1.43323 6.222825,-3.18492 2.846868,-1.75174 5.792766,-3.18493 6.546393,-3.18493 1.419663,0 23.547511,12.84695 25.512721,14.81215 0.61182,0.61182 1.49465,1.11246 1.96175,1.11246 0.46713,0 0.84932,-14.36471 0.84932,-31.921519 z M 81.913676,79.505029 c 3.672882,-2.330059 7.075161,-4.236477 7.560673,-4.236477 0.485513,0 4.407651,-2.290496 8.715872,-5.090017 9.719159,-6.315594 21.589459,-12.957886 23.156779,-12.957886 0.6475,0 2.95858,1.119848 5.13568,2.488512 2.1771,1.368664 8.69288,5.25822 14.4795,8.643446 l 10.52114,6.154894 4.60723,-2.516801 c 2.53402,-1.384272 4.60427,-2.765655 4.60057,-3.069803 -0.012,-0.85085 -11.15322,-7.163475 -35.68091,-20.21377 -4.15478,-2.210606 -9.55256,-5.28081 -11.99509,-6.822735 -8.65111,-5.461212 -7.50498,-5.722667 -27.788483,6.33947 -10.16619,6.045633 -22.368322,13.290121 -27.115831,16.098871 l -8.63181,5.106789 7.039369,3.722797 c 3.871621,2.047539 9.189186,5.250958 11.816731,7.118736 2.627546,1.867779 5.255131,3.412712 5.83903,3.433216 0.583899,0.02006 4.066709,-1.869183 7.73955,-4.199242 z"
     id="path7710" />
</svg>
