<?xml version="1.0" encoding="UTF-8" standalone="no"?>
<!-- Created with Inkscape (http://www.inkscape.org/) -->

<svg
   width="800"
   height="800"
   viewBox="0 0 211.66666 211.66667"
   version="1.1"
   fill="currentColor"
   id="svg19685"
   xmlns="http://www.w3.org/2000/svg"
   xmlns:svg="http://www.w3.org/2000/svg">
  <defs
     id="defs19682" />
  <path
     d="M 107.02019,164.36964 C 68.637864,143.66803 57.375178,137.24583 56.793165,135.72914 56.50266,134.97186 56.21055,117.57342 56.144183,97.065939 L 56.023407,59.779624 63.739284,54.8219 C 76.06167,46.904355 76.60079,46.566262 79.948218,44.656874 c 10.406016,-5.935528 9.259445,-5.773423 15.546069,-2.197606 3.127703,1.779062 7.836573,4.397018 10.464153,5.817643 2.62755,1.420626 10.98795,6.157061 18.57868,10.525469 7.59077,4.368368 16.83376,9.54983 20.54007,11.51435 3.94184,2.089348 7.11629,4.5649 7.64842,5.96446 0.50032,1.315899 1.21262,19.314128 1.58294,39.996 l 0.67325,37.60338 -4.60591,2.633 c -2.53325,1.44815 -9.23854,5.33458 -14.90065,8.63642 -6.32972,3.69118 -11.44084,5.96507 -13.2705,5.90396 -1.6367,-0.0546 -8.46979,-3.06262 -15.18467,-6.68431 z m 36.62658,-12.21509 5.30822,-3.36873 0.004,-14.73089 0.004,-14.73085 -4.25084,2.57791 c -2.33796,1.41786 -7.70861,4.59961 -11.93474,7.07054 l -7.68386,4.4926 -0.012,15.06244 -0.012,15.06248 6.63527,-4.03336 c 3.64937,-2.21835 9.02391,-5.54929 11.94345,-7.40214 z m -23.88689,-3.83466 v -14.34032 l -6.10442,-3.05532 c -3.35746,-1.68039 -11.00127,-5.79549 -16.986273,-9.14464 l -10.881819,-6.08933 -0.04173,-9.16046 C 85.691469,94.625376 84.680841,80.572117 83.814783,79.684392 82.717725,78.559969 65.733175,68.867415 62.027551,67.2511 c -0.534906,-0.233127 -0.64216,13.379078 -0.250781,31.841593 0.612026,28.876997 0.87625,32.396437 2.526831,33.657647 1.637301,1.25106 22.423294,12.87022 41.654879,23.28466 3.79535,2.05528 7.843,4.38675 8.99475,5.18106 4.49034,3.09677 4.80657,2.24836 4.80657,-12.89617 z m 11.7425,-25.93086 9.73986,-6.29875 -20.2876,0.19421 c -11.15816,0.10673 -20.29133,0.26362 -20.29595,0.34828 -0.004,0.0847 2.43535,1.43194 5.4221,2.99365 2.98674,1.56174 7.64469,4.2303 10.351,5.93011 2.70631,1.69986 5.01282,3.0997 5.12561,3.11081 0.11275,0.012 4.58801,-2.81428 9.94498,-6.27856 z m 16.92091,-27.531451 8.8e-4,-15.251632 -28.39886,0.762937 c -15.61942,0.419627 -28.637777,0.906103 -28.929726,1.081048 -0.29211,0.174945 -0.384799,6.862418 -0.206644,14.861015 l 0.32421,14.542903 28.60463,-0.37236 28.60463,-0.37236 z M 136.45388,73.067057 c 0.1589,-0.158895 -1.02403,-0.949317 -2.62887,-1.756351 -1.60483,-0.807034 -4.11225,-2.263291 -5.57199,-3.236081 -1.45979,-0.972831 -10.61391,-6.126967 -20.34253,-11.453681 -12.225088,-6.693612 -18.291265,-9.464443 -19.640348,-8.971026 -1.073544,0.392824 -4.579506,2.394379 -7.79095,4.448257 -3.211485,2.053878 -8.227711,5.069392 -11.147246,6.701115 -2.919495,1.631724 -4.591584,2.997578 -3.715735,3.035176 0.875848,0.03611 6.369843,2.910747 12.208873,6.384769 l 10.616392,6.316357 23.861694,-0.589757 c 13.12396,-0.32421 23.99178,-0.719802 24.15071,-0.878778 z"
     id="path14026" />
</svg>
