<?xml version="1.0" encoding="UTF-8" standalone="no"?>
<!-- Created with Inkscape (http://www.inkscape.org/) -->

<svg
   width="800"
   height="800"
   viewBox="0 0 211.66666 211.66667"
   version="1.1"
   fill="currentColor"
   id="svg19685"
   xmlns="http://www.w3.org/2000/svg"
   xmlns:svg="http://www.w3.org/2000/svg">
  <defs
     id="defs19682" />
  <path
     d="M 94.624915,177.18894 C 75.617342,166.8009 65.84201,161.47742 59.590776,158.10997 c -3.503394,-1.88728 -9.355705,-5.07951 -13.005073,-7.09386 l -6.635272,-3.66249 v -10.63425 c 0,-5.84882 0.501242,-11.5708 1.11387,-12.71549 1.071981,-2.00308 14.844244,-11.51102 21.976824,-15.17214 1.897671,-0.97412 3.450308,-2.14505 3.450308,-2.60211 0,-0.45706 -2.030365,-1.81995 -4.511976,-3.02864 C 52.423208,98.546535 40.448021,91.84863 39.727978,90.755464 39.313688,90.126465 39.171645,84.83133 39.412194,78.988568 39.828291,68.888496 39.996093,68.244919 42.81961,65.920715 c 1.633329,-1.344524 4.402957,-3.202877 6.154653,-4.129665 1.751697,-0.926791 8.440053,-5.128721 14.862942,-9.33762 6.422928,-4.2089 15.033552,-9.550544 19.134648,-11.870323 4.101136,-2.319779 10.066519,-5.975375 13.256336,-8.123551 3.189857,-2.148172 6.958481,-3.905767 8.374731,-3.905767 1.41621,0 6.19999,2.09475 10.63055,4.654993 4.43061,2.560252 11.63866,6.554427 16.01794,8.875947 20.00231,10.603572 36.87062,20.180314 37.58709,21.339521 1.02359,1.656228 1.68927,15.315583 2.26314,46.43786 l 0.60849,33.00365 -15.98628,9.99277 c -8.79243,5.49604 -16.83986,10.47054 -17.88311,11.05443 -1.04325,0.5839 -4.26641,2.54351 -7.16259,4.35467 -12.49348,7.81298 -23.84248,14.22106 -25.11994,14.18363 -0.75824,-0.0241 -5.678285,-2.39025 -10.933416,-5.26232 z m 8.288455,-14.86689 c -0.47134,-0.4163 -5.395483,-3.16602 -10.942564,-6.11052 -5.54704,-2.94449 -16.017096,-8.74628 -23.26672,-12.89284 -7.249624,-4.14656 -13.350269,-7.53921 -13.557033,-7.53921 -0.206644,0 -2.267825,-1.19436 -4.580228,-2.6541 -2.312404,-1.45975 -4.452711,-2.65411 -4.756257,-2.65411 -1.134454,0 -0.433591,10.14958 0.80888,11.71441 1.549106,1.95104 6.838744,5.16441 18.279544,11.10459 4.671192,2.42536 12.315004,6.50021 16.986236,9.05525 4.671232,2.555 11.359547,6.20014 14.862981,8.1003 l 6.369841,3.45484 0.32622,-5.41086 c 0.17936,-2.97599 -0.0594,-5.75145 -0.53081,-6.16775 z m 23.66348,0.42881 c 9.28593,-5.60229 19.55283,-12.00243 22.81532,-14.22246 3.26248,-2.22008 7.88801,-5.03444 10.27898,-6.25424 2.39092,-1.21976 4.69815,-2.78568 5.12713,-3.4798 0.67683,-1.0951 0.72333,-65.707942 0.0478,-66.383479 -0.13924,-0.139394 -3.49995,1.879218 -7.46791,4.48577 -3.96796,2.60652 -7.41843,4.739164 -7.66772,4.739164 -0.24918,0 -2.3547,1.200339 -4.6787,2.667429 l -4.22544,2.66743 -0.0161,26.793066 c -0.008,14.73623 -0.36714,27.29098 -0.79624,27.89947 -0.42898,0.60846 -5.79622,4.13059 -11.9272,7.8269 -20.02875,12.07518 -19.10953,11.22128 -19.10953,17.75213 0,3.13207 0.16572,5.69466 0.36795,5.69466 0.20263,0 7.96573,-4.58372 17.25166,-10.18604 z m -13.65734,-11.24109 c 3.95163,-2.44249 9.69989,-5.97474 12.77395,-7.84946 l 5.58913,-3.40853 -9.83572,-4.89566 c -12.11213,-6.0287 -24.761898,-12.79738 -36.929402,-19.76031 -5.089736,-2.91264 -10.020015,-5.2957 -10.956171,-5.2957 -0.936116,0 -6.021438,2.83624 -11.300644,6.30275 -5.279206,3.46652 -10.610052,6.6238 -11.846303,7.01618 -2.347955,0.7452 2.196041,3.61061 25.631848,16.16335 4.963181,2.65836 10.218312,5.62665 11.67806,6.59611 1.459747,0.9695 5.281653,3.09235 8.493137,4.7175 3.211445,1.6251 6.292845,3.38221 6.847575,3.90472 1.56178,1.47102 2.18236,1.25122 9.85454,-3.49095 z m 22.80737,-36.6976 c -0.16612,-11.53213 -0.40495,-22.091463 -0.53082,-23.465263 -0.18618,-2.032211 -2.70222,-3.829089 -13.49929,-9.640593 l -13.2705,-7.142839 -0.31097,6.597902 c -0.3535,7.498359 -0.76691,8.040367 -10.305303,13.513577 -3.503394,2.010303 -9.099106,5.327196 -12.434857,7.370886 l -6.065014,3.71581 3.912628,2.0038 c 2.151944,1.10212 6.103895,3.25153 8.782078,4.77644 2.678224,1.52495 10.812848,5.91439 18.076998,9.75431 7.26415,3.83992 15.83513,8.43592 19.04657,10.21326 3.21144,1.77737 6.07789,3.24025 6.36984,3.25088 0.29211,0.012 0.39483,-9.41605 0.22872,-20.94817 z M 71.799649,96.060872 v -5.7461 L 63.571938,85.598118 C 48.583887,77.006032 45.010034,75.160679 44.447522,75.723196 c -0.306555,0.306555 -0.129604,3.072973 0.392422,6.148032 0.801698,4.720786 1.449034,5.839832 4.159036,7.189758 1.76526,0.879339 6.457998,3.509733 10.428327,5.845329 8.91108,5.242095 11.764609,6.864825 12.106875,6.885005 0.146055,0.008 0.265226,-2.570083 0.265226,-5.730448 z m 27.441727,-9.116841 c 2.211814,0 3.445254,-3.304976 3.138894,-8.41052 l -0.3238,-5.39796 -5.839034,4.044463 c -3.211485,2.22445 -8.824892,5.680496 -12.4743,7.680085 l -6.635231,3.635686 v 6.093342 6.093383 l 10.585456,-6.86924 c 5.822017,-3.778089 11.018646,-6.869239 11.548055,-6.869239 z M 79.422797,80.461196 c 3.076303,-1.813851 7.516415,-4.602097 9.866897,-6.196139 2.350482,-1.594025 6.738713,-4.223248 9.751619,-5.842721 l 5.478027,-2.944497 6.20003,3.168784 c 3.40998,1.742825 10.63281,5.585753 16.05064,8.539811 l 9.85069,5.371052 9.28733,-6.150039 c 5.10803,-3.382537 10.82721,-6.946347 12.70923,-7.919575 1.88199,-0.973231 3.42182,-1.97364 3.42182,-2.223137 0,-0.249497 -3.70245,-2.329252 -8.22771,-4.621686 -4.52521,-2.292429 -17.46272,-9.246468 -28.74996,-15.45342 -11.28724,-6.206949 -21.08087,-10.96461 -21.76364,-10.57258 -1.27104,0.729825 -30.746901,18.758717 -33.621415,20.564507 -0.875849,0.550222 -6.024528,3.702722 -11.441523,7.005555 -5.416995,3.302833 -9.70419,6.150043 -9.527079,6.327131 0.680119,0.680134 8.341827,5.751774 8.689149,5.751774 0.201427,0 3.636087,1.910949 7.632938,4.246544 3.996811,2.335636 7.611792,4.246589 8.033305,4.246589 0.421473,0 3.283349,-1.484063 6.359652,-3.297953 z"
     id="path5789" />
</svg>
