<?xml version="1.0" encoding="UTF-8" standalone="no"?>
<!-- Created with Inkscape (http://www.inkscape.org/) -->

<svg
   width="800"
   height="800"
   viewBox="0 0 211.66666 211.66667"
   version="1.1"
   fill="currentColor"
   id="svg19685"
   xmlns="http://www.w3.org/2000/svg"
   xmlns:svg="http://www.w3.org/2000/svg">
  <defs
     id="defs19682" />
  <path
     d="M 102.38252,177.42887 C 101.2191,176.11518 94.603046,165.00778 87.6802,152.74558 80.757314,140.48378 74.15916,129.0963 73.017643,127.44035 71.083338,124.6344 69.663073,122.10292 63.092444,109.74923 61.694891,107.12185 58.574362,101.86668 56.157874,98.071255 47.533086,84.524654 40.196753,70.012646 41.183026,68.449376 c 0.517051,-0.819753 4.026502,-3.208796 7.798813,-5.309339 3.772271,-2.100143 8.049115,-4.583077 9.504047,-5.517187 1.454933,-0.93411 7.422691,-4.448659 13.261721,-7.810331 5.83903,-3.361672 15.300865,-8.927412 21.026301,-12.368532 5.725436,-3.440718 11.123732,-6.256289 11.996172,-6.256289 2.04802,0 5.35785,1.699694 22.47212,11.539148 7.74987,4.45588 16.11027,9.21952 18.57872,10.585776 16.10617,8.915775 24.1252,14.196224 24.09033,15.863418 -0.0201,1.002724 -2.37015,5.645186 -5.22039,10.316538 -2.85023,4.670951 -8.64457,14.703806 -12.87635,22.294252 -4.23174,7.59085 -9.04867,15.79841 -10.70422,18.23922 l -3.01014,4.43782 v 19.07382 19.07422 l -14.86635,8.6028 c -8.17651,4.73154 -15.73707,8.6028 -16.80122,8.6028 -1.06416,0 -2.88667,-1.07495 -4.05006,-2.38864 z m 16.77197,-11.59933 c 1.54991,-1.06492 3.13593,-1.93644 3.5245,-1.93644 0.38841,0 2.82291,-1.45653 5.40969,-3.23608 l 4.70325,-3.23608 v -17.79383 -17.79383 l 3.82331,-6.30765 c 5.29891,-8.74163 12.09937,-20.547611 14.02911,-24.355072 0.8878,-1.751858 3.45063,-5.974613 5.69518,-9.384034 l 4.08103,-6.198911 -3.99412,2.393055 c -2.1968,1.3161 -4.71076,2.974065 -5.5866,3.684679 -0.87585,0.710614 -5.41435,3.297873 -10.08558,5.749912 -4.67124,2.451637 -9.20973,5.038897 -10.08558,5.749912 -0.87585,0.711015 -4.22003,2.656275 -7.43151,4.323067 -3.21145,1.666793 -7.74995,4.288962 -10.08558,5.826952 l -4.24655,2.79591 -0.53081,26.50216 c -0.29211,14.57621 -0.38801,29.51274 -0.21347,33.1918 l 0.31739,6.68964 3.92908,-2.36417 c 2.16101,-1.30045 5.19719,-3.23568 6.74706,-4.30099 z m -16.05586,-29.46339 0.0947,-30.06606 -3.51395,-2.15913 c -1.93266,-1.1873 -6.223066,-3.63572 -9.534181,-5.441348 -9.152913,-4.990747 -36.127352,-20.667584 -38.86183,-22.585559 -2.080481,-1.458944 -1.932861,-0.945746 1.061627,3.692303 3.737804,5.789636 6.560838,10.61908 17.812738,30.473734 3.970931,7.00662 9.649902,16.80033 12.619994,21.7638 2.970052,4.96306 5.982637,10.21823 6.694575,11.67798 0.711978,1.45974 2.748041,5.05494 4.524615,7.98969 1.776575,2.93434 4.403959,7.57319 5.838669,10.30811 1.434673,2.73492 2.734523,4.84629 2.888523,4.69221 0.15408,-0.15247 0.3226,-13.80942 0.37476,-30.34573 z m 15.43613,-43.603031 c 0.39001,0 3.62385,-1.770716 7.18651,-3.935059 3.56265,-2.164342 8.88026,-5.199798 11.81693,-6.745413 2.93663,-1.546016 6.53367,-3.495289 7.99342,-4.332296 1.45979,-0.837008 5.4011,-3.102465 8.75856,-5.034082 3.35746,-1.931618 5.85609,-3.913793 5.5525,-4.405324 -0.30334,-0.49113 -1.85622,-1.549627 -3.45035,-2.352127 -5.94267,-2.992121 -27.41279,-14.966223 -30.00286,-16.732927 -1.47769,-1.00794 -6.75456,-4.014104 -11.72641,-6.680009 l -9.03968,-4.8467 -5.25983,2.948385 c -2.892931,1.621452 -10.514955,5.949736 -16.937883,9.617963 -11.46307,6.546393 -16.538682,9.400886 -28.05966,15.779958 l -5.76516,3.192345 6.478623,3.138176 c 3.56326,1.726177 7.829679,4.087934 9.480943,5.248349 1.651264,1.160817 6.34645,3.931046 10.433743,6.155977 20.751004,11.296792 23.992983,13.129301 26.648694,15.063727 l 2.87472,2.094128 6.15409,-4.087538 c 3.38478,-2.248203 6.47316,-4.087533 6.8631,-4.087533 z"
     id="path17932" />
</svg>
