<?xml version="1.0" encoding="UTF-8" standalone="no"?>
<!-- Created with Inkscape (http://www.inkscape.org/) -->

<svg
   width="800"
   height="800"
   viewBox="0 0 211.66666 211.66667"
   version="1.1"
   fill="currentColor"
   id="svg5"
   xmlns="http://www.w3.org/2000/svg"
   xmlns:svg="http://www.w3.org/2000/svg">
  <defs
     id="defs2" />
  <g
     id="layer1" />
  <path d="m 81.088661,166.96248 c -3.45824,-2.11696 -9.426,-5.68592 -13.261639,-7.93108 -3.83564,-2.24512 -7.8166,-5.01324 -8.84656,-6.15136 -2.12712,-2.3504 -2.74384,-0.0428 7.93596,-29.69359 3.040039,-8.4402 7.059399,-19.63208 8.931919,-24.870802 C 88.81974,62.02553 90.43842,58.02045 92.95754,55.98229 c 2.429,-1.96524 10.49336,-6.642039 21.26628,-12.333119 2.47388,-1.30688 4.49792,-2.757518 4.49792,-3.223598 0,-1.86844 4.71972,-0.66916 9.16002,2.327558 2.58744,1.74624 5.11712,3.175 5.62152,3.175 0.5044,0 1.07584,0.3572 1.26988,0.79376 0.194,0.43656 2.49588,1.92208 5.11528,3.3012 2.61936,1.37912 6.54844,3.49152 8.73124,4.694279 l 3.96876,2.1868 v 39.327118 c 0,44.852592 1.26204,39.540282 -11.11252,46.775952 -30.21574,17.66784 -48.92574,27.8042 -51.32174,27.8042 -1.5278,0 -5.60728,-1.73204 -9.065519,-3.84896 z m 26.046999,-11.24016 c 26.11578,-14.92804 36.46066,-21.04839 38.12922,-22.55843 1.83444,-1.66012 1.9952,-4.14044 2.26772,-34.986882 0.1612,-18.260039 0.036,-33.080758 -0.2792,-32.934918 -5.39368,2.49792 -23.18234,13.244399 -23.21318,14.023559 -0.024,0.58208 -2.92912,8.440199 -6.458,17.462479 -5.67024,14.497002 -11.78572,30.940762 -16.3342,43.920832 -0.81592,2.32832 -3.10228,8.58564 -5.08084,13.90516 l -3.59736,9.6718 4.92952,-2.90656 c 2.71124,-1.5986 7.0476,-4.11728 9.6364,-5.59704 z m -15.37928,-4.7546 c 2.19568,-6.83948 4.87488,-14.45432 5.95376,-16.92179 1.078879,-2.46752 1.961599,-4.79656 1.961599,-5.17564 0,-0.3792 2.920961,-8.36144 6.491041,-17.7386 11.07748,-29.096321 11.70112,-30.764001 12.1146,-32.395241 0.4036,-1.59248 -8.3422,-7.87192 -14.90148,-10.699119 -1.74624,-0.75268 -4.397321,-2.1954 -5.89128,-3.20604 L 94.7683,62.99377 88.82038,79.067209 c -3.27136,8.840359 -8.082679,22.026561 -10.691839,29.302601 -2.60916,7.27604 -6.92556,19.26812 -9.591999,26.64912 -2.66648,7.38095 -4.84812,13.68531 -4.84812,14.00963 0,0.76476 7.611359,5.56172 13.729399,8.65276 2.63528,1.33148 5.74392,3.1484 6.908079,4.03768 1.1642,0.88924 2.41404,1.63196 2.77752,1.65048 0.3636,0.02 2.45728,-5.56228 4.65296,-12.40176 z m 36.57354,-81.570991 c 2.57364,-1.644359 7.38044,-4.579839 10.68172,-6.523319 l 6.0024,-3.53352 -9.583,-5.6628 c -5.27068,-3.114519 -10.69722,-5.942399 -12.05898,-6.284199 -1.73448,-0.43532 -4.94088,0.72744 -10.70688,3.88276 -4.527,2.477319 -9.29876,5.025999 -10.60392,5.663759 -3.087881,1.50888 -3.009521,1.92444 0.78548,4.1662 1.74624,1.03152 3.175,2.54804 3.175,3.36996 0,0.82992 0.64416,1.24728 1.4486,0.9386 1.34016,-0.51428 6.78152,2.0384 11.75148,5.512879 2.89524,2.02404 3.77684,1.87592 9.1081,-1.53032 z"
     id="path3362" />
</svg>
