<?xml version="1.0" encoding="UTF-8" standalone="no"?>
<!-- Created with Inkscape (http://www.inkscape.org/) -->

<svg
   width="800"
   height="800"
   viewBox="0 0 211.66666 211.66667"
   version="1.1"
   fill="currentColor"
   id="svg5"
   xmlns="http://www.w3.org/2000/svg"
   xmlns:svg="http://www.w3.org/2000/svg">
  <defs
     id="defs2" />
  <g
     id="layer1" />
  <path d="m 114.72075,158.89062 c -3.20144,-1.63772 -8.5364,-4.72728 -11.85539,-6.86576 -3.319045,-2.13844 -6.341244,-3.88808 -6.716084,-3.88808 -0.3748,0 -4.65896,-2.61936 -9.52032,-5.82084 -4.861359,-3.20144 -9.053279,-5.82084 -9.315359,-5.82084 -0.262,0 -3.6122,-1.905 -7.44472,-4.23332 -3.832519,-2.32832 -7.260479,-4.23332 -7.617679,-4.23332 -0.3572,0 -2.04356,-0.99264 -3.74736,-2.20588 l -3.09784,-2.20584 0.2888,-18.60604 0.2888,-18.606 9.525,-5.784899 C 80.796317,71.334961 85.029356,68.807681 95.671076,62.611922 114.43567,51.686883 119.94563,48.653483 121.02535,48.653483 c 1.52748,0 5.32508,6.308679 14.53832,24.151438 4.41216,8.54484 8.90944,16.800179 9.99392,18.345219 1.08448,1.54508 1.9718,3.11576 1.9718,3.49044 0,0.3748 1.66688,3.28696 3.7042,6.47176 l 3.70416,5.79056 v 18.47588 c 0,18.02796 -0.0576,18.5108 -2.38128,19.91576 -2.25228,1.36196 -16.71808,9.54076 -25.43216,14.37912 -5.07388,2.81716 -5.40652,2.79616 -12.40324,-0.78304 z m 21.16668,-11.6116 c 2.03728,-0.98344 4.1804,-2.15352 4.76248,-2.60016 0.58208,-0.44664 2.7252,-1.8934 4.76252,-3.21504 l 3.70416,-2.40292 0.2964,-13.48712 0.2964,-13.48712 -4.04072,2.41464 c -2.2224,1.32804 -4.97516,2.99368 -6.11728,3.70144 -1.14212,0.70772 -5.268,3.05756 -9.1686,5.22184 l -7.092,3.93508 0.166,13.4936 0.166,13.49364 4.28004,-2.63988 c 2.354,-1.45196 5.94688,-3.44452 7.9842,-4.428 z m -17.80484,-4.16932 c 0.1884,-5.09324 0.1748,-11.02948 -0.028,-13.19164 -0.3896,-4.11348 -0.46704,-4.1798 -13.94503,-11.917 -20.729043,-11.89972 -21.463363,-12.3292 -26.424083,-15.45528 -1.45772,-0.9186 -5.87632,-3.448481 -9.819119,-5.622 l -7.16868,-3.95184 0.1916,13.1542 0.1916,13.15424 7.506359,4.52868 c 4.12848,2.49076 10.36388,6.28176 13.85636,8.4244 9.290799,5.69992 18.394243,11.00472 23.812513,13.8762 2.61936,1.38816 5.89828,3.36464 7.28648,4.3922 1.38816,1.02752 2.901,1.86824 3.3618,1.86824 0.4608,0 0.99192,-4.16716 1.1802,-9.2604 z m 16.68752,-29.55376 12.38812,-7.0642 -1.9622,-3.78372 c -1.07924,-2.08108 -2.86788,-5.29 -3.97484,-7.13104 -1.10696,-1.841 -3.88324,-6.8416 -6.16952,-11.11248 -16.58856,-30.988137 -15.05932,-28.629218 -17.53648,-27.050178 -4.80056,3.06012 -23.336194,13.859199 -43.262713,25.205379 -4.504,2.564599 -8.194919,4.906079 -8.202079,5.203319 -0.016,0.62492 16.378399,10.57208 17.423279,10.57208 0.383199,0 2.212679,1.137359 4.065599,2.52748 1.85296,1.39008 5.75024,3.78308 8.66064,5.31772 2.910439,1.53468 9.577924,5.36936 14.816674,8.52152 5.23876,3.15216 9.93908,5.7598 10.4452,5.79476 0.50612,0.036 6.49484,-3.11536 13.30832,-7.00064 z"
     id="path3138" />
</svg>
