<?xml version="1.0" encoding="UTF-8" standalone="no"?>
<!-- Created with Inkscape (http://www.inkscape.org/) -->

<svg
   width="800"
   height="800"
   viewBox="0 0 211.66666 211.66667"
   fill="currentColor"
   version="1.1"
   id="svg19685"
   xmlns="http://www.w3.org/2000/svg"
   xmlns:svg="http://www.w3.org/2000/svg">
  <defs
     id="defs19682" />
  <path
     d="m 62.108844,169.08225 c -4.379242,-2.3687 -8.678916,-4.9306 -9.554765,-5.69313 -0.875848,-0.76254 -4.578302,-2.88018 -8.227711,-4.70586 -4.185921,-2.09405 -6.664242,-3.99958 -6.713836,-5.162 -0.04333,-1.0134 -0.03611,-18.31911 0.01605,-38.45709 0.107535,-41.101033 -0.573226,-37.696909 8.55429,-42.761967 6.052093,-3.358422 20.613054,-12.012221 25.479373,-15.142813 2.043687,-1.314696 6.104457,-3.684077 9.023952,-5.265283 2.919535,-1.581165 6.024808,-3.477232 6.900657,-4.213485 3.343736,-2.810716 16.913766,-10.127831 18.763936,-10.117719 1.06596,0.004 5.52112,2.137057 9.90036,4.736074 4.37928,2.599056 10.28953,6.057911 13.13391,7.686344 2.84438,1.628433 7.62175,4.564379 10.6164,6.524325 2.99464,1.959945 8.07238,4.965669 11.28383,6.679367 3.21148,1.713739 9.42207,5.384494 13.80135,8.157252 l 7.96229,5.041385 0.29612,37.1147 c 0.16291,20.41307 0.055,38.10771 -0.23995,39.32137 -0.29492,1.2137 -1.62249,2.7472 -2.95027,3.40782 -2.42748,1.20776 -8.63518,4.69555 -22.81816,12.82026 -4.21538,2.4148 -8.40282,4.39051 -9.30543,4.39051 -1.79515,0 -10.78231,-4.7516 -19.12602,-10.1121 -2.9195,-1.87568 -7.34043,-4.43919 -9.82429,-5.69674 l -4.51611,-2.28641 -4.50784,2.43419 c -2.479323,1.33881 -9.046381,5.14398 -14.593421,8.45602 -5.54708,3.312 -11.279939,6.27603 -12.739687,6.58676 -1.845589,0.39282 -5.079704,-0.74701 -10.616432,-3.74178 z m 6.377347,-10.23749 c 0.004,-3.35742 0.123585,-18.21233 0.265226,-33.01092 l 0.258004,-26.906454 -4.501142,-2.415124 c -2.475672,-1.328298 -5.103217,-2.914198 -5.83903,-3.524219 -3.848348,-3.190459 -14.499368,-8.407511 -14.896044,-7.296369 -0.24075,0.674822 -0.546061,15.336256 -0.678112,32.580936 -0.275258,35.96319 -1.346075,32.22768 11.051387,38.55643 4.087293,2.08654 8.625831,4.75654 10.085579,5.93332 1.459747,1.17679 3.012424,2.15022 3.450348,2.16322 0.437924,0.012 0.799571,-2.7234 0.803704,-6.08082 z m 11.670556,2.89578 c 1.459748,-0.98936 5.281654,-3.25048 8.493138,-5.02473 3.211444,-1.77421 7.323775,-4.08091 9.138468,-5.12597 l 3.299477,-1.90008 0.67687,-11.74523 c 0.8271,-14.35279 0.90654,-52.618395 0.10914,-52.618395 -0.31739,0 -5.941428,3.105314 -12.497572,6.900697 -6.556184,3.795343 -12.506962,6.900657 -13.224036,6.900657 -0.992772,0 -1.321075,6.141411 -1.376287,25.744761 -0.04012,14.15963 -0.258405,28.13348 -0.485713,31.05302 -0.227108,2.91949 -0.160099,6.15116 0.148864,7.18149 0.576435,1.92098 1.025916,1.81357 5.717451,-1.36622 z m 55.426063,-28.90597 c 0.19822,-20.52197 -0.073,-32.41558 -0.75158,-32.948398 -0.5839,-0.458548 -4.64467,-2.864242 -9.02395,-5.346014 -4.37924,-2.481731 -10.23156,-5.854397 -13.00508,-7.494827 l -5.04278,-2.982572 v 32.789221 32.78923 l 8.55517,4.9999 c 4.70537,2.74992 8.88556,5.01706 9.28937,5.03805 0.40378,0.0201 2.16736,1.21298 3.91905,2.64885 1.75174,1.43583 3.762,2.61302 4.46732,2.61591 0.96713,0.004 1.35863,-7.88946 1.59248,-32.10935 z m 9.45626,30.1356 c 1.3925,-1.08847 5.87602,-3.73399 9.96332,-5.87895 13.66107,-7.16914 12.25429,-2.84952 12.9308,-39.70533 0.32381,-17.632852 0.30495,-32.059755 -0.0417,-32.059755 -0.34668,0 -5.29935,2.760319 -11.00617,6.134029 -5.70686,3.373709 -11.58465,6.659706 -13.06177,7.302187 l -2.68572,1.1682 -0.23393,32.509309 c -0.1288,17.88014 0.17936,32.50932 0.68469,32.50932 0.50529,0 2.05805,-0.89054 3.45059,-1.97901 z m 0.29371,-72.150161 c 3.56651,-2.233477 9.47047,-5.687919 13.11983,-7.676513 3.64941,-1.988595 6.63527,-3.883579 6.63527,-4.211079 0,-0.32742 -2.50813,-1.886276 -5.57364,-3.463951 -7.26363,-3.738325 -24.22286,-13.936976 -26.32111,-15.828549 -0.90089,-0.81217 -3.14665,-2.101547 -4.99047,-2.865326 -1.84386,-0.763739 -7.05895,-3.729097 -11.58906,-6.589688 -4.53015,-2.860591 -8.98511,-5.201083 -9.89996,-5.201083 -0.91485,0 -5.23407,2.224771 -9.598223,4.943962 -4.364155,2.719191 -10.275089,6.030546 -13.135359,7.358603 -2.860271,1.328058 -5.487856,2.837319 -5.83903,3.353848 -0.351094,0.51657 -3.504919,2.534456 -7.008353,4.48421 -3.503393,1.949713 -7.086435,4.141943 -7.962284,4.871535 -0.875848,0.729633 -4.578342,2.835995 -8.227711,4.680782 -3.649408,1.844787 -6.634748,3.68183 -6.634106,4.082277 6.82e-4,0.400448 4.419768,3.264249 9.820192,6.363985 5.400463,3.099696 11.013348,6.374578 12.473096,7.277471 2.5682,1.588468 3.166143,1.344027 18.478524,-7.554133 18.431534,-10.710726 14.783214,-10.864926 35.134334,1.484746 7.59072,4.606309 13.98857,8.414412 14.21741,8.462442 0.22871,0.04815 3.33414,-1.740021 6.90065,-3.973539 z"
     id="path1783" />
</svg>
