<?xml version="1.0" encoding="UTF-8" standalone="no"?>
<!-- Created with Inkscape (http://www.inkscape.org/) -->

<svg
   width="800"
   height="800"
   viewBox="0 0 211.66666 211.66667"
   version="1.1"
   fill="currentColor"
   id="svg19685"
   xmlns="http://www.w3.org/2000/svg"
   xmlns:svg="http://www.w3.org/2000/svg">
  <defs
     id="defs19682" />
  <path
     d="m 109.71232,165.92467 c -5.83903,-3.16093 -11.810754,-6.34011 -13.270501,-7.06489 -2.377888,-1.18055 -11.019288,-5.98974 -33.231925,-18.49429 -3.971933,-2.23601 -7.647142,-4.55932 -8.167162,-5.16292 -0.51998,-0.6036 -1.039438,-18.04105 -1.154356,-38.749886 L 53.679325,58.800269 61.703,53.492053 c 15.541936,-10.28207 22.54411,-14.331366 24.649348,-14.254567 1.169844,0.04253 3.560211,0.986674 5.311948,2.097775 1.751696,1.111103 6.767923,3.937187 11.147204,6.280246 6.7973,3.636769 15.17098,8.470226 19.83483,11.449106 0.85089,0.543453 1.38359,6.202402 1.65131,17.541566 0.30214,12.80196 0.75591,17.088112 1.9288,18.222406 0.84347,0.815741 6.90816,4.441476 13.47707,8.057215 6.5689,3.61571 7.72406,5.08168 11.63352,7.54845 0.90975,0.57407 1.84988,1.09978 2.75097,1.68741 0.79391,0.51774 2.08176,0.88861 2.33788,1.61849 1.13261,3.22729 1.22702,36.97855 0.10754,38.39248 -2.07154,2.61603 -31.71264,19.73576 -33.99743,19.63573 -1.21402,-0.053 -6.98468,-2.6828 -12.82371,-5.84369 z m 11.14724,-16.19292 v -14.70172 l -4.40211,-1.98507 c -2.42118,-1.0918 -4.92927,-2.47812 -5.5736,-3.08075 -0.64433,-0.6026 -5.2323,-3.17505 -10.19548,-5.71653 C 87.509673,117.4993 87.956906,118.39621 88.064562,98.931446 88.114718,89.877321 87.750784,82.094716 87.255923,81.63673 86.761101,81.178743 81.578837,78.284326 75.739848,75.204652 69.900818,72.125019 63.759085,68.658299 62.091611,67.500854 l -3.031805,-2.104476 0.71587,32.797731 c 0.393626,18.038721 1.075751,32.928591 1.515601,33.088521 0.785207,0.28569 11.950027,6.71308 23.472482,13.51302 3.211484,1.89518 9.183208,5.2069 13.2705,7.35925 4.087331,2.15238 10.775691,5.77767 14.862981,8.05621 4.08733,2.2785 7.55092,4.16068 7.6969,4.18259 0.14605,0.0201 0.26563,-6.576 0.26563,-14.66195 z m 18.57872,5.7203 c 1.7517,-1.27863 5.17171,-3.4274 7.60008,-4.77508 5.33967,-2.96331 5.55133,-3.82379 4.85007,-19.7153 -0.48512,-10.99252 -1.193,-13.87165 -2.77946,-11.30469 -0.29693,0.48074 -5.58043,3.93995 -11.7407,7.68711 l -11.20053,6.81306 v 14.70822 14.70826 l 5.04279,-2.89839 c 2.77356,-1.59413 6.47601,-3.94457 8.22775,-5.22319 z m -10.08562,-30.41371 c 12.38206,-8.12214 16.32879,-10.50239 17.43367,-10.51411 0.6298,-0.008 -1.72136,-1.5981 -5.22479,-3.5365 -14.75653,-8.16464 -18.76065,-10.25267 -19.66085,-10.25267 -0.97006,0 -19.01712,10.33649 -22.720661,13.01331 -1.881823,1.36012 -1.144405,1.94574 9.554761,7.5882 6.37667,3.36292 12.05375,6.55871 12.61578,7.10184 1.21194,1.17121 0.7048,1.38672 8.00209,-3.40007 z m -31.01,-17.79043 c 5.29622,-3.64607 15.59354,-10.216944 17.7395,-11.31986 1.93696,-0.995501 2.1493,-2.325765 2.41974,-15.157459 l 0.29652,-14.066219 -7.1971,4.654219 c -3.95837,2.559855 -9.70908,6.20826 -12.779287,8.107577 l -5.582189,3.453358 0.440693,11.827284 c 0.551999,14.81504 0.524072,14.48136 1.211935,14.48136 0.315383,0 1.86822,-0.8911 3.450308,-1.98026 z M 98.034099,72.528556 c 2.919531,-1.892215 8.091411,-5.104983 11.493081,-7.139441 l 6.18487,-3.699003 -2.99995,-1.571455 C 107.13674,57.198159 97.002686,51.689077 91.664296,48.676612 l -5.308217,-2.995411 -10.616392,6.389986 c -11.389761,6.855436 -14.711068,9.38315 -12.329047,9.38315 1.811804,0 26.019415,13.669865 26.48643,14.956714 0.396435,1.092724 0.639954,0.976602 8.137029,-3.882495 z"
     id="path6013" />
</svg>
