<?xml version="1.0" encoding="UTF-8" standalone="no"?>
<!-- Created with Inkscape (http://www.inkscape.org/) -->

<svg
   width="800"
   height="800"
   viewBox="0 0 211.66666 211.66667"
   version="1.1"
   fill="currentColor"
   id="svg5"
   xmlns="http://www.w3.org/2000/svg"
   xmlns:svg="http://www.w3.org/2000/svg">
  <defs
     id="defs2" />
  <g
     id="layer1" />
  <path d="m 114.30799,168.76528 c -2.999,-1.64204 -9.4284,-5.34904 -14.28748,-8.23784 -4.859122,-2.8888 -11.216002,-6.63376 -14.126402,-8.32216 -2.910439,-1.68836 -6.244159,-3.65248 -7.408359,-4.36468 -1.16416,-0.7122 -2.83104,-1.64192 -3.70416,-2.06604 -0.87312,-0.42412 -5.10156,-2.89692 -9.396519,-5.49508 l -7.80904,-4.72392 0.55676,-39.628716 c 0.306,-21.795799 0.98564,-40.057638 1.50988,-40.581878 1.2244,-1.2244 20.441359,-12.591319 21.339599,-12.622479 0.3732,-0.012 1.86912,-0.95484 3.324319,-2.09312 1.45524,-1.13828 3.4838,-2.080199 4.508,-2.093119 2.99332,-0.036 32.448082,16.662518 33.738522,19.129198 1.32108,2.52512 29.45051,89.133274 30.04355,92.501434 0.3076,1.74624 0.1888,3.66456 -0.2636,4.26296 -1.54992,2.05032 -29.78907,17.50884 -31.74351,17.37688 -0.45592,-0.032 -3.28268,-1.39944 -6.28172,-3.04144 z m 23.17479,-12.72396 c 4.50836,-2.46 8.48816,-4.94376 8.844,-5.51952 0.3556,-0.57572 -0.0792,-3.03424 -0.9668,-5.46336 -0.88752,-2.42912 -4.056,-12.27472 -7.04104,-21.87908 -2.98503,-9.60436 -6.55623,-20.55812 -7.93599,-24.341677 -1.37976,-3.783519 -4.30352,-12.594159 -6.4972,-19.579158 -2.19368,-6.985 -4.34788,-13.123879 -4.78708,-13.641959 -0.78916,-0.93096 -21.505602,10.249319 -22.763842,12.285199 -0.65124,1.05372 0.264,4.72664 3.898362,15.644279 1.06572,3.20144 5.35248,16.536436 9.52612,29.633316 8.6182,27.04396 10.95788,34.19696 12.57208,38.436 l 1.13544,2.9818 2.90948,-2.04156 c 1.6002,-1.12284 6.59812,-4.05428 11.10647,-6.51428 z m -20.69715,6.56096 c -0.25,-0.43656 -3.4234,-10.08064 -7.0524,-21.43124 -3.62904,-11.35064 -8.37336,-26.1144 -10.543003,-32.80836 -2.169639,-6.69396 -5.243079,-16.291716 -6.829919,-21.328316 -2.574,-8.169959 -3.24948,-9.308399 -6.2632,-10.556319 -1.85788,-0.76932 -4.192559,-2.09592 -5.188079,-2.94796 -0.99556,-0.85208 -4.18944,-2.86368 -7.09752,-4.47024 -2.90804,-1.606599 -6.388439,-3.642519 -7.734199,-4.524279 l -2.44684,-1.60324 -0.2196,34.302958 -0.2196,34.302916 2.88496,2.01928 c 1.58668,1.1106 5.028039,3.20416 7.647399,4.65232 2.6194,1.44816 9.21204,5.2072 14.650359,8.35336 5.43832,3.1462 11.867682,6.8018 14.287522,8.12356 2.4198,1.32176 6.54276,3.78464 9.16212,5.47308 5.31352,3.42504 5.6074,3.56968 4.96236,2.44248 z M 98.829507,68.939765 c 3.000603,-1.891759 7.920563,-4.779519 10.933203,-6.417199 l 5.47752,-2.97768 -8.32308,-4.83076 C 102.33947,52.057167 96.629268,48.746087 94.227788,47.356087 l -4.36632,-2.52724 -6.746159,3.88408 c -3.71044,2.13624 -8.5282,4.882319 -10.70624,6.102359 -2.178,1.22004 -3.963919,2.56444 -3.968719,2.9876 -0.016,1.23812 21.554958,14.364159 23.839438,14.507719 0.60172,0.036 3.54908,-1.47904 6.549719,-3.37084 z"
     id="path3250" />
</svg>
