<?xml version="1.0" encoding="UTF-8" standalone="no"?>
<!-- Created with Inkscape (http://www.inkscape.org/) -->

<svg
   width="800"
   height="800"
   viewBox="0 0 211.66666 211.66667"
   version="1.1"
   fill="currentColor"
   id="svg19685"
   xmlns="http://www.w3.org/2000/svg"
   xmlns:svg="http://www.w3.org/2000/svg">
  <defs
     id="defs19682" />
  <path
     d="m 93.730416,165.10744 c -7.090207,-1.59441 -16.996788,-5.6246 -20.070604,-8.16512 -0.907066,-0.74969 -3.197561,-3.62987 -5.089976,-6.40038 l -3.440799,-5.03729 -0.0321,-38.48998 c -0.0321,-36.478441 0.606931,-46.704617 3.221556,-51.590157 2.277414,-4.255336 10.637859,-10.786723 13.807453,-10.786723 2.036143,0 8.959671,3.37347 19.609764,9.554766 9.05433,5.25513 16.72013,9.554765 17.03511,9.554765 0.31498,0 5.40018,2.866449 11.30032,6.369843 5.90018,3.503434 11.13381,6.369843 11.63028,6.369843 0.49646,0 1.64636,1.061788 2.55536,2.359511 1.4187,2.025509 1.65262,7.574957 1.65262,39.202802 v 36.84326 l -5.7481,3.28876 c -3.16149,1.8088 -8.53603,4.27014 -11.94345,5.46968 -8.28019,2.91488 -24.88263,3.61607 -34.48615,1.45642 z m 29.167984,-7.60297 c 4.07646,-0.93535 9.41778,-3.11358 12.20883,-4.97895 l 4.96186,-3.31613 0.28168,-30.61609 c 0.15488,-16.8389 -0.0839,-30.431523 -0.53086,-30.20586 -8.64392,4.363754 -13.9639,6.202883 -20.91563,7.230484 C 101.64981,98.168469 83.194434,93.426818 73.185575,83.871652 L 70.000613,80.8311 70.13784,110.93163 c 0.133617,29.38057 0.19581,30.20525 2.597171,34.47768 3.45404,6.14567 10.55135,10.36854 21.299272,12.67304 9.879857,2.1184 17.804147,1.95975 28.864037,-0.57788 z m -1.9388,-69.401878 c 6.17877,-1.618361 15.39376,-5.367802 15.39376,-6.263512 0,-0.424121 -1.78537,-1.682441 -3.96748,-2.796191 C 130.20376,77.9291 124.59035,74.804205 119.91162,72.098657 85.160198,52.003095 82.872271,50.862903 80.174667,52.296168 c -1.413563,0.75106 -3.92266,3.228778 -5.575729,5.505992 -10.558573,14.545111 7.010318,31.193454 33.090122,31.356321 4.96318,0.0321 10.9349,-0.444143 13.27054,-1.055889 z"
     id="path15788" />
</svg>
