<?xml version="1.0" encoding="UTF-8" standalone="no"?>
<!-- Created with Inkscape (http://www.inkscape.org/) -->

<svg
   width="800"
   height="800"
   viewBox="0 0 211.66666 211.66667"
   version="1.1"
   fill="currentColor"
   id="svg19685"
   xmlns="http://www.w3.org/2000/svg"
   xmlns:svg="http://www.w3.org/2000/svg">
  <defs
     id="defs19682" />
  <path
     d="M 100.72902,180.12204 C 98.402093,178.89711 94.348385,176.5756 91.7208,174.96321 89.093254,173.35083 77.149808,166.40287 65.179799,159.52331 53.20979,152.64372 42.28271,146.24038 40.897353,145.29363 L 38.378507,143.57226 38.5691,106.6232 c 0.104727,-20.321947 0.450805,-37.627217 0.768876,-38.456079 0.318191,-0.828882 3.993361,-3.449462 8.167283,-5.823513 4.173963,-2.374052 11.649772,-6.723297 16.612953,-9.664985 4.963141,-2.941688 12.129225,-7.045255 15.924608,-9.119039 3.795344,-2.073782 7.61725,-4.381804 8.493098,-5.128931 0.875849,-0.747132 4.146999,-2.70993 7.269205,-4.36178 3.122206,-1.65185 6.921647,-3.673066 8.443147,-4.491592 2.44345,-1.314503 3.14399,-1.265009 6.00129,0.423981 9.31863,5.508387 20.67408,12.042695 25.88403,14.894556 l 5.87138,3.2139 0.0718,19.595677 0.0718,19.595692 5.83903,3.365685 c 19.2718,11.108608 23.40712,13.748548 23.82655,15.210428 0.41116,1.43322 1.05276,36.00773 0.72012,38.80781 -0.071,0.5971 -1.92046,2.02234 -4.11008,3.16723 -2.18966,1.14484 -8.75853,4.88766 -14.59756,8.31735 -5.83903,3.42964 -13.96057,8.17334 -18.0479,10.54148 -4.08733,2.36813 -9.65885,5.6841 -12.38125,7.36883 -6.28646,3.8904 -15.33626,8.26936 -17.08972,8.26936 -0.74139,0 -3.25185,-1.00224 -5.57882,-2.22722 z m 2.66984,-20.49713 v -14.23125 l -8.758525,-5.03874 C 80.180088,132.03593 75.331704,128.98374 73.98214,127.34993 73.033866,126.20191 72.86835,121.28869 73.348085,108.52745 L 73.997267,91.258576 69.85396,89.293775 C 67.575101,88.213129 61.10001,84.582739 55.464855,81.226283 49.8297,77.869787 44.990184,75.123592 44.710433,75.123592 c -0.279671,0 -0.587551,14.508116 -0.683971,32.240238 l -0.175346,32.24031 7.744806,4.72348 c 4.25967,2.59797 16.102603,9.46861 26.317665,15.26816 23.147633,13.14198 24.892223,14.1242 25.219843,14.19943 0.14606,0.0321 0.26563,-6.34312 0.26563,-14.1703 z m 34.18413,-1.32705 c 14.7731,-8.55706 27.42403,-16.08142 28.11314,-16.72085 1.30233,-1.20833 2.52783,-28.23869 1.28019,-28.23584 -0.35832,8e-4 -8.71897,4.85043 -18.57872,10.77693 -9.8598,5.92646 -20.55447,12.19704 -23.76592,13.93457 -3.21148,1.73757 -8.16467,4.61839 -11.00709,6.40186 l -5.16802,3.2427 0.64682,5.38257 c 0.35591,2.96042 0.65103,8.84616 0.65608,13.07947 0.004,4.23326 0.2239,7.69689 0.48628,7.69689 0.26242,0 12.56418,-7.00125 27.33724,-15.5583 z m -1.99959,-34.27321 c 12.73832,-7.33485 24.37044,-13.98188 25.84917,-14.77114 1.58513,-0.84603 2.29799,-1.82552 1.73693,-2.38659 -1.42681,-1.42685 -20.17533,-12.390881 -22.39075,-13.094032 -1.16901,-0.371156 -4.34947,0.849567 -8.10269,3.109647 -3.3981,2.046215 -6.35094,3.720435 -6.56184,3.720435 -0.21106,0 -3.50564,1.91095 -7.32157,4.24654 -3.81592,2.3356 -7.35378,4.24655 -7.86189,4.24655 -0.5081,0 -3.24667,1.59593 -6.08572,3.54645 -2.83904,1.9506 -8.86441,5.57681 -13.389627,8.0583 -4.525257,2.48149 -8.227711,4.83611 -8.227711,5.23246 0,0.39644 2.746997,2.2706 6.104416,4.16502 12.243502,6.90832 15.679002,8.94531 16.657492,9.87645 0.59417,0.5654 2.0983,0.22871 3.71574,-0.832 1.49461,-0.98013 13.13973,-7.78328 25.87805,-15.11809 z M 98.30142,109.36149 c 9.85454,-5.69306 19.92964,-11.484818 22.38919,-12.870615 2.45954,-1.385757 6.9547,-4.120837 9.98923,-6.077893 l 5.51731,-3.558285 0.3218,-14.891229 c 0.17696,-8.190158 5e-5,-14.890427 -0.39322,-14.889484 -0.39322,9.47e-4 -2.06523,1.099148 -3.71574,2.440442 -1.65054,1.341303 -9.21157,5.975559 -16.8023,10.298342 -7.59072,4.322826 -16.190033,9.343065 -19.109528,11.156153 -2.919535,1.813088 -8.064603,4.703212 -11.433538,6.422488 l -6.125281,3.125978 0.217076,14.597513 c 0.119573,8.02869 0.444545,14.59764 0.72237,14.59764 0.277665,0 8.567891,-4.65795 18.42243,-10.35105 z M 83.669398,81.101454 c 4.136325,-2.551187 12.297991,-7.389861 18.136982,-10.752576 5.83903,-3.362712 12.04966,-6.952166 13.80135,-7.976557 1.7517,-1.024395 6.93713,-4.020436 11.52318,-6.657872 6.57693,-3.782411 7.90535,-4.932735 6.28883,-5.445797 -1.12715,-0.357755 -7.26808,-3.764295 -13.64643,-7.570095 -8.62479,-5.14616 -12.24093,-6.762263 -14.10931,-6.305596 -2.18517,0.534096 -18.707843,9.899773 -29.867809,16.930198 -4.515466,2.844622 -20.645033,12.063007 -24.694287,14.11331 -1.611862,0.816159 -2.651982,1.934843 -2.311361,2.486 0.340661,0.551157 3.409662,2.41063 6.820086,4.132193 3.410384,1.721563 9.227867,5.050533 12.927753,7.397645 3.699845,2.347152 6.925775,4.272069 7.168732,4.277606 0.242756,0.004 3.825958,-2.077271 7.962284,-4.628459 z"
     id="path1671" />
</svg>
