<?xml version="1.0" encoding="UTF-8" standalone="no"?>
<!-- Created with Inkscape (http://www.inkscape.org/) -->

<svg
   width="800"
   height="800"
   viewBox="0 0 211.66666 211.66667"
   version="1.1"
   fill="currentColor"
   id="svg19685"
   xmlns="http://www.w3.org/2000/svg"
   xmlns:svg="http://www.w3.org/2000/svg">
  <defs
     id="defs19682" />
  <path
     id="path2119"
     d="m 105.94694,29.613953 c -1.77095,-0.01204 -10.824275,4.59022 -17.664223,8.980376 -2.965077,1.903048 -7.660383,4.739243 -10.434024,6.303475 l -5.042789,2.842816 v 20.475987 20.475947 l -15.128368,9.063354 -15.128368,9.063352 -0.680118,18.45638 c -0.373163,10.15062 -0.366342,19.03056 0.01605,19.73363 0.732521,1.346 14.657942,10.07182 24.552566,15.38549 3.211444,1.72461 7.360128,4.29474 9.218838,5.71047 1.85871,1.41577 3.631152,2.57326 3.939633,2.57326 0.308561,0 5.214685,2.86641 10.902644,6.36984 v 0 c 5.687959,3.50339 10.840409,6.35893 11.452039,6.34288 1.65359,-0.0417 29.87169,-15.71255 38.63997,-21.45881 1.54874,-1.01496 3.54905,-2.20932 4.44565,-2.65411 0.89643,-0.44478 6.73991,-3.67513 12.98637,-7.17852 l 11.35662,-6.36984 0.016,-38.30409 0.0161,-38.30613 -2.86557,-1.505369 c -1.57538,-0.828541 -5.99443,-3.554955 -9.82019,-6.058835 -3.82584,-2.50388 -6.28265,-3.635846 -9.34326,-5.158911 -2.55962,-1.348882 -11.21731,-6.495354 -16.73827,-9.888444 -5.63604,-3.463749 -14.66633,-8.441015 -16.72414,-10.684965 -2.85156,-3.231627 -7.22964,-4.20522 -7.97897,-4.209233 z m -0.12037,6.235024 c 1.98771,1.402088 11.7494,7.018222 17.63217,10.513751 6.59916,3.921175 17.26101,10.53225 19.81553,11.733031 2.55451,1.20074 5.33125,2.86998 6.17078,3.709516 0.83954,0.839535 3.52675,2.545128 5.97172,3.792454 2.44498,1.247326 4.44561,2.459101 4.44561,2.691424 0,0.666918 -22.38509,13.334781 -23.5634,13.334781 -0.58169,0 -2.32553,-0.899362 -3.87544,-1.998867 -1.54986,-1.099465 -5.68434,-3.535012 -9.18774,-5.411859 -3.50343,-1.876887 -8.83998,-5.036169 -11.85842,-7.022998 -3.01856,-1.98683 -5.84276,-3.614139 -6.27651,-3.614139 -0.77522,0 -11.083328,-6.289513 -12.121843,-7.396241 -0.29211,-0.310968 -2.800083,-1.749811 -5.573603,-3.19736 -4.566947,-2.383465 -6.417953,-4.26938 -4.190614,-4.26938 0.469262,0 5.748267,-2.894256 11.731987,-6.432037 z M 78.74019,54.960592 c 0.258004,0.02006 0.57756,0.174544 0.968337,0.379583 1.167798,0.612347 7.90318,4.627977 14.968711,8.922355 7.065532,4.294377 13.188242,7.806759 13.606422,7.806759 0.41819,0 2.32645,1.194361 4.24029,2.654108 1.91393,1.459748 3.77689,2.654108 4.13882,2.654108 0.36192,0 4.13953,2.113063 8.39354,4.694465 l 7.73426,4.692337 -0.3214,14.948003 c -0.17655,8.22081 -0.65452,14.93072 -1.06163,14.91065 -0.40727,-0.0201 -2.96243,-1.33299 -5.67737,-2.91949 -2.71493,-1.58654 -11.79193,-6.90162 -20.17115,-11.81284 C 97.179793,96.979409 88.891694,92.184472 87.139957,91.234834 85.38826,90.285155 82.664295,88.650343 81.087342,87.602037 L 78.219649,85.696461 77.90226,69.96052 C 77.649071,57.411628 77.622589,54.882228 78.73999,54.960712 Z m 86.10692,18.170244 c 0.25841,0 0.2231,10.629674 -0.0766,23.621506 -0.29933,12.991828 -0.57126,27.795428 -0.60332,32.896318 l -0.0582,9.27485 -3.98116,2.52764 c -2.18962,1.38997 -7.08648,4.27299 -10.88182,6.40716 -3.79538,2.13421 -7.61729,4.34642 -8.49314,4.91627 -0.87585,0.56994 -9.13786,5.33695 -18.35895,10.5936 -9.22108,5.25662 -16.99695,9.55686 -17.28063,9.55686 -0.28369,0 -0.3844,-6.4834 -0.22189,-14.40885 l 0.29652,-14.41097 8.49314,-4.57004 c 9.80575,-5.27792 20.63616,-11.67738 22.55984,-13.32856 0.96749,-0.83059 1.32705,-6.1679 1.32705,-19.70876 0,-16.392665 0.20865,-18.650017 1.7791,-19.252615 0.97841,-0.37557 7.00908,-3.704781 13.40324,-7.398287 6.39404,-3.693546 11.83844,-6.716122 12.09684,-6.716122 z m -86.666824,20.092352 7.134987,3.887871 c 6.931874,3.778171 14.283295,8.028131 25.180847,14.556061 2.91949,1.74889 8.41349,4.83354 12.20887,6.85504 3.79534,2.02158 7.04386,3.80742 7.21997,3.96872 0.34508,0.31579 -13.49267,8.85431 -20.55684,12.68372 -2.37191,1.28576 -5.08516,2.63388 -6.02982,2.99621 -1.07575,0.4128 -6.00864,-1.94418 -13.204135,-6.30761 -6.317922,-3.83122 -12.594876,-7.38749 -13.948573,-7.90218 -1.353697,-0.51472 -3.981162,-2.05821 -5.839029,-3.43169 -1.857748,-1.37344 -7.098875,-4.52345 -11.646923,-6.99812 l -8.26912,-4.49745 6.145826,-3.61622 c 3.38025,-1.98796 6.862538,-4.06828 7.738386,-4.62393 0.875849,-0.55569 4.352519,-2.486144 7.727994,-4.290083 z m -29.90829,21.311632 c 0.872558,0 22.430636,12.54704 30.005754,17.46316 3.301164,2.14231 7.600718,4.73804 9.554765,5.76849 1.954047,1.03049 5.345572,2.96155 7.535234,4.29012 l 3.981122,2.41356 v 14.22849 c 0,7.82501 -0.358317,14.18138 -0.796201,14.1248 -0.437964,-0.0566 -3.059972,-1.60937 -5.826631,-3.45035 -6.564209,-4.36809 -15.922562,-10.10111 -21.981356,-13.46543 -2.660689,-1.47736 -6.748423,-3.9032 -9.084059,-5.39111 -2.335596,-1.48792 -6.462492,-3.80116 -9.17117,-5.14025 -4.19551,-2.07415 -5.02052,-3.00549 -5.563211,-6.28691 -1.236491,-7.47613 -0.300134,-24.55457 1.345753,-24.55457 z" />
</svg>
