<?xml version="1.0" encoding="UTF-8" standalone="no"?>
<!-- Created with Inkscape (http://www.inkscape.org/) -->

<svg
   width="800"
   height="800"
   viewBox="0 0 211.66666 211.66667"
   version="1.1"
   fill="currentColor"
   id="svg19685"
   xmlns="http://www.w3.org/2000/svg"
   xmlns:svg="http://www.w3.org/2000/svg">
  <defs
     id="defs19682" />
  <path
     d="m 73.415952,169.91415 c -0.408593,-0.36554 -7.431229,-4.11229 -15.605895,-8.32594 -8.174626,-4.21365 -14.975372,-7.7692 -15.1128,-7.90125 -0.137227,-0.13201 -0.564518,-17.23241 -0.949115,-38.00078 L 41.048884,77.925504 43.59044,77.152577 c 1.397874,-0.425085 3.497054,-1.6176 4.664852,-2.649976 1.167838,-1.032376 3.556519,-2.671602 5.308216,-3.642667 1.751697,-0.971065 7.592251,-4.490549 12.978952,-7.821044 22.317965,-13.798867 37.50187,-22.664927 38.24767,-22.333214 1.78187,0.792589 25.12282,13.445326 39.22471,21.26308 8.29111,4.596439 17.24874,9.31875 19.90573,10.494091 l 4.83093,2.136937 0.0482,6.585596 c 0.0281,3.622043 0.22149,12.796142 0.43335,20.38691 0.21186,7.59073 0.49029,21.35721 0.61881,30.59218 0.2564,18.41091 0.616,17.25046 -6.64318,21.42819 -1.0146,0.5839 -6.99029,4.14451 -13.27936,7.91245 l -11.43462,6.85078 -14.86299,0.7818 c -21.31809,1.12137 -49.346038,1.55472 -50.215828,0.77646 z m 57.943348,-7.9228 c 2.38972,-0.4862 2.41568,-0.66395 2.12329,-14.53103 l -0.29612,-14.03881 -2.65411,0.16772 c -1.45975,0.0923 -13.76151,0.28288 -27.33724,0.4236 l -24.683133,0.256 v 13.02545 c 0,7.164 0.294518,13.79309 0.6546,14.73129 0.584781,1.52391 3.273236,1.63931 25.213943,1.08193 13.50768,-0.34307 25.64806,-0.84535 26.97869,-1.11607 z M 73.503224,132.09445 C 73.260067,115.30724 72.875469,100.99036 72.64816,100.27914 72.421053,99.567925 68.033826,96.84095 62.89919,94.219223 57.764595,91.597455 51.94627,88.389061 49.969632,87.089492 l -3.593835,-2.362921 0.647417,17.977609 c 0.355908,9.88768 0.659534,24.03495 0.67434,31.43833 l 0.02809,13.46069 4.830608,3.26016 c 2.656837,1.79307 5.010368,3.26012 5.230013,3.26012 0.219885,0 3.659359,1.90248 7.643691,4.22777 3.984332,2.32528 7.530459,4.23623 7.880229,4.24659 0.34989,0.012 0.437202,-13.71621 0.194205,-30.50339 z m 72.126566,24.32345 c 2.49867,-1.6576 7.78128,-5.12119 11.73913,-7.69689 l 7.19614,-4.68311 -0.50931,-21.23283 c -0.28007,-11.67802 -0.53254,-25.695844 -0.5609,-31.150717 l -0.0514,-9.917897 -3.45035,2.165065 c -1.89767,1.19079 -7.34067,4.350954 -12.09556,7.022597 -7.93023,4.455801 -8.68109,5.16501 -9.07925,8.575554 -0.77349,6.625558 0.44647,59.932018 1.3716,59.932018 0.49337,0 2.94136,-1.35622 5.44002,-3.01379 z m -33.25491,-28.88875 12.31853,-0.0534 -9.02391,-4.67075 c -4.96318,-2.56888 -9.6434,-4.69474 -10.40048,-4.72403 -1.53791,-0.0598 -18.263814,9.35149 -18.263814,10.27641 0,0.32381 2.936507,0.28208 6.525568,-0.0927 3.589061,-0.37517 12.068916,-0.70608 18.844106,-0.73537 z m -20.857699,-9.22991 10.350969,-6.77037 V 98.28549 85.042154 l -2.388685,1.235409 c -1.313772,0.679477 -3.105313,1.842098 -3.981162,2.583648 -0.875848,0.74151 -4.45889,2.878487 -7.962284,4.748754 -10.345669,5.523005 -9.934749,4.679658 -9.474916,19.445415 0.22149,7.11404 0.413648,13.08228 0.42689,13.26268 0.0321,0.44274 1.051275,-0.18418 13.029188,-8.01882 z m 42.200179,-6.51141 c 0,-9.67746 -0.3876,-13.973568 -1.32705,-14.70601 -1.5723,-1.225899 -23.94415,-13.02662 -24.69589,-13.02662 -0.75592,0 -0.48331,17.77642 0.35671,23.27278 0.62426,4.08388 1.26955,4.99404 4.9641,7.00149 2.3356,1.26907 7.59073,4.26753 11.67802,6.66324 4.08733,2.39566 7.78983,4.38068 8.22775,4.41114 0.43793,0.0321 0.7962,-6.09675 0.7962,-13.61602 z M 88.597646,85.593392 c 7.006828,-4.386947 13.865034,-8.264225 15.240394,-8.616162 2.76205,-0.706801 5.70056,0.507341 19.26293,7.958954 12.64399,6.947001 12.0448,6.820808 16.64666,3.506564 2.23043,-1.606364 7.27358,-4.841242 11.20699,-7.188594 l 7.15168,-4.267895 -9.80579,-5.374343 C 136.30398,65.036834 130.02935,61.624363 115.83297,53.95447 l -10.98374,-5.934206 -3.88185,1.980369 c -4.704134,2.399876 -27.306585,15.859084 -38.65582,23.018587 -4.531035,2.858345 -9.308398,5.787068 -10.616392,6.508355 -1.308035,0.721287 -1.867458,1.318427 -1.243193,1.327054 0.624265,0.008 6.118219,2.841251 12.208873,6.29477 6.090613,3.453518 11.551586,6.310859 12.135484,6.34966 0.583899,0.04013 6.794487,-3.518761 13.801314,-7.905667 z"
     id="path11048" />
</svg>
