<?xml version="1.0" encoding="UTF-8" standalone="no"?>
<!-- Created with Inkscape (http://www.inkscape.org/) -->

<svg
   width="800"
   height="800"
   viewBox="0 0 211.66666 211.66667"
   version="1.1"
   fill="currentColor"
   id="svg19685"
   xmlns="http://www.w3.org/2000/svg"
   xmlns:svg="http://www.w3.org/2000/svg">
  <defs
     id="defs19682" />
  <path
     d="m 99.542955,177.99328 c -2.043686,-1.19818 -9.92635,-5.5259 -17.517077,-9.61724 C 57.454413,155.1323 42.169718,146.12837 41.260044,144.36163 40.172656,142.24965 39.869873,76.733792 40.929012,72.772813 41.620767,70.186235 52.983525,60.39706 55.327668,60.36817 c 0.49755,-0.008 5.513776,-2.819223 11.147246,-6.251314 20.944446,-12.760029 33.658316,-20.605308 35.692776,-22.02473 3.01576,-2.104075 4.78695,-1.84262 11.2533,1.661175 10.8835,5.897251 10.53951,5.079664 10.53951,25.052602 0,10.942729 0.39684,17.47572 1.06167,17.47572 0.5839,0 1.06163,-0.396836 1.06163,-0.882268 0,-0.485232 1.31377,-1.54726 2.91949,-2.360072 1.60576,-0.812812 5.54708,-3.191783 8.75856,-5.286629 9.64646,-6.292362 15.65947,-9.518933 17.73931,-9.518933 2.5044,0 13.7012,6.958396 14.48544,9.002163 1.08233,2.820466 0.94663,75.031576 -0.14284,76.121256 -0.99807,0.99807 -11.95769,7.73963 -25.18105,15.48953 -3.50343,2.05328 -8.99743,5.30027 -12.20887,7.21556 -16.20027,9.66166 -24.92404,14.25296 -26.95212,14.18483 -1.23365,-0.0413 -3.91508,-1.05561 -5.958725,-2.25378 z m 2.428965,-34.23726 c -1.03514,-0.617 -5.707618,-3.19668 -10.383252,-5.73254 -4.675605,-2.53586 -10.65098,-5.93894 -13.278525,-7.5624 -2.627546,-1.62345 -8.121541,-4.74377 -12.208873,-6.93408 -4.087293,-2.1903 -8.028651,-4.45917 -8.758525,-5.04186 -0.931622,-0.74384 -1.327054,-4.93084 -1.327054,-14.05186 0,-7.145779 -0.294518,-15.141487 -0.654599,-17.76823 -0.587069,-4.282982 -1.077156,-4.962259 -4.749034,-6.582305 -2.251896,-0.993535 -4.388231,-1.777297 -4.74739,-1.741706 -1.033419,0.102319 -0.482101,59.624101 0.570498,61.590831 0.52014,0.9719 7.546509,5.46859 15.614121,9.99261 8.067612,4.52401 15.385007,8.66094 16.260856,9.19315 0.875848,0.53226 5.804883,3.25177 10.953362,6.04343 5.148478,2.79166 10.403597,5.65787 11.678045,6.36932 l 2.31714,1.29363 0.29773,-13.97305 c 0.26482,-12.43706 0.0907,-14.09635 -1.58442,-15.09494 z m 28.89999,15.33357 c 23.60694,-13.94593 31.40756,-18.75431 32.98616,-20.33286 1.28801,-1.28806 1.49293,-6.67375 1.25732,-33.04495 l -0.28168,-31.506063 -6.36984,4.023413 c -3.5034,2.212894 -9.35575,5.613006 -13.00524,7.555778 l -6.63539,3.532364 0.57138,17.634498 c 0.31418,9.69897 0.19501,18.14926 -0.26522,18.77842 -0.46016,0.62916 -6.33065,4.40315 -13.04552,8.38664 -6.71488,3.98353 -13.28379,7.89885 -14.59756,8.70075 -2.26883,1.38483 -2.38868,2.1137 -2.38868,14.52709 0,7.18799 0.27766,13.34682 0.61716,13.68624 0.33946,0.33945 2.20603,-0.41698 4.148,-1.68092 1.94197,-1.26398 9.59602,-5.88116 17.00903,-10.2604 z M 116.4743,132.81397 c 5.34449,-3.35742 10.61394,-6.56112 11.70988,-7.11933 1.75342,-0.89303 1.38138,-1.36397 -3.0993,-3.92299 l -5.09198,-2.90814 -0.12078,-16.14092 c -0.0662,-8.877493 -0.33905,-16.3592 -0.60572,-16.625991 -0.26683,-0.266831 -5.88867,2.842415 -12.49304,6.909364 -16.149618,9.944897 -27.823825,16.926287 -34.659079,20.726687 l -5.664927,3.14965 10.44229,5.55599 c 5.743251,3.0558 14.50306,7.99298 19.466229,10.97146 4.963137,2.97852 9.333317,5.43645 9.711457,5.46205 0.37797,0.0241 5.06028,-2.70041 10.40481,-6.05783 z m 17.57852,-28.04452 c -0.27847,-17.580087 -0.0281,-16.869674 -7.32739,-20.713729 -2.82981,-1.490122 -3.01976,-1.4768 -2.38868,0.167723 0.37718,0.982621 0.68558,8.194006 0.68558,16.025246 v 14.23867 l 4.40584,3.19158 c 2.42319,1.75535 4.51246,3.19159 4.64283,3.19159 0.1304,0 0.12198,-7.24549 -0.0201,-16.10108 z m -59.734713,0.49113 c 2.767541,-1.9248 5.314154,-3.49958 5.659109,-3.49958 0.345075,0 3.096847,-1.5855 6.11533,-3.523299 5.781692,-3.711763 23.077524,-13.993031 29.375014,-17.461596 l 3.71574,-2.046576 V 62.752116 c 0,-8.787575 -0.23874,-15.857158 -0.53081,-15.71018 -1.98531,0.999594 -18.29937,10.961026 -21.763643,13.288918 -2.335584,1.569489 -4.963169,3.159201 -5.839018,3.532725 -0.875848,0.373563 -8.041932,4.642542 -15.924608,9.486713 l -14.332127,8.807557 0.123986,6.351225 c 0.06821,3.493202 0.187785,10.570409 0.265226,15.727196 l 0.14124,9.37593 3.981122,-2.426 c 2.189661,-1.33432 6.245536,-4.00087 9.013078,-5.92562 z M 148.73484,76.547973 c 6.49527,-3.941318 12.42149,-7.412973 13.16942,-7.714753 0.81667,-0.329426 -0.16652,-1.37071 -2.46158,-2.60668 -3.5804,-1.928167 -3.99962,-1.94855 -6.64663,-0.323006 -1.55384,0.954212 -7.24425,4.190213 -12.64535,7.191121 -5.40111,3.000909 -9.81931,5.781892 -9.81827,6.179972 0.001,0.59377 4.87354,3.997854 6.21496,4.342448 0.20785,0.05337 5.69217,-3.127663 12.18745,-7.069022 z M 69.447293,69.680299 c 2.830899,-1.587064 9.685613,-5.75256 15.232693,-9.256676 5.54708,-3.504116 14.25648,-8.80511 19.354284,-11.779977 5.0978,-2.974868 9.56471,-5.887782 9.92648,-6.473126 0.36193,-0.585382 -0.2259,-1.720478 -1.30639,-2.522496 -4.60635,-3.419653 -6.10618,-2.932455 -23.379701,7.594417 -9.24195,5.632265 -21.10318,12.841323 -26.358311,16.020105 -5.255131,3.178783 -10.653909,6.479907 -11.997374,7.335853 l -2.442569,1.556248 4.53914,2.400358 4.5391,2.400317 3.372787,-2.194717 c 1.855019,-1.20712 5.688962,-3.493242 8.519861,-5.080306 z"
     id="path13690" />
</svg>
