<?xml version="1.0" encoding="UTF-8" standalone="no"?>
<!-- Created with Inkscape (http://www.inkscape.org/) -->

<svg
   width="800"
   height="800"
   viewBox="0 0 211.66666 211.66667"
   version="1.1"
   fill="currentColor"
   id="svg19685"
   xmlns="http://www.w3.org/2000/svg"
   xmlns:svg="http://www.w3.org/2000/svg">
  <defs
     id="defs19682" />
  <path
     d="m 87.569387,161.72861 c -1.167838,-0.88889 -8.410641,-5.19527 -16.09518,-9.56977 -7.684498,-4.37451 -14.13399,-8.52885 -14.332127,-9.23192 -0.198218,-0.70307 -0.21828,-18.33452 -0.04454,-39.18098 l 0.315784,-37.902714 9.238941,-5.448614 c 5.08143,-2.996735 11.845421,-7.080417 15.031025,-9.07491 3.185644,-1.994453 6.302513,-3.626257 6.926377,-3.626257 0.623863,0 4.944643,2.220197 9.601751,4.93373 4.657072,2.713573 11.094962,6.3302 14.306412,8.036997 3.21148,1.706757 7.51112,4.182068 9.55476,5.500736 6.43441,4.151693 16.25484,9.838449 21.77379,12.608598 2.92507,1.468214 6.4121,3.555677 7.74894,4.638811 l 2.43061,1.969375 -0.0429,36.048898 c -0.0502,42.05244 0.24958,40.7934 -8.71371,36.60419 -3.04175,-1.42167 -9.0932,-4.83241 -13.44761,-7.57949 -7.81639,-4.93112 -7.95919,-4.97341 -11.22172,-3.32231 -1.8175,0.91979 -4.02116,2.2679 -4.89701,2.99581 -0.87585,0.72787 -5.41435,3.34338 -10.08558,5.81219 -4.67123,2.46881 -9.247368,5.15983 -10.1692,5.98003 -2.159327,1.92126 -5.199317,1.84699 -7.878704,-0.1922 z M 109.33299,145.7977 c 3.03617,-2.48221 12.00467,-6.80319 14.12054,-6.80319 1.16945,0 5.75626,2.08457 10.19288,4.63235 4.43666,2.54781 9.57262,5.40239 11.41327,6.34348 l 3.34667,1.71117 0.0694,-29.64355 0.0694,-29.643542 -3.94686,2.293104 c -2.17072,1.261208 -5.81002,3.624691 -8.08727,5.252161 -2.27713,1.627467 -4.53798,2.959057 -5.02401,2.959057 -0.48599,0 -4.11679,1.98803 -8.06842,4.41788 -3.95159,2.42981 -9.82556,5.89344 -13.05322,7.6969 -3.22765,1.80346 -8.33709,4.69888 -11.354249,6.43425 l -5.48581,3.15522 -0.01204,14.27455 c -0.008,7.85102 0.217878,14.64498 0.49775,15.09767 0.472873,0.76515 11.735759,-5.24638 15.321009,-8.17751 z m -21.125856,-2.29122 c 0.05898,-5.10911 0.302141,-11.54107 0.540724,-14.29316 l 0.433832,-5.00383 -6.114368,-3.91616 c -7.065169,-4.52518 -18.70186,-11.02475 -19.738449,-11.02475 -0.897075,0 -0.9372,26.83183 -0.04374,29.16045 0.365538,0.95232 3.35132,3.12337 6.63527,4.82462 3.28395,1.70122 8.120657,4.51355 10.748203,6.24951 7.208375,4.76252 7.416504,4.59696 7.538444,-5.99668 z m 17.165396,-33.33167 c 7.1414,-4.1728 17.28404,-10.13309 22.53917,-13.245063 5.25513,-3.112015 11.1074,-6.474731 13.00512,-7.472719 1.89767,-0.997989 3.4503,-2.191507 3.4503,-2.652263 0,-0.460755 -1.55263,-1.621892 -3.4503,-2.580278 -4.41833,-2.231431 -20.9784,-11.529115 -27.86806,-15.646662 -2.91953,-1.744796 -7.9358,-4.596961 -11.14725,-6.338145 -3.21144,-1.741184 -6.555617,-3.77821 -7.431466,-4.526742 -3.096245,-2.646123 -6.738432,-2.737768 -10.616432,-0.267232 -2.043647,1.301976 -4.772267,2.946619 -6.06357,3.654785 -7.14253,3.916882 -9.462597,5.243615 -10.685567,6.110395 -0.963602,0.682968 1.031012,2.297076 6.900657,5.584236 4.540825,2.543002 9.45036,5.360218 10.910147,6.260503 1.459747,0.900285 4.185719,2.412074 6.057751,3.359546 3.434058,1.738094 5.033641,3.993039 4.008849,5.651244 -0.306154,0.495424 -3.293621,2.427242 -6.638721,4.292974 -3.345101,1.865692 -9.08442,5.306049 -12.754012,7.645221 l -6.672065,4.253 8.118491,4.62718 c 4.46519,2.54493 9.378536,5.56818 10.918614,6.71837 1.540037,1.15014 3.167708,2.10636 3.617028,2.12486 0.449279,0.0201 6.659866,-3.38049 13.801316,-7.55329 z M 71.472241,95.019596 c 3.992438,-2.573938 8.650388,-5.256254 10.351006,-5.960649 4.847982,-2.008095 5.172072,-1.677064 -10.443895,-10.668033 l -8.758525,-5.042789 v 13.182867 c 0,7.250547 0.358317,13.179618 0.796201,13.175685 0.437924,-0.0039 4.062776,-2.113143 8.055213,-4.687081 z"
     id="path8284" />
</svg>
