<?xml version="1.0" encoding="UTF-8" standalone="no"?>
<!-- Created with Inkscape (http://www.inkscape.org/) -->

<svg
   width="800"
   height="800"
   viewBox="0 0 211.66666 211.66667"
   version="1.1"
   fill="currentColor"
   id="svg19685"
   xmlns="http://www.w3.org/2000/svg"
   xmlns:svg="http://www.w3.org/2000/svg">
  <defs
     id="defs19682" />
  <path
     d="m 88.027795,171.29555 c -0.554728,-0.51849 -3.874991,-2.47443 -7.378425,-4.34654 -3.503394,-1.87211 -10.191749,-5.47666 -14.862941,-8.01011 l -8.493138,-4.60631 -0.849647,-36.94345 C 55.976348,97.070244 55.845822,79.481331 56.15354,78.30274 c 0.51673,-1.978684 6.374619,-5.973649 28.742339,-19.601664 4.087292,-2.490277 13.164329,-8.076118 20.171161,-12.412948 9.71101,-6.010606 13.39925,-7.764068 15.51411,-7.375618 1.52592,0.280072 7.01991,2.980966 12.20888,6.001577 5.18892,3.02061 11.6998,6.694455 14.46859,8.164113 2.76882,1.469658 5.46639,3.20346 5.99463,3.852883 0.52825,0.649463 1.19882,10.312565 1.49021,21.473574 0.52531,20.121523 0.50862,20.318617 -1.97528,23.356083 -1.37781,1.68484 -2.52225,3.37246 -2.54324,3.75024 -0.0201,0.37798 -4.47446,8.02163 -9.89655,16.98627 -5.42209,8.96461 -11.67991,19.64348 -13.9062,23.73081 -5.30661,9.74247 -5.63816,10.0721 -16.75486,16.65613 -5.23591,3.10106 -10.801653,6.43946 -12.368293,7.41859 -3.14572,1.96612 -7.70741,2.45456 -9.271322,0.99277 z m 12.792775,-10.81248 c 2.33559,-1.60019 6.27695,-4.15442 8.75852,-5.67604 l 4.51198,-2.76658 0.002,-17.76916 0.002,-17.76915 5.57155,-3.62698 c 3.06434,-1.99485 6.78923,-4.44621 8.27754,-5.44753 1.48828,-1.00132 5.07132,-3.09288 7.96229,-4.64792 2.891,-1.55504 7.04783,-3.8457 9.23749,-5.090297 l 3.98112,-2.26297 V 79.722001 c 0,-18.213579 1.10184,-17.412804 -12.20883,-8.873082 -10.66779,6.844121 -14.21215,9.005294 -22.82529,13.917877 -3.79535,2.164704 -10.43748,6.105621 -14.760263,8.757522 l -7.859605,4.821701 0.690953,22.879351 c 0.379984,12.58368 0.692076,27.52238 0.69352,33.1971 0.003,11.64323 -0.08547,11.57606 7.964895,6.0606 z M 87.186855,143.83938 c -0.359921,-10.36429 -0.66455,-24.87593 -0.676587,-32.2481 L 86.490205,98.187324 77.200867,92.87 C 72.091711,89.945449 66.344568,86.761089 64.429441,85.793675 l -3.482047,-1.758919 0.671773,32.158304 c 0.509628,24.39644 1.009144,32.51284 2.069487,33.62731 1.552275,1.63148 21.724677,12.78274 23.212752,12.83198 0.537796,0.016 0.66106,-8.05478 0.287295,-18.81297 z m 37.808855,-8.22771 c 2.33379,-4.08733 6.86554,-11.87134 10.07061,-17.29781 3.20506,-5.42646 5.62027,-10.07342 5.36712,-10.32657 -0.25319,-0.25319 -1.59453,0.36474 -2.98081,1.37316 -1.38628,1.00842 -5.89597,3.76437 -10.02154,6.12432 l -7.501,4.29089 -0.19983,13.2262 c -0.10994,7.27442 0.075,12.50961 0.41116,11.63372 0.33625,-0.87585 2.52058,-4.93662 4.85437,-9.02391 z M 114.09107,77.093613 c 6.71486,-3.921617 13.16432,-7.943305 14.33211,-8.937121 1.16784,-0.993816 5.1035,-3.421539 8.74597,-5.394926 3.64247,-1.973428 6.62492,-3.826922 6.62773,-4.118871 0.003,-0.29211 -3.2163,-2.255587 -7.15349,-4.363674 -3.93718,-2.108047 -9.34993,-5.09122 -12.02831,-6.629292 l -4.86973,-2.796471 -4.68502,3.015835 c -2.57675,1.658687 -10.17899,6.264435 -16.893871,10.234964 -6.714878,3.970569 -14.601125,8.799773 -17.524994,10.731551 -2.923908,1.931777 -7.891624,4.920729 -11.03939,6.642131 l -5.723269,3.12975 5.731214,2.784996 c 3.15214,1.531731 8.788659,4.633996 12.52562,6.893916 l 6.794486,4.10896 6.476054,-4.085728 c 3.561816,-2.2472 11.97001,-7.294363 18.68489,-11.21602 z"
     id="path14138" />
</svg>
