<?xml version="1.0" encoding="UTF-8" standalone="no"?>
<!-- Created with Inkscape (http://www.inkscape.org/) -->

<svg
   width="800"
   height="800"
   viewBox="0 0 211.66666 211.66667"
   version="1.1"
   fill="currentColor"
   id="svg19685"
   xmlns="http://www.w3.org/2000/svg"
   xmlns:svg="http://www.w3.org/2000/svg">
  <defs
     id="defs19682" />
  <path
     d="m 127.22519,168.21897 c -0.28368,-0.45911 -2.82006,-1.9601 -5.63628,-3.33559 -2.81621,-1.37544 -8.94229,-4.73703 -13.61353,-7.47015 -14.97609,-8.76249 -27.856575,-15.9622 -28.556796,-15.9622 -0.374367,0 -2.701416,-1.3082 -5.17139,-2.9071 -2.469975,-1.59886 -5.802075,-3.4857 -7.404627,-4.1929 L 63.92877,133.06522 64.106524,95.588717 C 64.241344,67.10691 64.618519,57.43161 65.677217,55.276416 68.597594,49.331456 79.8541,44.309692 94.369158,42.476421 c 22.400342,-2.829254 43.856502,6.023204 50.125032,20.680745 2.02888,4.744139 2.17557,7.561034 2.45978,47.243014 0.34026,47.49716 0.55898,45.97975 -7.8568,54.48007 -3.19732,3.22942 -4.94893,4.17341 -7.744,4.17341 -1.98659,0 -3.84417,-0.37557 -4.1279,-0.83469 z m 0.60448,-40.30355 c -0.17414,-17.95517 -0.51219,-33.228954 -0.75094,-33.941734 -0.23874,-0.712781 -3.44035,-2.724327 -7.11464,-4.470126 -6.63812,-3.153985 -13.19547,-6.713072 -28.444128,-15.438333 -4.379282,-2.505806 -9.634373,-5.332492 -11.67806,-6.281488 -2.043646,-0.949037 -5.29674,-2.737849 -7.22908,-3.975184 l -3.513385,-2.249648 0.117968,24.817672 c 0.065,13.649721 0.390416,28.667791 0.723414,33.373521 l 0.605325,8.55582 13.805969,7.89961 c 19.695277,11.26938 42.640797,24.13229 43.263497,24.25287 0.29211,0.0566 0.38841,-14.5878 0.21386,-32.54298 z m 13.09833,22.96474 c 1.43503,-4.32058 1.6558,-9.85959 1.40072,-35.14709 l -0.30294,-30.018192 -2.73424,2.654108 c -1.5038,1.459747 -3.58886,3.131997 -4.63343,3.716056 -1.74981,0.978408 -1.88339,3.024863 -1.69765,26.010188 0.11074,13.72154 0.3226,27.57582 0.47006,30.78727 0.14766,3.21148 0.33304,7.2361 0.41168,8.94358 l 0.14325,3.10459 2.61944,-2.46083 c 1.44069,-1.35345 3.38603,-4.76881 4.32299,-7.58968 z m -4.52145,-68.461069 c 4.47534,-4.486376 5.57465,-7.419554 4.60242,-12.280697 -1.08301,-5.414989 -4.63359,-10.050349 -10.86822,-14.18864 -7.45221,-4.94649 -15.11536,-6.777393 -28.53521,-6.817719 -11.050183,-0.0321 -15.646582,0.813294 -24.1912,4.455119 l -5.08167,2.165907 8.266592,4.715891 c 8.742835,4.987537 14.038091,7.936163 29.499418,16.426411 5.25513,2.88575 11.70458,6.580741 14.33213,8.2111 5.4017,3.351681 6.11003,3.192746 11.97574,-2.687372 z"
     id="path16124" />
</svg>
