<?xml version="1.0" encoding="UTF-8" standalone="no"?>
<!-- Created with Inkscape (http://www.inkscape.org/) -->

<svg
   width="800"
   height="800"
   viewBox="0 0 211.66666 211.66667"
   version="1.1"
   fill="currentColor"
   id="svg19685"
   xmlns="http://www.w3.org/2000/svg"
   xmlns:svg="http://www.w3.org/2000/svg">
  <defs
     id="defs19682" />
  <path
     d="m 117.71917,159.24984 c -3.77232,-1.96974 -9.38793,-5.07501 -12.47912,-6.90066 -3.09119,-1.82561 -5.783456,-3.31934 -5.982837,-3.31934 -0.199421,0 -5.791803,-3.02635 -12.427554,-6.72527 -6.635792,-3.69888 -14.692611,-8.16913 -17.904055,-9.93387 -14.694135,-8.07455 -13.906803,-7.24657 -13.813713,-14.52685 0.04574,-3.57622 0.08346,-11.04075 0.08386,-16.58783 l 6.02e-4,-10.085583 3.906409,-3.493322 c 2.148493,-1.921346 6.312505,-4.825111 9.253346,-6.452782 2.940841,-1.627671 9.407747,-5.511088 14.370928,-8.629844 C 104.98241,58.609724 123.5155,48.174015 126.0961,48.174015 c 0.99117,0 5.61016,2.17012 10.2645,4.822503 4.6543,2.652382 9.42014,5.070315 10.59071,5.373138 1.17053,0.302944 3.37889,1.638544 4.90745,2.968166 l 2.77918,2.417532 0.64565,40.459796 0.64569,40.45984 -2.89402,2.04004 c -3.6716,2.58814 -27.0548,16.11616 -27.85686,16.11616 -0.33023,0 -3.68676,-1.61162 -7.45911,-3.58135 z m 4.49849,-17.38464 c -0.17655,-6.86161 -0.65416,-12.80288 -1.06163,-13.20285 -0.40747,-0.40004 -5.51827,-3.20382 -11.35726,-6.23085 -18.91107,-9.80386 -29.209391,-15.45771 -36.136009,-19.83896 -3.138377,-1.98506 -12.019162,-6.6447 -12.664171,-6.6447 -0.31137,0 -0.566124,5.22042 -0.566124,11.60098 0,11.26826 0.08025,11.6641 2.797274,13.80131 1.538513,1.21021 3.142028,2.20034 3.563381,2.20034 0.421393,0 5.014902,2.45444 10.207839,5.45435 5.192937,2.99986 11.113782,6.42104 13.157428,7.60256 2.043687,1.18152 7.11027,3.97547 11.259152,6.20874 4.14885,2.23328 10.33135,5.73932 13.73884,7.7912 3.40754,2.05191 6.46249,3.73138 6.78879,3.73214 0.32622,8e-4 0.44892,-5.61264 0.27245,-12.47426 z m 17.57242,5.0962 10.88182,-6.63078 0.0807,-4.93975 c 0.1292,-7.93756 -0.21065,-19.7557 -0.57888,-20.12405 -0.18658,-0.18658 -3.8,1.8791 -8.02982,4.59034 -4.22985,2.71129 -9.29652,5.69538 -11.25931,6.63138 l -3.56868,1.70174 v 13.13656 c 0,7.22507 0.35832,12.94052 0.79624,12.70093 0.43793,-0.23955 5.69306,-3.41945 11.67802,-7.06637 z m -7.87678,-28.02467 c 3.01845,-1.95368 7.32659,-4.6492 9.57359,-5.9901 l 4.08548,-2.43795 -8.86289,-5.22171 c -4.87454,-2.8719 -12.109,-6.881514 -16.07656,-8.910234 -3.96756,-2.02868 -7.48487,-4.395132 -7.81631,-5.258822 -1.01195,-2.637096 2.05216,-5.89356 9.83777,-10.455491 4.08777,-2.395222 11.10347,-6.504784 15.59037,-9.13233 4.48693,-2.627545 8.16311,-5.105263 8.16933,-5.505992 0.016,-0.912844 -18.63032,-11.480243 -20.25498,-11.480243 -1.09333,0 -39.39633,22.644582 -41.839741,24.735456 -0.583899,0.499676 -4.845575,2.907417 -9.470423,5.350588 -7.525523,3.975505 -11.131757,7.071349 -8.2371,7.071349 0.576476,0 4.07991,1.73661 7.785373,3.859142 3.705504,2.122492 11.036902,6.099197 16.291993,8.837087 5.255131,2.73785 11.704618,6.35524 14.332168,8.0386 7.85258,5.03088 17.38624,9.92552 19.46042,9.99121 1.06889,0.0321 4.41303,-1.53691 7.43151,-3.49056 z m 18.33263,-29.891072 c 0.0578,-9.633571 -0.067,-17.515565 -0.27686,-17.515565 -0.20985,0 -4.55671,2.556886 -9.65961,5.681941 -5.1029,3.125055 -11.79466,7.027532 -14.87053,8.672135 l -5.59254,2.990195 5.06173,2.821149 c 8.94784,4.987136 12.37262,7.03002 18.33219,10.935107 3.21144,2.10435 6.07789,3.84959 6.36984,3.87832 0.29211,0.0281 0.578,-7.829752 0.63566,-17.463282 z"
     id="path6461" />
</svg>
