<?xml version="1.0" encoding="UTF-8" standalone="no"?>
<!-- Created with Inkscape (http://www.inkscape.org/) -->

<svg
   width="800"
   height="800"
   viewBox="0 0 211.66666 211.66667"
   version="1.1"
   fill="currentColor"
   id="svg19685"
   xmlns="http://www.w3.org/2000/svg"
   xmlns:svg="http://www.w3.org/2000/svg">
  <defs
     id="defs19682" />
  <path
     d="m 77.58053,163.77205 c -7.546629,-5.62954 -18.93916,-25.01634 -21.878035,-37.22958 -2.126584,-8.83794 -1.535262,-21.06684 1.331308,-27.531376 1.391534,-3.138176 3.42194,-6.501052 4.511975,-7.472879 1.619285,-1.444099 14.401063,-9.544935 31.348216,-19.867893 1.553921,-0.946548 8.242276,-5.017229 14.862946,-9.04618 6.6207,-4.028951 13.47433,-8.416219 15.23028,-9.749572 5.40014,-4.101176 14.59788,-7.852462 19.27922,-7.863697 2.43318,0 6.49604,0.877935 9.02857,1.963717 l 4.60458,1.973749 0.33946,36.541835 0.33945,36.542246 -3.52887,1.85377 c -1.94088,1.01958 -5.91755,3.35887 -8.83709,5.1978 -2.91949,1.83933 -10.32444,6.42521 -16.45542,10.19054 -6.13098,3.76533 -12.34157,7.74092 -13.80131,8.83432 -1.45975,1.09381 -5.04279,3.23689 -7.96233,4.76244 -2.91949,1.52595 -6.263671,3.59881 -7.431469,4.60635 -4.097444,3.53581 -13.326193,8.54983 -15.675151,8.51653 -1.304985,0 -3.692744,-1.01837 -5.306089,-2.22212 z m 5.519474,-41.77334 0.131209,-30.285951 h -4.913988 c -11.731587,0 -18.505368,8.161023 -18.505368,22.294651 0,11.11744 6.398091,25.25869 17.450241,38.56896 4.214449,5.07541 4.264725,5.09989 4.982,2.41753 0.398441,-1.48984 0.783681,-16.3377 0.855866,-32.99519 z m 17.196566,25.65111 c 3.71706,-2.22493 10.98916,-6.65714 16.16015,-9.84868 5.17099,-3.19194 11.38157,-6.92477 13.80131,-8.29584 9.41276,-5.33221 19.29848,-11.61218 20.04248,-12.73167 0.42897,-0.64561 0.78729,-14.87233 0.79624,-31.614889 l 0.0161,-30.440829 -7.6969,4.334704 c -4.23331,2.383826 -10.80221,6.319285 -14.59755,8.745243 -3.79539,2.426358 -11.67806,7.200029 -17.51709,10.608247 -5.83903,3.408217 -11.810756,7.003015 -13.270504,7.988485 -1.459747,0.98547 -4.371779,2.604514 -6.471118,3.598009 l -3.817011,1.806427 0.101115,32.205133 0.101115,32.20513 2.796431,-2.25703 c 1.538032,-1.24107 5.837666,-4.07711 9.554762,-6.30244 z M 94.315222,80.882219 c 4.671191,-3.034252 11.598408,-7.253797 15.393798,-9.376409 3.79534,-2.122613 9.28933,-5.31576 12.20883,-7.095705 2.91953,-1.779945 9.60785,-5.723028 14.86298,-8.762898 7.94178,-4.593108 8.91004,-5.417677 5.73559,-4.883613 -4.31015,0.725058 -13.88582,5.111924 -17.91983,8.209173 -4.41346,3.388957 -17.84354,11.734957 -30.546795,18.982735 -6.568904,3.748076 -11.943446,7.182374 -11.943446,7.631774 0,2.06082 4.40741,0.361125 12.208873,-4.705057 z"
     id="path15676" />
</svg>
