<?xml version="1.0" encoding="UTF-8" standalone="no"?>
<!-- Created with Inkscape (http://www.inkscape.org/) -->

<svg
   width="800"
   height="800"
   viewBox="0 0 211.66666 211.66667"
   version="1.1"
   fill="currentColor"
   id="svg19685"
   xmlns="http://www.w3.org/2000/svg"
   xmlns:svg="http://www.w3.org/2000/svg">
  <defs
     id="defs19682" />
  <path
     d="m 69.879191,168.90316 c -3.503394,-1.92447 -10.669482,-5.80199 -15.924613,-8.6168 -5.255091,-2.81481 -10.134491,-5.64848 -10.843018,-6.29706 -0.952126,-0.87155 -1.367701,-10.98891 -1.592481,-38.77029 l -0.304147,-37.591028 6.369843,-4.061774 c 3.503434,-2.233999 9.952885,-6.247863 14.332168,-8.919706 4.379286,-2.671884 12.261962,-7.500807 17.517053,-10.730949 5.255131,-3.230143 13.282257,-8.002329 17.838089,-10.604877 l 8.283285,-4.731902 9.76462,5.221186 c 5.37049,2.871666 14.06421,7.608703 19.31934,10.526753 5.25513,2.918051 12.42117,6.862699 15.92461,8.765828 5.24899,2.851402 15.71503,9.030492 17.41388,10.281067 0.23514,0.17334 0.55622,5.934849 0.71331,12.803767 0.15688,6.868918 0.55918,23.954705 0.8935,37.968355 0.33424,14.01366 0.25239,26.02255 -0.18257,26.68646 -0.43471,0.66387 -2.29868,2.09709 -4.14222,3.18492 -1.84355,1.08779 -8.75528,5.20257 -15.35937,9.14388 -6.60413,3.94136 -12.64583,7.16609 -13.42602,7.16609 -0.78023,0 -7.2081,-3.10532 -14.28418,-6.90066 -7.07608,-3.79538 -13.38803,-6.90066 -14.02654,-6.90066 -0.63846,0 -4.49745,1.97732 -8.57551,4.39405 -15.615365,9.25395 -19.884303,11.52976 -21.583356,11.50645 -0.965729,-0.012 -4.62232,-1.59866 -8.125754,-3.5231 z m 4.626291,-36.26433 c -0.503729,-17.51705 -1.119206,-32.396 -1.36774,-33.06428 -0.348285,-0.936999 -21.534609,-13.028908 -26.473715,-15.10979 -0.796722,-0.335847 -0.130808,63.4773 0.669766,64.16685 0.13803,0.11877 4.751522,2.70495 10.252178,5.74674 5.500695,3.04184 11.711287,6.62424 13.801358,7.96092 2.090031,1.33669 3.852722,2.36702 3.917042,2.28958 0.0642,-0.0774 -0.29532,-14.47293 -0.798889,-31.99002 z m 19.631797,23.72768 c 12.117391,-7.3641 11.431491,-6.36178 11.081761,-16.19421 l -0.30575,-8.5951 H 92.704456 80.495583 l -0.292913,16.86109 -0.292912,16.86105 2.947181,-1.93419 c 1.62097,-1.06379 6.697263,-4.21316 11.280661,-6.99864 z m 39.971201,-9.92632 v -15.3938 h -11.56447 c -8.32686,0 -11.67838,0.37156 -11.97129,1.32705 -0.2239,0.72988 -0.23955,4.95793 -0.0361,9.39571 l 0.37155,8.0687 10.8035,5.8806 c 5.94191,3.23435 11.16181,5.93348 11.59973,5.99804 0.43793,0.0646 0.79625,-6.80973 0.79625,-15.2763 z m 12.69566,10.74563 c 3.18729,-1.67393 8.33055,-4.9166 11.42949,-7.20593 l 5.63439,-4.16236 -0.0987,-32.40925 -0.0987,-32.409197 -2.30679,1.622856 c -1.26871,0.89258 -7.024,4.354926 -12.78944,7.694129 l -10.48269,6.071273 0.65066,9.632649 c 0.35792,5.2979 0.72422,19.8016 0.81414,32.2304 0.0899,12.4288 0.45353,22.45857 0.80808,22.28836 0.3543,-0.17013 3.25237,-1.67899 6.43961,-3.35293 z m -25.42656,-32.43472 12.2177,-0.0746 0.2235,-11.94349 c 0.12278,-6.56886 -0.18017,-12.59279 -0.67394,-13.386421 -0.871,-1.400242 -14.33675,-1.670283 -30.35489,-0.608696 -2.919531,0.193403 -9.488434,0.375971 -14.59755,0.405503 l -9.289378,0.05377 v 11.591184 c 0,6.37518 0.284887,12.33403 0.633413,13.24185 0.541567,1.41136 2.734518,1.58863 15.128368,1.22301 7.972237,-0.23513 19.992957,-0.46111 26.712657,-0.50212 z m -11.2744,-32.422603 24.29937,-0.561389 8.61151,-5.663042 c 4.73631,-3.114703 10.5893,-6.797856 13.00663,-8.184817 l 4.39518,-2.521776 -13.94994,-7.577164 C 138.79347,63.652846 126.56165,56.995828 119.2841,53.026864 l -13.23194,-7.21628 -3.45123,2.010142 c -1.8982,1.105604 -7.409567,4.310027 -12.247478,7.120943 -22.183867,12.889393 -38.462823,22.853794 -38.710876,23.695095 -0.149265,0.506017 5.326232,4.087574 12.167584,7.958994 11.089671,6.275429 12.957088,6.998522 17.216277,6.666528 2.627545,-0.204638 15.712106,-0.625027 29.076743,-0.933789 z"
     id="path11488" />
</svg>
