<?xml version="1.0" encoding="UTF-8" standalone="no"?>
<!-- Created with Inkscape (http://www.inkscape.org/) -->

<svg
   width="800"
   height="800"
   viewBox="0 0 211.66666 211.66667"
   version="1.1"
   fill="currentColor"
   id="svg19685"
   xmlns="http://www.w3.org/2000/svg"
   xmlns:svg="http://www.w3.org/2000/svg">
  <defs
     id="defs19682" />
  <path
     d="m 101.46218,159.88748 c -1.15175,-0.8053 -7.110308,-4.11172 -13.241287,-7.34756 -12.774195,-6.74209 -26.206318,-14.09736 -32.380071,-17.73092 -2.335596,-1.37464 -6.707535,-3.8579 -9.715385,-5.51839 -3.00789,-1.66045 -5.739879,-3.72529 -6.071111,-4.58849 -0.854262,-2.2261 0.261615,-4.56976 2.516919,-5.28551 1.060423,-0.33665 6.084073,-3.22115 11.163697,-6.41025 5.079584,-3.18905 9.597418,-5.7983 10.039555,-5.7983 0.442178,0 2.042363,-0.97416 3.555958,-2.16475 2.744951,-2.15916 2.751652,-2.20366 2.605115,-17.251658 -0.08065,-8.29781 0.178958,-16.042416 0.576917,-17.210214 0.735291,-2.156839 10.995092,-9.333315 24.791631,-17.341141 8.413652,-4.883493 8.043782,-4.897577 17.865292,0.68052 3.50344,1.989759 14.01366,7.911566 23.35612,13.159555 9.34243,5.248028 20.63821,11.6846 25.10176,14.303518 l 8.11552,4.761634 0.66924,12.919928 c 0.69413,13.400348 0.97576,22.693138 0.74854,24.699258 -0.0726,0.6396 -4.31196,3.70463 -9.42111,6.81114 -5.10912,3.10656 -9.5282,5.98421 -9.82015,6.3948 -0.29211,0.41056 -3.1584,2.0648 -6.36985,3.67602 -3.21148,1.61121 -7.03339,3.77098 -8.49313,4.79951 -8.15352,5.74493 -27.99217,15.90555 -31.05567,15.90555 -1.34443,0 -3.38675,-0.6589 -4.5385,-1.46425 z m 2.68332,-20.06398 v -13.03513 l -10.351004,-5.58022 c -5.693055,-3.06912 -12.772509,-6.99411 -15.732089,-8.72221 l -5.381123,-3.14203 -6.296937,3.8516 c -3.463308,2.1184 -8.566205,5.09427 -11.339725,6.61312 -2.77356,1.51881 -5.042789,3.06033 -5.042789,3.42567 0,0.36514 2.985861,2.23509 6.63523,4.15507 3.649408,1.92002 14.040218,7.66632 23.090692,12.76966 17.07772,9.62959 22.268535,12.39557 23.621505,12.58693 0.43792,0.0618 0.79624,-5.75316 0.79624,-12.92246 z m 11.70932,9.8342 c 2.3063,-1.17659 8.51468,-4.75963 13.79638,-7.96229 5.28169,-3.20269 9.85137,-5.82306 10.15483,-5.82306 0.30335,0 3.27252,-1.82051 6.59791,-4.0456 3.3254,-2.22505 8.2341,-5.30284 10.90823,-6.83947 2.67409,-1.53662 5.46057,-3.51511 6.19213,-4.39657 1.48623,-1.79082 3.00127,-26.122339 1.62654,-26.122339 -0.45951,0 -1.58971,0.633774 -2.51154,1.408387 -2.36533,1.987632 -27.56347,17.027722 -48.12283,28.723282 -4.63051,2.63416 -5.04279,3.19908 -5.04279,6.91032 0,5.6858 1.28869,20.2866 1.79054,20.2866 0.22951,0 2.30433,-0.96268 4.6106,-2.13926 z m 0.39202,-33.46806 c 4.73042,-2.64974 11.46724,-6.66669 14.97064,-8.92657 3.50343,-2.25984 9.23629,-5.63383 12.73968,-7.497758 3.50344,-1.863886 7.80307,-4.462381 9.55477,-5.774388 1.75169,-1.311968 4.58653,-3.114864 6.29958,-4.006401 l 3.1147,-1.62101 -2.58384,-0.803583 c -1.42115,-0.441977 -3.77821,-1.626748 -5.23796,-2.632842 -1.45979,-1.006094 -6.23715,-3.743261 -10.61643,-6.082549 -14.19322,-7.581738 -19.51624,-10.537265 -26.5589,-14.746458 -3.80521,-2.274244 -8.69276,-5.041264 -10.8612,-6.148955 l -3.94264,-2.013954 -8.779146,5.340076 c -4.828522,2.936989 -10.386717,6.153208 -12.351477,7.147064 -4.152496,2.100504 -4.08308,2.191668 5.695582,7.480624 4.087333,2.210727 9.213543,5.142018 11.391568,6.514092 2.178023,1.372035 4.447293,2.494612 5.042793,2.494612 0.59549,0 1.08273,1.123419 1.08273,2.496497 0,2.058733 -2.09449,3.722476 -11.943447,9.487395 -6.568904,3.844978 -12.796705,7.317758 -13.839513,7.717318 -1.506855,0.57732 -0.853058,1.23738 3.184921,3.2155 2.794506,1.36902 9.141759,4.84939 14.1049,7.73421 4.963179,2.88479 9.453249,5.29004 9.977919,5.34497 0.52468,0.055 4.82431,-2.06812 9.55477,-4.71789 z M 87.80275,92.553927 95.346771,87.688009 91.687773,85.204913 C 89.675303,83.839219 85.205579,81.296698 81.75507,79.554872 L 75.481366,76.387927 V 88.11863 99.849294 l 2.388682,-1.214705 c 1.313772,-0.668081 5.783496,-3.404365 9.932702,-6.080662 z"
     id="path14250" />
</svg>
