<?xml version="1.0" encoding="UTF-8" standalone="no"?>
<!-- Created with Inkscape (http://www.inkscape.org/) -->

<svg
   width="800"
   height="800"
   viewBox="0 0 211.66666 211.66667"
   version="1.1"
   fill="currentColor"
   id="svg19685"
   xmlns="http://www.w3.org/2000/svg"
   xmlns:svg="http://www.w3.org/2000/svg">
  <defs
     id="defs19682" />
  <path
     d="m 96.980709,170.14207 c -3.439635,-1.81802 -7.008071,-3.96784 -7.929903,-4.77736 -0.921832,-0.80952 -2.094685,-1.47187 -2.606359,-1.47187 -0.511634,0 -5.012535,-2.5558 -10.001999,-5.67953 -8.900165,-5.57212 -10.87279,-6.74044 -26.230874,-15.53548 -4.182429,-2.39514 -8.188307,-5.05831 -8.90197,-5.91823 -2.07057,-2.4949 -1.208565,-80.203453 0.897514,-80.90548 1.038034,-0.345878 14.564091,-8.634699 23.640726,-14.486931 3.249684,-2.095288 6.760942,-3.809588 7.802747,-3.809588 1.041806,0 9.609777,4.654581 19.039994,10.343503 9.430175,5.688923 18.101265,10.869381 19.269065,11.512143 1.1678,0.642802 4.65246,2.676538 7.74364,4.519479 3.09115,1.842941 5.81059,3.350799 6.04311,3.350799 0.23232,0 3.43622,1.847836 7.11934,4.106312 3.68311,2.258435 12.19057,7.323534 18.90545,11.255784 6.71488,3.932209 13.76151,8.319316 15.65918,9.74905 l 3.45035,2.599578 v 21.154301 c 0,20.79891 -0.0401,21.17878 -2.38872,22.60943 -1.31377,0.8003 -7.40491,4.25658 -13.53589,7.68061 -6.13097,3.42407 -13.63242,7.79653 -16.66985,9.71663 -3.03742,1.92006 -5.74935,3.49103 -6.02649,3.49103 -0.27726,0 -4.43802,2.41452 -9.24636,5.3656 -9.48202,5.81945 -15.04431,8.43576 -17.93463,8.43576 -1.01428,0 -4.65844,-1.48752 -8.098071,-3.30554 z M 102.81103,121.27476 102.93582,97.235391 85.153345,86.893494 C 75.372997,81.205414 64.870118,74.943988 61.813597,72.979188 c -3.056522,-1.964801 -5.97068,-3.572369 -6.475974,-3.572369 -0.505254,0 -2.907859,-1.440929 -5.339073,-3.202095 l -4.42037,-3.202095 0.280072,34.771239 0.280073,34.771282 5.029468,3.19957 c 2.766177,1.75976 9.624301,5.82711 15.240316,9.03859 5.616015,3.21145 15.773939,9.19898 22.573241,13.30561 l 12.36231,7.46658 0.67153,-10.12069 c 0.36915,-5.56638 0.72763,-20.93838 0.79624,-34.16005 z m 13.39521,40.39271 c 2.3356,-1.57105 6.1575,-3.90785 8.4931,-5.19286 2.33559,-1.28504 9.02395,-5.12091 14.86298,-8.52419 5.83903,-3.40328 13.79674,-7.97336 17.68381,-10.15576 5.6711,-3.18404 7.19172,-4.58982 7.6969,-7.11549 0.97804,-4.89027 0.74082,-27.29984 -0.2889,-27.29984 -0.50518,0 -2.05781,0.84335 -3.45035,1.87408 -1.3925,1.03077 -4.68167,3.02125 -7.30925,4.42334 -2.62755,1.40209 -6.85271,3.95676 -9.38925,5.67712 -2.53654,1.72036 -6.11959,3.19343 -7.96233,3.27356 l -3.35039,0.14565 -0.1902,-17.35341 c -0.10472,-9.544377 -0.42536,-17.588596 -0.71278,-17.875972 -0.28729,-0.287295 -1.87387,0.457465 -3.5255,1.655317 -1.65162,1.197811 -6.82486,4.274717 -11.49609,6.83758 l -8.49314,4.659716 -0.27967,34.632129 c -0.31458,38.94408 -1.01071,36.20595 7.71138,30.33899 z m 42.73589,-62.26228 c 4.24783,-2.428886 5.11682,-4.518998 1.87881,-4.518998 -0.79274,0 -1.60058,-0.389613 -1.79523,-0.866258 -0.1946,-0.476444 -4.17577,-2.93723 -8.847,-5.468435 -4.67123,-2.531165 -9.32914,-5.320695 -10.351,-6.198911 -1.75752,-1.510546 -1.85787,-0.757319 -1.85787,13.943436 v 15.540256 l 8.22771,-4.92418 c 4.52526,-2.70832 10.26032,-6.0864 12.74458,-7.50691 z M 117.36967,84.628437 C 131.26246,76.585863 131.1654,77.256392 119.39116,70.660926 102.6285,61.271195 94.673482,56.671666 89.134386,53.166708 85.922942,51.134617 81.379549,48.399216 79.037974,47.088011 l -4.257383,-2.383946 -4.766568,2.178105 c -2.621607,1.197972 -6.518788,3.370861 -8.660419,4.828683 -2.141632,1.457781 -5.605222,3.462626 -7.696898,4.455198 -3.421659,1.623699 -5.093627,3.686003 -2.988309,3.686003 0.448076,0 6.061483,3.138256 12.47426,6.973925 6.412777,3.835669 14.884408,8.658854 18.825886,10.71819 3.941479,2.059335 7.439897,4.186883 7.774259,4.727848 0.334241,0.541005 3.404726,2.395462 6.823055,4.121038 3.418369,1.725575 6.517063,3.625855 6.886013,4.222835 0.36875,0.596939 0.90237,1.085381 1.18545,1.085381 0.28288,0 6.01261,-3.182795 12.73235,-7.072834 z"
     id="path1895" />
</svg>
