<?xml version="1.0" encoding="UTF-8" standalone="no"?>
<!-- Created with Inkscape (http://www.inkscape.org/) -->

<svg
   width="800"
   height="800"
   viewBox="0 0 211.66666 211.66667"
   version="1.1"
   fill="currentColor"
   id="svg19685"
   xmlns="http://www.w3.org/2000/svg"
   xmlns:svg="http://www.w3.org/2000/svg">
  <defs
     id="defs19682" />
  <path
     d="m 96.507151,179.4652 c -3.38667,-2.06696 -6.326588,-3.75811 -6.533152,-3.75811 -0.206644,0 -6.306888,-3.53216 -13.556351,-7.84925 -7.249419,-4.31708 -15.775223,-9.24175 -18.946221,-10.94373 -3.170998,-1.70195 -9.022307,-5.16012 -13.002943,-7.68483 l -7.237547,-4.59038 0.281677,-18.70382 0.281678,-18.70383 3.440237,-3.18492 c 1.892135,-1.75169 8.06496,-5.812463 13.717409,-9.023948 C 69.100458,86.98386 72.897246,84.806919 81.166602,79.991839 L 88.332686,75.8192 88.475531,64.984206 c 0.07864,-5.959244 0.22791,-12.029313 0.331834,-13.489061 0.103926,-1.459787 0.278468,-4.880203 0.388009,-7.600958 l 0.19902,-4.94682 7.893189,-4.33202 c 4.341207,-2.382609 8.191317,-4.814481 8.555777,-5.404159 1.21366,-1.963781 4.00833,-1.112858 11.59544,3.530623 4.13628,2.531522 11.58136,6.901094 16.5445,9.710163 4.96319,2.809071 11.8904,6.891108 15.39379,9.071218 3.50344,2.180112 9.83151,5.951982 14.06238,8.381992 4.59896,2.641429 8.2678,5.574486 9.12302,7.29344 1.13426,2.279783 1.36734,10.350284 1.12543,38.971006 -0.16773,19.85268 -0.33184,36.43301 -0.36433,36.84518 -0.0321,0.41216 -3.52303,2.74447 -7.7563,5.18291 -6.67306,3.84377 -12.3477,7.19906 -35.29957,20.87194 -17.08281,10.17657 -22.62829,13.21079 -24.94856,13.65056 -1.80478,0.34227 -4.62448,-0.69946 -8.811687,-3.25502 z m 16.702199,-8.05678 c 3.43169,-1.7805 8.67366,-4.82267 11.64876,-6.76038 2.97511,-1.93776 8.03688,-4.96198 11.24833,-6.72053 13.62965,-7.46354 16.56653,-9.19204 18.57872,-10.9347 1.16779,-1.0114 4.63138,-3.09397 7.69689,-4.62798 5.23487,-2.6196 5.573,-3.02997 5.56357,-6.75237 -0.004,-2.17978 0.15889,-16.9782 0.36594,-32.88536 l 0.37597,-28.922095 -5.40864,3.121564 -5.40861,3.121525 -0.28851,18.954407 -0.2885,18.954369 -7.14296,3.96022 c -3.9286,2.1781 -11.43856,6.57267 -16.68875,9.76566 -9.89555,6.01814 -14.86231,7.2617 -15.7666,3.94762 -0.27887,-1.02183 -0.50878,-7.113 -0.51107,-13.53594 -0.002,-6.42292 -0.0453,-13.24036 -0.0955,-15.14987 l -0.0911,-3.47177 -5.31986,3.03826 -5.31982,3.0383 -0.0445,31.75192 c -0.0486,34.58277 -0.0618,33.34435 0.36233,33.34435 0.16211,0 3.10243,-1.45673 6.53416,-3.2372 z m -13.17686,1.91019 c 0.012,-0.14605 0.31579,-14.44749 0.67475,-31.78112 0.72694,-35.08919 1.15961,-32.7635 -6.856002,-36.85277 -2.438597,-1.24407 -7.424931,-4.19747 -11.080679,-6.563084 l -6.646827,-4.301078 -0.652271,12.544482 c -0.358718,6.89945 -0.717074,13.85825 -0.796241,15.46397 -0.117165,2.38082 -0.641475,2.91954 -2.840324,2.91954 -2.69335,0 -9.276863,-2.91709 -14.28988,-6.33169 -1.459748,-0.9943 -5.401066,-3.35566 -8.758524,-5.24747 l -6.104413,-3.43968 v 15.31234 15.31231 l 6.635226,3.99212 c 3.649409,2.19568 8.785087,5.19915 11.412632,6.67439 2.627586,1.47523 6.688361,3.94039 9.023956,5.47814 2.335596,1.53775 6.99242,4.21943 10.348473,5.95929 3.356055,1.73986 6.103053,3.52169 6.104417,3.95961 0.0014,0.43792 0.463685,0.79625 1.02732,0.79625 0.563637,0 3.284714,1.43322 6.046878,3.18492 4.421574,2.80409 6.680611,3.78094 6.751509,2.91953 z m 32.59503,-48.22491 c 4.54094,-2.7297 9.8057,-5.95442 11.69936,-7.16608 3.30253,-2.1131 4.4428,-3.79551 2.57245,-3.79551 -0.48683,0 -6.00598,-3.10527 -12.26484,-6.90065 -6.25882,-3.79535 -11.64399,-6.90066 -11.96708,-6.90066 -0.43889,0 0.14485,27.99112 0.61456,29.46053 0.20984,0.65713 1.59965,-0.0413 9.34555,-4.69763 z M 69.609604,112.39149 c 0.751942,-5.48613 0.918781,-18.430535 0.23754,-18.430535 -0.449922,0 -14.077458,7.603485 -18.490727,10.316895 -2.424673,1.49077 -2.290254,1.6306 6.900698,7.17985 5.15542,3.11269 9.666877,5.70442 10.025434,5.75939 0.358718,0.055 0.955738,-2.11656 1.327055,-4.8256 z M 152.03104,95.267024 V 80.648444 L 143.27252,75.9925 c -4.81721,-2.560778 -11.86384,-6.643335 -15.65922,-9.072382 -3.79535,-2.429007 -9.76707,-6.002379 -13.27051,-7.940818 -3.50338,-1.938438 -6.60871,-3.858941 -6.90065,-4.267815 -0.49707,-0.696129 -12.47286,-7.462728 -13.20779,-7.462728 -0.185377,0 -0.406546,6.364988 -0.491089,14.144382 -0.179759,16.53475 -1.409832,14.545513 14.628089,23.656375 6.05816,3.441561 12.50761,7.159183 14.33217,8.261376 1.82452,1.102234 6.90038,3.933173 11.27962,6.290918 4.37929,2.357782 9.82553,5.636202 12.10274,7.285332 2.27725,1.64914 4.54653,2.99843 5.04279,2.99843 0.49631,0 0.90237,-6.57834 0.90237,-14.618546 z m -41.36249,4.869566 c 3.46182,-1.858425 6.08572,-3.587452 5.83088,-3.842246 -0.25479,-0.254793 -6.09943,-3.536256 -12.98802,-7.292076 l -12.524696,-6.828713 -6.035964,2.974064 -6.035922,2.974106 2.851001,2.350522 c 1.568085,1.292788 3.32877,2.397268 3.912669,2.454407 0.583899,0.05697 4.644669,2.43342 9.023951,5.280649 4.379283,2.847227 8.346961,5.206377 8.817111,5.242497 0.47014,0.0361 3.68716,-1.45482 7.14899,-3.31321 z m 49.90487,-28.601456 5.3893,-3.31609 -2.9847,-1.797801 c -1.64154,-0.98876 -5.61224,-3.187088 -8.82368,-4.885178 -3.21148,-1.69805 -7.27226,-4.055955 -9.02395,-5.239763 -5.01102,-3.38647 -7.26107,-4.731941 -9.66812,-5.78125 -1.23012,-0.536271 -4.84285,-2.642191 -8.02829,-4.679898 -3.1854,-2.037709 -8.54876,-5.196523 -11.91849,-7.019617 l -6.12677,-3.314719 -5.75068,2.813541 c -3.16289,1.547444 -5.750669,2.974995 -5.750669,3.17237 0,0.197415 3.463589,2.407137 7.696899,4.910655 4.23331,2.50352 10.07471,6.107869 12.98088,8.009713 2.90621,1.901845 5.6374,3.457892 6.06931,3.457892 0.71061,0 10.73913,6.077051 23.06662,13.977823 2.58168,1.654635 5.32154,3.008412 6.08849,3.008412 0.76698,0 3.81969,-1.492248 6.78385,-3.31609 z"
     id="path1478" />
</svg>
