<?xml version="1.0" encoding="UTF-8" standalone="no"?>
<!-- Created with Inkscape (http://www.inkscape.org/) -->

<svg
   width="800"
   height="800"
   viewBox="0 0 211.66666 211.66667"
   version="1.1"
   fill="currentColor"
   id="svg19685"
   xmlns="http://www.w3.org/2000/svg"
   xmlns:svg="http://www.w3.org/2000/svg">
  <defs
     id="defs19682" />
  <path
     d="m 118.36671,161.43256 c -1.15175,-0.80519 -3.76617,-2.41151 -5.80982,-3.5696 -2.99958,-1.69982 -15.599281,-8.92328 -32.380036,-18.56355 -1.167798,-0.67089 -4.273112,-2.38768 -6.900657,-3.81513 -2.627586,-1.4274 -8.002128,-4.49769 -11.943486,-6.82285 l -7.166044,-4.22753 0.04855,-18.72232 0.04855,-18.722328 14.549124,-9.169565 c 8.002008,-5.043231 16.221212,-10.013033 18.264859,-11.043964 2.043646,-1.030932 7.214394,-4.190133 11.490555,-7.020471 4.276165,-2.830337 7.971485,-5.14603 8.211795,-5.14603 0.24035,0 2.76621,-1.433225 5.61308,-3.184922 2.84691,-1.751737 5.83995,-3.170597 6.6512,-3.153063 0.81129,0.01605 6.73017,3.082483 13.1531,6.811098 6.42293,3.728576 14.12869,8.084585 17.12394,9.679996 5.26243,2.803052 5.46655,3.083325 6.05835,8.31731 0.33665,2.97908 0.6672,17.121055 0.73413,31.426659 0.067,14.30561 0.33264,28.29928 0.59076,31.09699 0.5837,6.33109 -0.62775,8.66444 -5.89304,11.35056 -2.27705,1.16166 -8.93551,5.224 -14.79653,9.02741 -10.89907,7.07275 -13.97136,8.02175 -17.64814,5.4513 z m 2.208,-38.98513 c -0.48034,-30.480271 -0.9494,-34.927365 -3.68408,-34.927365 -0.39282,0 -5.47012,-2.627545 -11.28251,-5.839029 -5.812429,-3.211445 -10.914564,-5.83903 -11.338083,-5.83903 -0.423559,0 -0.901368,7.763264 -1.061788,17.251662 -0.287696,17.018372 -0.32421,17.256282 -2.697443,17.593162 -1.323122,0.18779 -3.950667,-0.58979 -5.838989,-1.72798 -1.888323,-1.13822 -6.299745,-3.62666 -9.803179,-5.52991 -3.503394,-1.90324 -8.400209,-4.634673 -10.881819,-6.069784 l -4.511976,-2.609368 0.008,7.266962 c 0.004,3.99681 0.309765,9.76967 0.67727,12.82852 l 0.668041,5.56156 12.858617,7.3292 c 7.072272,4.03103 14.530746,8.25953 16.574393,9.39663 12.211526,6.79453 20.215226,11.4075 24.417756,14.07336 2.62755,1.66679 5.14206,3.06804 5.58777,3.11394 0.44571,0.0457 0.58374,-14.29674 0.30696,-31.87253 z m 22.19494,21.3396 c 0.39403,0 2.38623,-1.27361 4.42703,-2.83018 l 3.71056,-2.83017 -0.31979,-32.20397 c -0.17575,-17.712174 -0.43937,-32.203958 -0.58563,-32.203958 -0.14605,0 -3.49549,2.051831 -7.44278,4.559644 -3.94734,2.507812 -9.37906,5.83277 -12.07057,7.388817 l -4.8936,2.829134 0.21226,13.578583 c 0.11676,7.46826 0.2885,22.27057 0.38159,32.89407 l 0.16933,19.31545 7.84748,-5.24871 c 4.31613,-2.88679 8.16989,-5.24871 8.56396,-5.24871 z M 87.920256,81.122335 87.608485,73.662938 75.399612,81.254868 c -6.714878,4.175568 -12.328847,7.692083 -12.475504,7.814504 -0.146456,0.122381 5.347338,3.343094 12.208873,7.157096 l 12.475504,6.934562 0.311771,-7.289669 c 0.171735,-4.009289 0.171735,-10.646365 0,-14.749026 z M 126.7351,80.335003 c 2.42026,-1.616155 7.5169,-4.799672 11.32588,-7.074439 l 6.92538,-4.135964 -7.45619,-4.087092 c -4.10094,-2.247923 -9.94915,-5.36708 -12.99609,-6.931513 l -5.53985,-2.844381 -3.6066,2.062505 c -1.98366,1.134374 -7.27779,4.149125 -11.76482,6.69947 -7.833721,4.452631 -8.061069,4.68985 -5.716485,5.965544 10.725375,5.835699 20.659725,11.532326 21.498135,12.327643 1.54991,1.47026 2.57679,1.192635 7.33064,-1.981773 z"
     id="path6349" />
</svg>
