<?xml version="1.0" encoding="UTF-8" standalone="no"?>
<!-- Created with Inkscape (http://www.inkscape.org/) -->

<svg
   width="800"
   height="800"
   viewBox="0 0 211.66666 211.66667"
   version="1.1"
   fill="currentColor"
   id="svg19685"
   xmlns="http://www.w3.org/2000/svg"
   xmlns:svg="http://www.w3.org/2000/svg">
  <defs
     id="defs19682" />
  <path
     d="m 117.39054,154.91991 c -1.7517,-0.77486 -10.35101,-5.60743 -19.109532,-10.73906 C 89.522483,139.04919 80.373703,133.76894 77.950394,132.4469 69.397189,127.78076 49.420317,115.72111 47.472931,114.04826 44.835715,111.78284 40.854394,103.68823 40.112403,99.083243 39.052662,92.506395 38.803726,92.747707 59.157851,80.620689 61.990716,78.932831 66.21949,76.32278 68.555086,74.82046 80.654779,67.037855 102.41765,54.49434 103.82075,54.49434 c 1.7271,0 11.45207,4.870091 14.15505,7.088602 0.90578,0.743436 5.76412,3.47005 10.79631,6.059115 5.0322,2.589106 10.9709,5.945121 13.19712,7.457873 2.22621,1.512793 4.60538,2.750489 5.28703,2.750489 0.6816,0 3.72404,1.672088 6.7609,3.715735 3.03686,2.043686 5.68069,3.715735 5.87514,3.715735 0.19461,0 2.83483,1.542405 5.8674,3.427598 l 5.51381,3.427557 -0.71723,10.413436 c -1.32505,19.23902 -10.62783,36.36332 -25.4998,46.93931 -9.46059,6.72776 -20.03862,8.80399 -27.66594,5.43012 z m 15.27719,-6.42927 c 8.9571,-3.16025 20.96222,-14.79032 26.36557,-25.54189 4.40416,-8.76338 8.00871,-21.74225 6.03833,-21.74225 -0.56861,0 -12.11662,6.92938 -26.97912,16.18879 -3.21149,2.00075 -11.00159,6.68097 -17.31141,10.40052 -10.56664,6.22884 -11.42014,6.97071 -10.8112,9.39691 1.65042,6.57589 8.9553,12.83808 14.984,12.8453 1.82428,0.002 5.2955,-0.69412 7.71383,-1.54738 z m -27.96155,-9.33047 c -0.2247,-0.72987 -0.69673,-2.64083 -1.04854,-4.24655 -0.3519,-1.60576 -1.0971,-2.91953 -1.65608,-2.91953 -0.55898,0 -5.685553,-2.78412 -11.392411,-6.18688 -5.706818,-3.4028 -15.392311,-8.95505 -21.52329,-12.33835 -6.130979,-3.3833 -12.415316,-7.04868 -13.965224,-8.14526 -1.549868,-1.09657 -3.148208,-1.99381 -3.551825,-1.99381 -0.403657,0 -2.110575,-0.98025 -3.793136,-2.17838 l -3.059291,-2.17839 2.364566,4.46712 c 2.532209,4.78382 7.550803,8.41381 26.251459,18.98783 5.54708,3.13649 14.853432,8.48294 20.680745,11.88101 5.827353,3.39802 10.709157,6.17824 10.848517,6.17824 0.13923,0 0.0694,-0.59718 -0.15529,-1.32705 z m 5.55559,-12.16337 c 1.58522,-0.99679 4.16301,-2.8492 5.72845,-4.11642 1.56547,-1.26723 4.90965,-3.35738 7.43151,-4.64479 2.52185,-1.28745 7.92934,-4.43109 12.01667,-6.98589 4.08729,-2.55479 12.10808,-7.35382 17.82393,-10.66454 5.71588,-3.310672 10.25438,-6.141891 10.08561,-6.291558 -0.27846,-0.246768 -10.97944,-6.183944 -26.3171,-14.601125 -3.21144,-1.76241 -7.1071,-4.092228 -8.65701,-5.177328 -1.54986,-1.085101 -3.22195,-1.97403 -3.71573,-1.975354 -0.49378,-0.0014 -5.19739,-2.414321 -10.45252,-5.362225 -5.25513,-2.947903 -10.34816,-5.152531 -11.31782,-4.899141 -1.57202,0.410719 -10.404293,5.510967 -42.825852,24.729999 -5.255131,3.115184 -10.187978,6.031469 -10.961909,6.480668 -0.956941,0.55541 1.010869,2.175537 6.149838,5.063334 4.156348,2.3356 11.000148,6.22531 15.208458,8.64377 4.208349,2.41845 10.995693,6.19526 15.082986,8.39286 4.087333,2.19765 8.625831,4.80308 10.085579,5.78988 4.322385,2.92198 11.12373,7.29765 11.44999,7.36643 0.16652,0.0361 1.59974,-0.75175 3.18492,-1.74857 z"
     id="path16012" />
</svg>
