<?xml version="1.0" encoding="UTF-8" standalone="no"?>
<!-- Created with Inkscape (http://www.inkscape.org/) -->

<svg
   width="800"
   height="800"
   viewBox="0 0 211.66666 211.66667"
   version="1.1"
   fill="currentColor"
   id="svg19685"
   xmlns="http://www.w3.org/2000/svg"
   xmlns:svg="http://www.w3.org/2000/svg">
  <defs
     id="defs19682" />
  <path
     d="m 70.053895,169.91865 c -1.459788,-1.06953 -5.520558,-3.50432 -9.023952,-5.4107 -3.503434,-1.90633 -7.086475,-4.07597 -7.962324,-4.82134 -0.875848,-0.7454 -4.578302,-2.86464 -8.227711,-4.70943 -3.649369,-1.84478 -6.676238,-3.92069 -6.726394,-4.61309 -0.521064,-7.19738 0.508102,-36.5779 1.315337,-37.55057 0.578763,-0.69738 8.931504,-5.92454 18.561624,-11.61595 19.368216,-11.446619 17.40839,-9.37982 29.066869,-30.653813 1.919941,-3.503394 5.926221,-10.491885 8.902854,-15.529979 2.976633,-5.038095 6.225912,-10.651502 7.220572,-12.47426 1.13939,-2.088027 2.63493,-3.314166 4.04227,-3.314166 2.31971,0 9.02757,3.436427 16.40932,8.406429 2.3545,1.585259 7.14735,4.46198 10.65078,6.392755 3.5034,1.930775 6.58636,3.707951 6.85102,3.949263 0.26483,0.241151 0.34668,8.457587 0.18217,18.258318 l -0.29893,17.819512 3.53361,2.694754 c 1.94349,1.482097 6.46486,4.174247 10.04754,5.982557 7.14574,3.60676 16.39575,9.53145 17.62214,11.28712 0.42897,0.61416 0.78729,9.59533 0.79624,19.95822 l 0.0161,18.84161 -5.04279,2.47808 c -2.77356,1.36293 -7.67038,4.05937 -10.88182,5.99203 -10.05665,6.05209 -15.10149,8.52118 -17.4098,8.52078 -1.22682,-2e-4 -8.44117,-3.57915 -16.0319,-7.95317 -7.59073,-4.37403 -14.17428,-7.95691 -14.6301,-7.96193 -0.45586,-0.004 -4.27776,1.98731 -8.49313,4.42735 -4.215376,2.44009 -9.575273,5.4611 -11.910869,6.71332 -2.335636,1.25226 -5.918678,3.3148 -7.962324,4.58348 -4.501262,2.7943 -7.114042,2.86881 -10.616392,0.30294 z m 18.872271,-12.23612 c 5.093668,-3.16514 10.694395,-6.63695 12.446094,-7.71515 l 3.18496,-1.96035 0.53081,-14.94359 c 0.4884,-13.75004 0.3852,-14.90535 -1.2923,-14.46458 -1.00269,0.26362 -2.37496,1.144 -3.0495,1.95673 -0.6745,0.81278 -1.648618,1.47773 -2.164626,1.47773 -0.516047,0 -5.473812,2.71558 -11.017241,6.0346 l -10.078998,6.03464 v 14.66737 c 0,9.32336 0.397238,14.66737 1.089835,14.66737 0.599388,0 5.257338,-2.58963 10.350966,-5.75477 z m -16.506541,-9.3736 c -0.217077,-7.7367 -0.7188,-14.37173 -1.114833,-14.74449 -0.396034,-0.37276 -5.497486,-3.26184 -11.336516,-6.42024 -5.83899,-3.1584 -11.923945,-6.60674 -13.522044,-7.66299 l -2.905652,-1.92051 0.07704,14.52622 0.07704,14.52617 4.421133,2.62638 c 2.431615,1.44454 8.243039,4.93947 12.914271,7.76655 4.671191,2.82705 9.233644,5.19178 10.138744,5.25489 1.427808,0.0995 1.593404,-1.7476 1.250937,-13.95198 z m 65.443305,-0.0646 0.21668,-14.13114 -2.95252,-1.52804 c -6.29076,-3.25566 -19.8642,-10.79234 -22.23763,-12.34751 l -2.49321,-1.63361 v 13.79269 13.79265 l 13.53593,8.06653 c 7.44475,4.43658 13.57601,8.07844 13.625,8.09305 0.049,0.0161 0.18658,-6.33245 0.30575,-14.10458 z m 19.57326,5.61313 c 5.14342,-3.12831 9.66555,-6.19398 10.04918,-6.81263 0.3836,-0.6186 0.74713,-6.73819 0.80784,-13.59904 0.0995,-11.24302 -0.0742,-12.47426 -1.75884,-12.47426 -1.02804,0 -2.17004,0.4868 -2.53778,1.08181 -0.36755,0.59501 -3.14292,2.32243 -6.1671,3.83876 -3.02414,1.51632 -7.5114,4.01535 -9.97166,5.55342 -4.76424,2.97844 -5.08741,4.12966 -4.8083,17.12864 0.0437,2.04368 0.11997,6.03993 0.16853,8.88062 0.0879,5.0974 0.11997,5.14483 2.47759,3.6277 1.31378,-0.84547 6.59696,-4.09672 11.74042,-7.22502 z M 87.370841,121.29133 c 6.532991,-3.91151 12.082158,-7.26062 12.331495,-7.44247 0.810324,-0.59096 -3.108123,-2.97976 -14.372453,-8.76181 -11.570685,-5.939346 -11.616027,-5.945084 -17.399283,-2.2125 -5.981273,3.86039 -16.340704,9.604 -17.322242,9.604 -2.291458,0 2.000994,3.12377 13.05868,9.50329 6.121631,3.53172 11.286721,6.42132 11.477957,6.42132 0.191396,0 5.692894,-3.20033 12.225846,-7.11183 z m 59.852009,3.7821 c 3.39337,-1.83139 7.60305,-4.3902 9.35474,-5.68628 1.7517,-1.29607 4.32359,-2.71654 5.71529,-3.15659 2.28455,-0.72237 1.71731,-1.26257 -5.83903,-5.5608 -4.60318,-2.6184 -10.73384,-6.18844 -13.62368,-7.93344 l -5.25433,-3.17272 -8.54703,4.47831 c -4.70084,2.46307 -10.39887,5.55647 -12.66224,6.87421 -3.98766,2.32164 -4.03702,2.42018 -1.59244,3.18011 1.38752,0.43131 3.93654,1.79644 5.66452,3.03361 3.4018,2.43559 18.68991,11.03341 19.88354,11.18224 0.40194,0.0502 3.50725,-1.40731 6.90066,-3.23865 z M 111.98869,99.988844 c 2.9195,-5.684548 6.32266,-11.768782 7.5626,-13.520479 1.2399,-1.751697 3.4416,-5.334739 4.89268,-7.962284 4.60294,-8.334885 7.17772,-12.803204 8.83609,-15.334209 1.54934,-2.364606 1.4569,-2.539912 -2.40859,-4.566506 -8.90742,-4.670028 -16.8728,-9.099506 -18.85361,-10.484421 -3.26345,-2.281668 -4.33458,-1.795674 -6.46759,2.934502 -1.09092,2.419256 -3.68664,6.838343 -5.768286,9.820192 -2.081645,2.981849 -5.494436,8.526843 -7.583986,12.322226 -6.097234,11.07482 -8.503049,15.255444 -10.06375,17.487878 -0.805189,1.151748 -1.446507,2.584973 -1.4252,3.184922 0.04093,1.147414 6.074523,5.186236 13.231739,8.856955 2.335636,1.19789 5.918638,3.38073 7.962323,4.85075 2.04365,1.47006 3.9546,2.68925 4.24655,2.7094 0.29211,0.0201 2.9195,-4.61438 5.83903,-10.298926 z m 19.78865,-4.749676 c 4.27535,-2.366733 5.14033,-5.008001 5.13194,-15.67146 -0.008,-8.340301 -1.1751,-9.452687 -4.18869,-3.987301 -1.37018,2.484981 -5.79128,9.945863 -9.82468,16.579769 l -7.33345,12.061614 6.17544,-3.42178 c 3.39646,-1.881982 7.91422,-4.384337 10.03944,-5.560842 z"
     id="path8172" />
</svg>
