<?xml version="1.0" encoding="UTF-8" standalone="no"?>
<!-- Created with Inkscape (http://www.inkscape.org/) -->

<svg
   width="800"
   height="800"
   viewBox="0 0 211.66666 211.66667"
   version="1.1"
   fill="currentColor"
   id="svg19685"
   xmlns="http://www.w3.org/2000/svg"
   xmlns:svg="http://www.w3.org/2000/svg">
  <defs
     id="defs19682" />
  <path
     d="M 90.085305,170.85408 C 82.202629,166.27742 67.522296,157.80062 57.46235,152.0174 l -18.290819,-10.51516 -0.02408,-35.6659 c -0.02006,-32.667369 0.133616,-35.799928 1.835357,-37.26449 1.021864,-0.879139 6.396406,-4.264886 11.943486,-7.523437 5.547048,-3.258551 14.146357,-8.361648 19.109538,-11.340929 13.634073,-8.183094 24.549035,-14.573802 28.446058,-16.655487 3.49136,-1.864608 3.50905,-1.861398 10.08558,1.777939 3.62345,2.005447 8.11539,4.373223 9.98214,5.261992 4.1508,1.976557 4.7004,4.819013 4.27495,22.112486 -0.1625,6.601365 -0.0999,12.197999 0.13884,12.436743 0.44731,0.447394 4.66291,-1.860997 17.86272,-9.780869 4.19246,-2.515436 8.70328,-4.573448 10.02406,-4.573448 1.32079,0 6.11216,2.435989 10.6475,5.413665 l 8.24604,5.413665 0.0578,35.96765 0.0578,35.96804 -4.45251,2.81076 c -2.44891,1.54562 -5.91904,3.48365 -7.71147,4.30621 -1.79242,0.82297 -5.64763,2.98009 -8.56711,4.79414 -2.9195,1.81405 -9.36899,5.45218 -14.33217,8.08519 -4.96314,2.6326 -10.29202,5.67006 -11.84193,6.74982 -1.54987,1.07977 -3.15948,1.96292 -3.57686,1.96292 -0.41738,0 -3.51142,1.67241 -6.87566,3.71597 -3.3642,2.04357 -7.00972,3.71237 -8.10116,3.70836 -1.0914,-0.004 -8.433879,-3.75209 -16.316555,-8.32915 z m 14.089255,-29.58175 0.53803,-29.95612 -3.86331,-2.31361 c -2.124823,-1.27236 -6.84585,-3.91058 -10.491165,-5.86226 -3.645356,-1.95208 -8.613834,-4.987539 -11.041116,-6.745817 -2.427281,-1.758277 -5.010127,-3.196758 -5.73972,-3.196758 -0.729553,0 -3.882615,-1.734604 -7.006788,-3.854809 -3.124172,-2.120205 -7.11352,-4.516068 -8.865225,-5.324186 -3.28086,-1.513515 -5.287351,-2.681553 -10.362842,-6.033596 l -2.94048,-1.941648 0.281677,30.593704 0.281678,30.59411 9.554765,5.57336 c 5.255139,3.06555 18.044781,10.41846 28.421426,16.3401 10.376686,5.92165 19.14324,11.21414 19.48125,11.76104 0.33825,0.5469 0.74937,0.84343 0.91409,0.65845 0.16451,-0.18457 0.54156,-13.81624 0.83744,-30.29196 z m 22.00655,20.39754 c 6.13098,-3.39578 14.96911,-8.42946 19.64034,-11.18605 4.67124,-2.75618 11.12069,-6.4529 14.33213,-8.21439 l 5.83903,-3.20277 0.53081,-30.75983 0.53082,-30.759821 -9.02391,4.823426 c -4.96318,2.652664 -10.21831,5.621111 -11.67806,6.59655 -1.45975,0.975037 -5.28166,3.150213 -8.49314,4.833056 -3.21144,1.683244 -7.27221,4.077903 -9.02395,5.321778 -1.7517,1.243871 -5.86102,3.588781 -9.13181,5.211431 -3.27083,1.62226 -6.94712,3.722 -8.16957,4.66574 -2.53044,1.95328 -2.54717,2.23255 -2.41665,40.27266 l 0.0778,22.6321 2.91953,-2.02992 c 1.60572,-1.11628 7.93576,-4.80818 14.06674,-8.20396 z m -17.5902,-57.73746 c 0.3206,-0.51882 5.24566,-3.64777 10.94446,-6.953266 5.69879,-3.305898 11.07807,-6.460525 11.95392,-7.010639 1.95649,-1.229029 18.85686,-10.945297 25.76189,-14.810939 5.5273,-3.09444 5.47076,-3.401798 -1.40971,-7.664677 -2.6007,-1.61142 -2.96997,-1.527158 -8.44391,1.924395 -3.14836,1.984983 -6.17471,3.609243 -6.72523,3.609243 -0.55051,0 -3.52923,1.678028 -6.6193,3.729217 -7.82983,5.19699 -11.1576,5.6817 -16.18145,2.357344 -2.22392,-1.471785 -7.1164,-4.223557 -10.8721,-6.11505 -10.705835,-5.391595 -15.857604,-9.288937 -15.817599,-11.966076 0.03611,-2.364968 4.582154,-5.704972 17.746479,-13.03581 3.06487,-1.706917 5.57301,-3.420656 5.57361,-3.808664 6e-4,-0.389213 -2.19139,-1.930815 -4.8711,-3.428683 -4.67913,-2.614946 -5.00511,-2.654669 -8.22771,-1.003124 -1.845547,0.946147 -5.266484,3.021814 -7.60208,4.61277 -2.335636,1.591358 -6.706452,4.135283 -9.712938,5.653613 -3.006485,1.517928 -7.565728,4.177012 -10.131602,5.908807 -4.624085,3.120922 -15.163156,9.183408 -21.844658,12.565945 -1.908586,0.96621 -3.322952,2.198449 -3.143112,2.737729 0.17976,0.539681 3.412631,2.622971 7.1839,4.630023 3.771276,2.006651 9.007548,4.995964 11.636217,6.643095 5.332933,3.34161 31.966662,18.813407 36.097773,20.969727 3.14219,1.63991 3.92507,1.71574 4.70425,0.45502 z M 119.81127,60.883499 V 48.740471 l -6.94295,4.21794 c -3.81858,2.320027 -8.56974,4.993957 -10.55805,5.942111 l -3.615144,1.72377 4.984444,3.177097 c 4.65242,2.965639 15.27158,9.117603 15.86627,9.191834 0.14606,0 0.26523,-5.430918 0.26523,-12.109724 z"
     id="path17484" />
</svg>
