<?xml version="1.0" encoding="UTF-8" standalone="no"?>
<!-- Created with Inkscape (http://www.inkscape.org/) -->

<svg
   width="800"
   height="800"
   viewBox="0 0 211.66666 211.66667"
   version="1.1"
   fill="currentColor"
   id="svg19685"
   xmlns="http://www.w3.org/2000/svg"
   xmlns:svg="http://www.w3.org/2000/svg">
  <defs
     id="defs19682" />
  <path
     d="m 71.649867,163.27998 -17.51709,-9.97467 -0.225101,-37.69964 -0.225101,-37.699642 3.409822,-2.525026 c 3.745909,-2.773881 21.41098,-13.285186 27.296795,-16.242479 4.153941,-2.087142 11.912791,-6.83437 24.715998,-15.122349 4.72913,-3.061378 9.48438,-5.847337 10.5672,-6.191008 1.96528,-0.623743 8.809,2.489154 17.21972,7.832441 2.36216,1.500675 7.07753,4.170713 10.47864,5.933404 3.40112,1.762651 6.61385,4.008367 7.1394,4.990426 0.5256,0.98206 1.218,15.574358 1.53868,32.427338 0.3206,16.852985 0.80366,33.508225 1.0733,37.011615 0.56941,7.39789 0.19982,8.20665 -4.78796,10.47576 -2.04364,0.92973 -4.65678,2.29719 -5.80689,3.03882 -7.26607,4.6852 -23.88938,14.85648 -33.43242,20.45625 -6.15373,3.61096 -13.551419,8.07443 -16.439255,9.91877 -2.887837,1.84439 -5.754286,3.35145 -6.369844,3.34904 -0.615557,-0.002 -9.001883,-4.49296 -18.636256,-9.97905 z m 15.924608,-13.31712 v -13.74582 l -6.202643,-9.87569 c -3.411427,-5.43164 -9.215026,-15.13085 -12.896936,-21.55374 -3.68187,-6.422929 -7.318198,-12.589018 -8.080653,-13.702406 -1.149782,-1.67887 -1.286327,3.031684 -0.800133,27.602666 0.322204,16.29484 0.897597,29.95479 1.278182,30.3554 1.100749,1.15873 24.909839,14.66537 25.851653,14.66537 0.467778,0 0.85053,-6.18563 0.85053,-13.74578 z m 11.365887,10.73147 c 2.799238,-1.65785 7.717078,-4.68203 10.928568,-6.72034 3.21144,-2.03835 6.55562,-4.03754 7.43147,-4.44272 0.87585,-0.40514 8.75852,-5.14559 17.51705,-10.53429 l 15.9246,-9.79764 V 104.7846 c 0,-13.428111 -0.15729,-28.121685 -0.34948,-32.652399 l -0.34949,-8.237662 -4.42776,2.687372 c -2.43526,1.478044 -8.59465,4.904358 -13.6876,7.613999 l -9.25988,4.926627 0.64268,18.819868 0.64268,18.819905 -3.00002,1.97496 c -4.05263,2.66787 -19.02591,11.38566 -24.716842,14.39071 -4.370655,2.30786 -4.577058,2.6261 -3.992838,6.15617 0.339056,2.04738 0.621336,8.38047 0.627756,14.07348 0.008,5.69306 0.229515,10.35101 0.495784,10.35101 0.26643,0 2.774403,-1.35643 5.573603,-3.01431 z m 8.011238,-41.31334 c 10.64424,-6.53066 10.4971,-4.34762 1.30526,-19.37078 -3.0367,-4.963185 -8.971985,-14.912218 -13.189523,-22.108997 -5.78771,-9.876126 -8.075838,-12.928595 -9.330386,-12.447176 -2.554558,0.980254 -24.703517,14.452944 -24.703517,15.026571 0,0.278468 0.891176,1.800489 1.980329,3.382578 1.089193,1.582088 4.447094,7.176155 7.462046,12.431286 3.014992,5.255128 5.936774,10.271358 6.492907,11.147208 0.556172,0.87589 3.767135,6.20424 7.135508,11.8408 l 6.124319,10.24837 3.715775,-2.22453 c 2.043647,-1.22349 7.896922,-4.78988 13.007282,-7.92533 z M 117.38269,79.407385 C 116.25494,78.048512 97.957861,68.16099 96.571021,68.16099 c -0.457906,0 -0.06701,0.845875 0.868586,1.879696 0.935594,1.03386 2.084574,2.830658 2.553234,3.992959 0.468659,1.16226 4.674039,8.557378 9.345229,16.433594 l 8.49314,14.320371 0.30134,-12.05692 c 0.17173,-6.87586 -0.15047,-12.601095 -0.74978,-13.323305 z m 6.20397,-7.393031 c 1.5928,-1.382587 5.10201,-3.442444 17.92909,-10.524024 3.10018,-1.711532 5.4889,-3.250205 5.30822,-3.419292 -1.30627,-1.222529 -24.3968,-13.266127 -25.43443,-13.266127 -1.27257,0 -10.9819,5.426866 -21.407011,11.965114 l -5.108996,3.204141 5.639807,3.167829 c 8.28573,4.654018 19.29587,10.187416 20.41921,10.262128 0.53792,0.03611 1.73228,-0.589596 2.65411,-1.389769 z"
     id="path13802" />
</svg>
