<?xml version="1.0" encoding="UTF-8" standalone="no"?>
<!-- Created with Inkscape (http://www.inkscape.org/) -->

<svg
   width="800"
   height="800"
   viewBox="0 0 211.66666 211.66667"
   version="1.1"
   fill="currentColor"
   id="svg19685"
   xmlns="http://www.w3.org/2000/svg"
   xmlns:svg="http://www.w3.org/2000/svg">
  <defs
     id="defs19682" />
  <path
     d="m 128.53391,161.85774 c -1.75174,-1.06403 -7.24573,-4.02217 -12.20888,-6.57364 -4.96318,-2.55142 -10.69604,-5.66665 -12.73968,-6.92268 -2.04369,-1.25603 -10.881821,-6.01739 -19.640386,-10.58072 -18.194399,-9.47957 -22.562727,-12.09841 -25.314901,-15.1764 -3.337798,-3.73295 -4.847621,-9.88311 -4.872619,-19.84831 -0.02006,-7.691442 0.544336,-11.211086 2.890164,-18.047904 5.227645,-15.235582 16.391021,-29.218382 28.058327,-35.144723 8.559103,-4.347544 7.997835,-4.536091 37.988945,12.762638 31.85941,18.376406 33.97002,19.791173 34.0026,22.792724 0.016,1.525833 0.21307,18.539635 0.43668,37.808425 0.28008,24.12395 0.049,35.46648 -0.74187,36.42254 -3.80922,4.60535 -21.74702,6.2203 -27.85838,2.50805 z m 21.03115,-6.85162 2.71177,-1.77682 0.0281,-31.34111 c 0.016,-17.23758 -0.36755,-31.341075 -0.85101,-31.341075 -1.85321,0 -11.39085,8.462804 -14.52132,12.884815 -8.36863,11.82135 -13.17612,24.45631 -13.17612,34.62936 0,8.34528 2.12867,13.24659 7.31779,16.84937 3.22493,2.23906 4.77259,2.59669 9.80422,2.2655 3.28612,-0.21628 7.1951,-1.19284 8.68654,-2.17004 z M 118.0157,141.24044 c -0.27887,-12.3512 3.46387,-24.46863 11.55849,-37.42282 4.94946,-7.920839 9.18662,-12.441923 15.80652,-16.865704 3.54897,-2.371588 3.83755,-2.843819 2.12329,-3.474665 -1.09112,-0.40149 -6.41984,-3.274721 -11.84161,-6.38485 -5.42173,-3.110169 -10.06716,-5.654816 -10.32311,-5.654816 -0.655,0 -28.370223,-15.926454 -29.96788,-17.220926 -3.153143,-2.554839 -12.699,2.925192 -20.809867,11.946415 -9.586343,10.662295 -15.418592,24.007549 -15.741237,36.018846 -0.277665,10.3307 2.622489,15.15044 12.395735,20.60146 16.822365,9.38267 40.075599,21.90897 40.711749,21.931 0.37476,0.012 1.87584,0.95782 3.33559,2.09966 1.45979,1.14184 2.7153,2.0867 2.79005,2.0997 0.0746,0.012 0.0578,-3.44 -0.0361,-7.6733 z"
     id="path15900" />
</svg>
