<?xml version="1.0" encoding="UTF-8" standalone="no"?>
<!-- Created with Inkscape (http://www.inkscape.org/) -->

<svg
   width="800"
   height="800"
   viewBox="0 0 211.66666 211.66667"
   version="1.1"
   fill="currentColor"
   id="svg19685"
   xmlns="http://www.w3.org/2000/svg"
   xmlns:svg="http://www.w3.org/2000/svg">
  <defs
     id="defs19682" />
  <path
     d="m 78.285562,170.25305 c -5.108073,-2.85453 -10.675817,-6.17869 -12.372743,-7.38701 -1.696927,-1.20829 -3.48931,-2.1993 -3.983048,-2.20218 -0.493779,-0.003 -2.239056,-1.07869 -3.878443,-2.39065 l -2.980685,-2.38531 -0.453252,-20.91881 -0.453252,-20.91881 5.732739,-4.02782 c 5.165331,-3.62919 13.038256,-8.56316 22.616374,-14.173717 l 3.433376,-2.011145 -0.67085,-16.257806 C 84.795161,65.931344 84.961599,60.65571 85.862606,58.971984 c 1.230955,-2.300005 5.615774,-5.351952 25.205484,-17.543573 9.67947,-6.024006 11.57987,-6.821771 12.24683,-5.141135 0.1946,0.490448 5.37013,3.6468 11.50111,7.014091 6.13098,3.36729 11.86383,6.73141 12.73968,7.475809 0.87585,0.744399 2.59489,1.658005 3.82002,2.030245 1.22518,0.37236 2.69765,1.742548 3.27216,3.045086 0.59252,1.343425 1.12695,15.921157 1.23492,33.686701 0.10473,17.225102 0.47877,33.826372 0.83131,36.891722 0.64734,5.6291 -1.25888,10.8821 -3.94894,10.8821 -1.37412,0 -13.64856,7.39219 -29.09636,17.52303 -16.45859,10.79375 -33.126275,20.70398 -34.733121,20.65153 -0.749494,-0.0241 -5.542024,-2.38001 -10.650137,-5.23454 z m 7.869917,-5.60278 c 0.221088,-0.72987 0.235935,-7.5762 0.0321,-15.21403 l -0.36915,-13.88698 -7.616086,-4.0749 c -4.188849,-2.24118 -10.004767,-5.58459 -12.924302,-7.42978 l -5.308176,-3.35481 0.329827,14.91598 c 0.192199,8.67924 0.812652,15.49748 1.484224,16.30668 1.21655,1.46585 22.056711,14.0649 23.264835,14.0649 0.387206,0 0.884876,-0.59718 1.106005,-1.32706 z m 13.340398,-2.53152 c 3.368773,-2.12221 9.946943,-6.36399 14.618143,-9.42613 4.67123,-3.06218 13.03167,-8.32236 18.57871,-11.68937 5.54708,-3.36697 11.87712,-7.31174 14.06674,-8.76615 l 3.98116,-2.64432 V 95.069315 c 0,-32.792315 -0.0931,-34.441813 -1.85786,-32.894513 -1.02183,0.895951 -3.52996,2.457134 -5.57361,3.469287 -2.04368,1.012194 -7.63366,4.294539 -12.42221,7.294083 l -8.70649,5.45379 -0.0682,18.047902 c -0.0361,9.926326 -0.46818,18.678546 -0.95694,19.449346 -0.48872,0.7708 -7.28919,5.32238 -15.11212,10.11467 l -14.223426,8.71323 0.229515,14.30303 c 0.126394,7.86671 0.245565,14.90026 0.265226,15.63013 0.05056,1.87709 0.351495,1.77108 7.181331,-2.53152 z m -9.94133,-33.06946 c 0.282882,-0.45775 5.555707,-3.92138 11.717343,-7.6969 6.16163,-3.77556 11.21349,-7.11296 11.22633,-7.41646 0.012,-0.30335 -3.918,-2.64685 -8.73517,-5.20742 -4.817207,-2.56058 -9.897874,-5.53701 -11.290412,-6.61425 -3.415239,-2.642029 -4.355248,-2.509897 -10.611577,1.49169 -2.967003,1.89767 -8.311412,5.305 -11.876438,7.57183 l -6.481912,4.12152 8.319396,4.79 c 4.575694,2.63452 9.991526,5.88682 12.035172,7.22731 4.119393,2.70206 4.943279,2.9526 5.697268,1.73268 z m 27.668593,-23.40856 c -0.0417,-1.2651 -0.1613,-7.698225 -0.26523,-14.295777 l -0.18939,-11.995529 -6.10441,-3.366246 c -3.35746,-1.851448 -9.27361,-5.030752 -13.147078,-7.06517 l -7.042659,-3.698923 -0.05377,9.907424 c -0.02809,5.449095 0.273251,12.170474 0.672816,14.93637 l 0.726704,5.028946 11.678057,6.712435 c 6.42293,3.69182 12.15579,6.5829 12.73969,6.42457 0.5839,-0.15849 1.02752,-1.32296 0.98583,-2.5881 z m 7.40924,-36.10251 c 2.97342,-2.242024 7.31724,-5.050052 9.65283,-6.240119 7.10871,-3.622043 11.13345,-6.101688 11.14051,-6.863621 0.003,-0.398442 -1.06821,-1.058458 -2.38198,-1.466328 -1.31378,-0.407911 -3.58304,-1.578999 -5.04279,-2.602387 -1.45975,-1.023388 -5.78518,-3.548775 -9.61211,-5.611923 l -6.95799,-3.751245 -4.99621,2.831741 c -12.71525,7.20669 -21.960969,13.021485 -21.960969,13.811626 0,0.476284 2.440403,2.008978 5.423054,3.40601 2.982695,1.397032 8.357235,4.344856 11.943485,6.550727 3.58621,2.205872 6.71512,4.010975 6.95314,4.011296 0.23794,3.21e-4 2.86557,-1.833792 5.83903,-4.075777 z"
     id="path6237" />
</svg>
