<?xml version="1.0" encoding="UTF-8" standalone="no"?>
<!-- Created with Inkscape (http://www.inkscape.org/) -->

<svg
   width="800"
   height="800"
   viewBox="0 0 211.66666 211.66667"
   version="1.1"
   fill="currentColor"
   id="svg19685"
   xmlns="http://www.w3.org/2000/svg"
   xmlns:svg="http://www.w3.org/2000/svg">
  <defs
     id="defs19682" />
  <path
     d="m 101.0349,180.32884 c -1.167799,-0.88877 -4.750841,-2.95986 -7.962285,-4.60242 -3.211485,-1.64255 -7.511119,-3.9298 -9.554765,-5.08275 -6.438056,-3.63212 -28.912188,-15.83444 -35.899113,-19.49139 -3.687207,-1.9299 -7.097872,-4.25574 -7.579292,-5.16854 -0.48142,-0.91281 -0.889652,-8.92509 -0.907186,-17.80503 -0.01605,-8.87994 -0.352699,-17.15601 -0.74472,-18.39125 -0.45899,-1.44615 -0.138833,-2.69071 0.899321,-3.49501 0.886683,-0.68698 3.154267,-4.35437 5.039099,-8.149753 1.884872,-3.795343 7.265915,-13.588972 11.957931,-21.763598 4.692017,-8.174666 10.156881,-17.874081 12.144192,-21.554306 2.750408,-5.093427 4.920208,-7.533388 9.086105,-10.21751 21.165696,-13.63716 24.373653,-15.471194 27.060663,-15.471194 1.61483,0 3.38992,0.427131 3.9446,0.949197 0.55473,0.522066 6.98031,4.183834 14.27909,8.137189 42.97343,23.27651 46.00868,24.962883 47.40202,26.336683 0.84885,0.836927 1.43403,13.006879 1.92107,39.953382 l 0.70042,38.74992 -9.35257,5.71865 c -5.14391,3.14528 -11.02463,6.78358 -13.06827,8.08503 -2.04369,1.30149 -6.82105,4.19289 -10.61644,6.42533 -3.79534,2.23247 -7.13952,4.35119 -7.43147,4.70831 -0.29211,0.35711 -5.62945,3.611 -11.86111,7.23088 -11.75072,6.82586 -15.63843,7.80455 -19.45729,4.89818 z m 35.56495,-22.55786 c 9.63441,-5.88117 20.50295,-12.48682 24.15232,-14.67925 l 6.63527,-3.98618 -0.10553,-24.46257 c -0.0582,-13.45443 -0.41625,-28.360189 -0.79624,-33.123949 l -0.69083,-8.661382 -12.61185,7.555978 -12.61189,7.555979 0.52436,18.980724 c 0.48166,17.4352 0.36594,19.12848 -1.423,20.79499 -1.07101,0.99783 -8.56945,5.77395 -16.66311,10.61362 l -14.71584,8.79941 -0.19541,5.48353 c -0.10753,3.01595 0.0971,9.14636 0.4545,13.62315 l 0.6497,8.13959 4.94007,-2.97033 c 2.71707,-1.63365 12.82279,-7.78216 22.45716,-13.66331 z m -33.20689,2.5086 -0.23473,-13.23959 -3.697836,-1.88877 c -2.033816,-1.03883 -6.572314,-3.59427 -10.085579,-5.67877 -3.513264,-2.08449 -9.493052,-5.47622 -13.288436,-7.53716 -3.795343,-2.06094 -12.254415,-6.68546 -18.797879,-10.27673 -6.543464,-3.59127 -12.229858,-6.52958 -12.636365,-6.52958 -0.406506,0 -0.445668,5.83638 -0.08707,12.96976 0.59706,11.87515 0.85715,13.12493 3.0816,14.80825 2.525146,1.91087 21.004874,12.3904 34.809478,19.73977 4.379283,2.33146 10.58987,5.72286 13.801354,7.53647 3.211445,1.81361 6.183543,3.30614 6.604613,3.31674 0.42107,0.012 0.65994,-5.93858 0.53081,-13.22039 z m 28.93121,-35.59584 c -0.0161,-0.83315 -23.01778,-12.73968 -24.6103,-12.73968 -2.26759,0 -25.642807,14.21881 -25.306841,15.39379 0.16692,0.5839 3.948822,3.0251 8.404101,5.42494 4.455279,2.3998 9.69223,5.33257 11.63769,6.51726 l 3.53718,2.15395 13.17448,-8.10974 c 7.24602,-4.46034 13.16963,-8.34857 13.16369,-8.64052 z M 80.082388,113.00568 c 6.849016,-12.89778 9.814574,-18.349524 12.127379,-22.294453 1.198172,-2.043647 3.862833,-6.821049 5.921446,-10.616393 2.058657,-3.795383 4.219387,-7.509393 4.801677,-8.253391 1.35855,-1.735847 1.73501,-1.445382 -9.377331,-7.234898 -5.228809,-2.724166 -11.50159,-6.057229 -13.939584,-7.406753 l -4.432649,-2.453724 -1.510385,2.323398 C 68.26056,65.395042 45.165173,108.18574 45.939907,108.4527 c 0.52323,0.18016 6.923047,3.6082 14.221824,7.61765 9.870428,5.42205 13.580787,6.98339 14.481513,6.09374 0.666075,-0.65785 3.113659,-4.77913 5.439144,-9.15841 z m 56.038332,-9.2523 c -0.37678,-9.17611 -0.78164,-16.768562 -0.89932,-16.872165 -0.25199,-0.221891 -10.19031,-5.686113 -19.58895,-10.770472 l -6.63523,-3.589422 v 16.018983 16.019026 l 4.98521,3.16153 c 2.7419,1.73886 5.4889,3.17473 6.10446,3.19082 0.61556,0.016 4.46334,2.1316 8.55068,4.70112 4.08729,2.56949 7.5973,4.70614 7.80002,4.74812 0.20263,0.0417 0.0602,-7.43148 -0.31699,-16.60754 z m -40.924851,7.87935 9.023951,-5.63544 0.0281,-11.093362 c 0.016,-6.101367 -0.15689,-11.491238 -0.38239,-11.977553 -0.22551,-0.486275 -4.095521,5.724313 -8.600435,13.801354 -4.504914,8.077001 -9.231438,16.494791 -10.503441,18.706161 -2.646203,4.60045 -3.539225,4.92574 10.435068,-3.80116 z M 148.47276,76.225059 c 4.41832,-2.834791 9.60099,-6.010965 11.517,-7.058107 1.94445,-1.062711 3.0584,-2.283393 2.52117,-2.762767 -0.52937,-0.472351 -6.9405,-3.966195 -14.24694,-7.764107 -7.30644,-3.797871 -17.64329,-9.362405 -22.97072,-12.365601 -5.32748,-3.003195 -9.98864,-5.460368 -10.35815,-5.460368 -0.36955,0 -2.56387,-1.194321 -4.87627,-2.654068 -2.3124,-1.459788 -4.72099,-2.654109 -5.35243,-2.654109 -0.63141,0 -6.399901,3.181552 -12.818817,7.070104 -9.446829,5.722827 -11.406854,7.32221 -10.285682,8.393186 1.412159,1.348962 5.695583,3.683555 34.986709,19.068643 9.13847,4.799953 17.73413,9.510788 19.10151,10.468531 2.98144,2.088306 2.71682,2.176942 12.78262,-4.281337 z"
     id="path10936" />
</svg>
