<?xml version="1.0" encoding="UTF-8" standalone="no"?>
<!-- Created with Inkscape (http://www.inkscape.org/) -->

<svg
   width="800"
   height="800"
   viewBox="0 0 211.66666 211.66667"
   version="1.1"
   fill="currentColor"
   id="svg5"
   xmlns="http://www.w3.org/2000/svg"
   xmlns:svg="http://www.w3.org/2000/svg">
  <defs
     id="defs2" />
  <g
     id="layer1" />
  <path d="m 101.48884,179.01237 c -1.4552,-0.452 -5.027076,-2.28868 -7.937476,-4.08156 -5.396,-3.32396 -9.75032,-5.87368 -23.812519,-13.94356 -4.365599,-2.50532 -8.183199,-4.93056 -8.483519,-5.38936 -0.3004,-0.45884 -3.37152,-2.32052 -6.82488,-4.13712 -3.453419,-1.81656 -8.331859,-4.5882 -10.841019,-6.1592 l -4.562158,-2.85628 0.134,-8.46668 c 0.1708,-10.77692 0.4524,-11.75472 3.910118,-13.57004 2.65076,-1.39168 5.22388,-2.8058 20.025339,-11.0054 l 5.528719,-3.0628 -7.062919,-4.17256 c -3.8846,-2.294879 -7.84156,-4.485238 -8.793199,-4.867398 -0.9516,-0.382 -4.39082,-2.3968 -7.64266,-4.47696 l -5.912398,-3.78212 0.5728,-10.339719 c 0.49144,-8.87168 0.8928,-10.599279 2.826838,-12.168239 1.23972,-1.00568 2.54288,-1.83912 2.89592,-1.85208 0.3532,-0.012 4.78012,-2.40476 9.837979,-5.3152 5.05788,-2.9104 9.458,-5.29164 9.77808,-5.29164 0.32,0 2.03512,-1.034719 3.811159,-2.299359 4.11084,-2.9272 19.900399,-11.459 21.206839,-11.459 0.5434,0 0.71976,0.69912 0.392,1.553639 -0.328,0.854481 -0.0672,1.880561 0.57944,2.280161 0.71188,0.44 0.87776,0.2444 0.42048,-0.49528 -0.41532,-0.672 -0.2508,-1.22184 0.3656,-1.22184 3.42788,0 -0.036,3.25296 -8.15884,7.66164 -5.082639,2.75868 -12.693999,6.917319 -16.914118,9.241399 -4.22008,2.32412 -7.67292,3.7946 -7.67292,3.26772 0,-0.52688 -1.30968,0.3468 -2.9104,1.94192 -1.60072,1.59492 -3.862919,3.45744 -5.027079,4.138959 -2.07562,1.21504 -2.06538,1.28216 0.52916,3.46056 1.4552,1.2218 1.976959,1.86844 1.1594,1.43696 -0.98044,-0.51748 -1.22936,-0.3684 -0.73128,0.43732 0.41532,0.672 1.732439,1.22184 2.926959,1.22184 1.19448,0 6.2526,2.46492 11.2402,5.4776 l 9.068399,5.477559 3.7786,-2.1314 c 2.0782,-1.172279 6.636039,-3.709839 10.128559,-5.639079 3.49248,-1.9292 7.61412,-4.38748 9.159199,-5.46284 1.545077,-1.07532 3.835357,-1.95516 5.089557,-1.95516 1.25416,0 1.986,-0.47624 1.62624,-1.05832 -1.09236,-1.767479 1.65692,-1.18808 5.43132,1.14464 1.96048,1.21164 3.56452,2.86356 3.56452,3.67096 0,0.84488 0.64876,1.219 1.52856,0.8814 0.84072,-0.3228 5.41284,1.8038 10.16028,4.7254 l 8.63168,5.311959 5.97932,-3.228479 c 3.2886,-1.77568 7.16992,-4.06424 8.62516,-5.08564 1.4552,-1.02144 5.14612,-3.11684 8.20208,-4.65652 3.05592,-1.53968 5.55624,-3.15196 5.55624,-3.58288 0,-0.43088 -4.40532,-3.100079 -9.7896,-5.931519 -5.38424,-2.8314 -10.50396,-5.72276 -11.37708,-6.4252 -1.6258,-1.30804 -6.39072,-4.137439 -14.81664,-8.798239 -2.6194,-1.44892 -5.715,-3.43228 -6.87916,-4.40744 -1.1642,-0.9752 -4.5706,-2.87984 -7.56984,-4.23256 l -5.45316,-2.45948 -5.9574,3.01652 c -4.542556,2.30008 -6.374356,2.75348 -7.713036,1.909079 -2.20248,-1.389279 -3.00688,-3.601999 -1.30948,-3.601999 0.70272,0 4.11544,-1.895 7.583799,-4.21108 6.087997,-4.0654 6.427917,-4.1602 9.826197,-2.74028 1.93604,0.80892 6.19228,3.18016 9.45828,5.2694 3.26604,2.08924 6.40524,3.7986 6.976,3.7986 0.5708,0 1.0378,0.40392 1.0378,0.8976 0,0.493679 1.977,1.78912 4.3934,2.87876 2.41636,1.08964 6.58352,3.38904 9.2604,5.1098 2.67688,1.72076 7.96264,4.754679 11.7462,6.742079 3.78352,1.98736 7.60304,4.44024 8.48776,5.4508 0.88476,1.0106 2.19444,1.6422 2.91044,1.40352 0.71596,-0.2388 1.3018,0.082 1.3018,0.7126 0,0.6306 0.68736,1.14652 1.52748,1.14652 0.84012,0 2.27524,1.06756 3.18912,2.37236 1.43408,2.047399 1.65388,7.320919 1.60488,38.503716 -0.0644,41.08992 1.03472,36.59512 -10.55484,43.15672 -3.78352,2.14212 -7.59352,4.34508 -8.46664,4.89548 -0.87312,0.55036 -5.87376,3.32016 -11.11252,6.15508 -5.23876,2.83496 -15.32312,8.55656 -22.40968,12.71472 -7.08656,4.15812 -13.2778,7.51934 -13.75832,7.4693 -0.48052,-0.05 -2.06428,-0.46078 -3.51948,-0.91278 z m 11.80244,-10.63792 c 0.77756,0 13.2714,-7.0518 18.88924,-10.66152 0.87312,-0.561 2.77812,-1.60816 4.23332,-2.327 3.47984,-1.71896 17.22356,-9.76848 23.446,-13.73204 2.80912,-1.78932 5.09668,-4.11204 5.32436,-5.40624 0.2196,-1.24796 0.5548,-15.81524 0.745,-32.37168 l 0.3456,-30.102637 -2.49516,1.74896 c -5.21008,3.65188 -23.8554,14.535479 -24.9016,14.535479 -0.72588,0 -1.02488,7.7454 -0.88852,23.018758 0.2972,33.31072 1.03676,30.50012 -9.60604,36.51248 -4.89428,2.76492 -9.37596,5.02708 -9.95928,5.02708 -0.58332,0 -1.06056,0.42072 -1.06056,0.93492 0,0.5142 -0.83344,1.1992 -1.85208,1.52224 -2.48024,0.78656 -8.01116,4.16216 -8.97964,5.48036 -0.95584,1.30104 -1.06172,8.39128 -0.1392,9.31396 0.3692,0.3688 1.86196,-0.266 3.31772,-1.41112 1.45576,-1.14512 3.067,-2.082 3.58048,-2.082 z m -12.3316,-2.1412 c 0,-4.1912 -0.2832,-4.61072 -4.762476,-7.0532 -8.76188,-4.77776 -11.11424,-6.41816 -10.86064,-7.5736 0.1384,-0.63112 -0.3588,-0.91324 -1.1048,-0.62688 -0.746199,0.2864 -5.340879,-1.87392 -10.210399,-4.8006 -4.86952,-2.92664 -9.089879,-5.3212 -9.378599,-5.3212 -0.2888,0 -2.08592,-1.19064 -3.9938,-2.64584 -1.90788,-1.4552 -3.7178,-2.64584 -4.02208,-2.64584 -0.3044,0 -2.97636,-1.42872 -5.938059,-3.175 -2.96164,-1.74624 -5.60196,-3.175 -5.8674,-3.175 -0.69616,0 -0.56672,5.39888 0.198,8.25364 0.4066,1.51804 2.5618,3.40076 5.73148,5.00696 2.79394,1.4158 5.425299,3.13304 5.847459,3.81616 0.48004,0.77668 0.31,0.95904 -0.45424,0.4868 -0.67204,-0.41532 -1.22188,-0.2188 -1.22188,0.437 0,0.72396 0.8604,0.919 2.19096,0.49672 1.64372,-0.52172 2.33056,-0.1612 2.75012,1.44296 0.3164,1.20948 1.16192,1.907 1.94688,1.6058 1.63912,-0.629 4.56868,0.8228 18.304759,9.07112 14.359119,8.62244 19.702158,11.56384 20.315635,11.18392 0.2912,-0.18 0.52916,-2.33296 0.52916,-4.78392 z m 14.93756,-16.37964 c 6.29944,-3.78356 11.85396,-6.87916 12.34336,-6.87916 1.96828,0 -0.7306,-2.30256 -5.57812,-4.759 -2.82424,-1.43112 -6.95772,-3.84844 -9.18552,-5.37184 -2.22784,-1.52336 -6.7342,-4.13256 -10.01412,-5.79816 -3.27996,-1.66564 -6.620956,-3.64456 -7.424476,-4.39764 -0.80352,-0.75308 -3.35868,-2.30468 -5.67816,-3.44804 -2.31944,-1.14336 -6.8324,-3.71124 -10.028799,-5.70644 l -5.8116,-3.62764 -4.24256,2.40064 c -2.333399,1.32036 -7.814439,4.31168 -12.180039,6.6474 -4.36564,2.33568 -8.307379,4.57416 -8.759419,4.97436 -0.75992,0.67276 1.28844,2.01128 14.900659,9.737 2.7342,1.5518 5.546479,3.33776 6.249519,3.96876 0.703,0.631 1.48864,1.14724 1.7458,1.14724 1.54468,0 13.864639,8.47016 13.657359,9.38964 -0.1384,0.61464 0.48308,0.83552 1.3814,0.4908 0.93988,-0.3608 3.96716,0.95088 7.13104,3.08956 5.028559,3.39916 7.519076,4.7136 9.356436,4.93812 0.376,0.046 5.83776,-3.01208 12.13724,-6.7956 z m 17.09824,-36.09828 0.4036,-22.333598 -5.50616,-2.87908 c -3.02836,-1.58352 -9.61288,-5.510839 -14.6322,-8.727439 -5.01932,-3.21656 -8.53072,-5.22824 -7.80312,-4.4704 0.77468,0.80692 1.32292,4.16204 1.32292,8.096 0,5.928519 -0.3336,7.027279 -2.83924,9.349359 -1.5616,1.44724 -4.776277,3.54816 -7.143756,4.66876 -2.36748,1.120559 -6.20948,3.165278 -8.53784,4.543798 -2.32832,1.37856 -5.112919,2.9906 -6.188039,3.58232 -1.7598,0.9686 -1.54872,1.32756 2.116679,3.59976 2.23924,1.38816 4.54764,2.77212 5.12972,3.07552 2.7576,1.43728 11.701476,6.86648 12.170796,7.38804 0.2912,0.3236 3.14856,1.9728 6.35,3.66532 3.20148,1.69248 8.3304,4.66544 11.39764,6.60652 3.06724,1.94108 5.98552,3.52924 6.485,3.52924 0.49952,0 1.51804,0.7348 2.26336,1.63288 0.74536,0.89808 2.08684,1.492 2.98112,1.31976 1.3856,-0.2668 1.68556,-3.61408 2.02952,-22.64676 z m -60.126635,-16.553798 -0.0452,-5.55624 -11.778919,-6.8792 c -6.4784,-3.783519 -12.689099,-7.752279 -13.801539,-8.819439 -2.76232,-2.64988 -3.2464,-1.74692 -2.39236,4.46264 0.86392,6.281399 2.63352,7.895559 17.000379,15.506999 5.2112,2.760919 9.633719,5.429678 9.827719,5.930638 0.82684,2.1348 1.23184,0.55344 1.18972,-4.645398 z m 13.803359,-1.0076 c 1.4552,-0.7092 5.38428,-3.11208 8.73124,-5.33972 5.743276,-3.8226 6.085396,-4.2918 6.085396,-8.345239 v -4.29492 l -6.085396,3.45564 c -3.34696,1.900559 -7.03792,3.999999 -8.20208,4.665359 -9.371719,5.35632 -10.008279,6.1446 -10.039719,12.432479 l -0.016,2.888919 3.4396,-2.086559 c 1.89176,-1.147599 4.630199,-2.666799 6.085399,-3.375959 z"
     id="path2914" />
</svg>
