<?xml version="1.0" encoding="UTF-8" standalone="no"?>
<!-- Created with Inkscape (http://www.inkscape.org/) -->

<svg
   width="800"
   height="800"
   viewBox="0 0 211.66666 211.66667"
   version="1.1"
   fill="currentColor"
   id="svg19685"
   xmlns="http://www.w3.org/2000/svg"
   xmlns:svg="http://www.w3.org/2000/svg">
  <defs
     id="defs19682" />
  <path
     d="m 96.764556,177.95531 c -3.18444,-2.02872 -6.138884,-3.70081 -6.565453,-3.71577 -0.426609,-0.0161 -3.413674,-1.7147 -6.637998,-3.77729 -3.224285,-2.06254 -6.697143,-4.06229 -7.717482,-4.44384 -1.020339,-0.38159 -5.7652,-2.99369 -10.544167,-5.80469 -4.778928,-2.81095 -8.995222,-5.11088 -9.369508,-5.11088 -0.374366,0 -4.02867,-1.95537 -8.120778,-4.34533 l -7.44026,-4.3453 0.354304,-12.28848 c 0.199823,-6.92245 0.817948,-12.44252 1.415973,-12.64126 1.437959,-0.47789 23.110514,-14.01402 24.229881,-15.13338 0.864493,-0.8645 -5.355082,-4.7059 -17.329184,-10.703147 -9.131328,-4.573367 -9.693599,-5.570232 -9.332675,-16.546144 l 0.308561,-9.387645 5.529347,-3.751406 c 6.946239,-4.712721 26.727782,-17.224137 33.751342,-21.34694 2.919535,-1.713779 8.652394,-5.275034 12.739687,-7.913935 13.795294,-8.906625 13.211514,-8.771324 20.345054,-4.715409 3.40778,1.937556 9.77899,5.419603 14.15827,7.737905 4.37928,2.318302 8.67892,4.790003 9.55477,5.492752 0.87584,0.702709 2.441,1.578919 3.47811,1.947186 1.03711,0.368347 7.13423,3.785031 13.54913,7.592853 6.4149,3.807822 12.1082,6.923328 12.65173,6.923328 0.5435,0 1.71109,1.032055 2.59464,2.293504 1.33352,1.903851 1.61375,7.089245 1.64962,30.522163 0.0241,15.525765 0.33906,33.006025 0.70047,38.845055 l 0.65724,10.61643 -13.65931,8.24332 c -7.51264,4.5338 -18.19785,11.07935 -23.74493,14.54563 -5.54704,3.46628 -12.95199,7.81242 -16.45542,9.65809 -3.50339,1.84567 -6.8237,3.77997 -7.37839,4.29847 -2.14135,2.00155 -7.71848,0.85639 -13.372775,-2.74584 z m 7.480664,-10.12442 c 0,-3.67625 -0.49855,-4.4698 -4.511976,-7.18169 -2.481571,-1.67682 -9.625546,-5.75765 -15.875455,-9.06853 -6.24995,-3.31087 -13.654858,-7.30728 -16.455422,-8.8809 -2.800565,-1.57363 -8.674985,-4.85445 -13.054267,-7.2908 l -7.962284,-4.42964 -0.317389,3.36316 c -0.603038,6.39288 1.00148,8.20199 12.672518,14.28847 6.050448,3.15535 12.19519,6.54652 13.654938,7.53596 1.459747,0.9894 7.43147,4.32656 13.2705,7.41582 5.83903,3.0893 11.333025,6.20469 12.208873,6.92309 1.987833,1.63052 4.527184,2.49986 5.573604,1.90818 0.43792,-0.24757 0.79624,-2.31003 0.79624,-4.58312 z m 39.8115,-15.62086 c 3.50343,-1.99064 9.47516,-5.59302 13.27054,-8.00534 3.79534,-2.41231 7.05121,-4.48164 7.23522,-4.59844 0.18417,-0.11677 0.20785,-10.41288 0.053,-22.88008 -0.15489,-12.4672 -0.21668,-27.550984 -0.13763,-33.519498 l 0.14405,-10.851845 -4.38005,2.764973 c -5.19731,3.280941 -14.10903,8.424243 -17.64561,10.183965 l -2.52242,1.25511 0.538,27.929165 0.53804,27.92917 -3.69869,3.04877 c -2.03429,1.67683 -6.15754,4.3522 -9.16282,5.94528 -3.00528,1.59309 -8.44996,4.80361 -12.09937,7.13451 l -6.63527,4.23796 v 5.1864 5.18643 l 14.06674,-8.66362 c 7.7367,-4.76497 16.93319,-10.29227 20.43658,-12.28291 z m -32.50534,1.66186 c 16.01413,-9.5583 19.17907,-11.8892 18.02764,-13.2766 -0.64686,-0.77939 -1.55332,-1.41705 -2.01444,-1.41705 -0.79688,0 -5.68049,-2.65917 -24.85109,-13.53168 -4.63781,-2.63031 -10.131805,-5.74482 -12.208835,-6.92112 -2.07707,-1.1763 -6.642934,-3.70871 -10.146368,-5.62753 l -6.369843,-3.48879 -11.882577,7.08768 c -6.535439,3.89822 -11.909982,7.3509 -11.943446,7.67266 -0.05497,0.52957 11.611251,7.46743 19.579474,11.64368 1.751697,0.9181 5.253285,2.99127 7.78128,4.60703 5.625324,3.59548 27.956285,15.42389 29.250845,15.49378 0.51496,0.0281 2.66478,-0.98113 4.77736,-2.24206 z m 23.98612,-25.57547 c -0.17534,-4.23327 -0.36072,-14.87591 -0.41188,-23.65024 l -0.0927,-15.953297 -8.75857,-4.495444 c -4.81716,-2.472462 -10.90834,-5.689966 -13.53588,-7.149994 l -4.7774,-2.654549 -0.31017,7.974923 c -0.18217,4.688125 -0.77152,7.974964 -1.42969,7.974964 -0.6158,0 -5.01479,2.536622 -9.775537,5.63696 -4.760751,3.100298 -10.208522,6.322257 -12.106234,7.159827 -1.897671,0.83757 -3.450308,1.77453 -3.450308,2.08208 0,0.30776 2.269229,1.74364 5.042789,3.19118 2.77352,1.44755 7.560192,4.1846 10.637017,6.08227 3.076825,1.89767 5.757653,3.45031 5.957403,3.45031 0.43363,0 11.70851,6.3123 23.45679,13.13243 4.65711,2.7035 8.78376,4.91547 9.17041,4.91547 0.3868,0 0.55942,-3.46359 0.38399,-7.69689 z M 71.334376,95.66432 v -5.294854 l -7.266437,-3.65932 c -3.99653,-2.012629 -9.750414,-5.123922 -12.786392,-6.914018 -3.036018,-1.790057 -5.737834,-3.254699 -6.004104,-3.254699 -0.266029,0 -0.484108,1.565798 -0.484108,3.479519 0,3.71076 2.478682,8.174947 4.572203,8.234733 0.696731,0.02006 5.805365,2.859588 11.352405,6.310418 5.547081,3.45083 10.205031,6.300991 10.351006,6.333651 0.146055,0.0321 0.265226,-2.323278 0.265226,-5.23543 z m 22.029025,-5.431279 8.758529,-5.485328 v -4.720545 -4.720546 l -3.450313,2.102028 c -1.897712,1.156122 -7.630571,4.557719 -12.739687,7.559149 l -9.289378,5.45712 v 5.282576 5.282575 l 3.981162,-2.63581 c 2.189621,-1.449756 7.92248,-5.104261 12.739687,-8.121219 z M 83.863005,78.93015 c 5.607188,-3.357459 12.367608,-7.398207 15.02312,-8.979453 2.655555,-1.581246 5.691125,-2.895018 6.745695,-2.919494 2.11118,-0.04895 10.80129,4.101938 19.8378,9.475758 10.29166,6.120266 9.30093,6.218452 23.46662,-2.324922 l 12.70971,-7.665279 -7.73297,-4.018719 c -4.25312,-2.210326 -8.44956,-4.498213 -9.32541,-5.084199 -0.87584,-0.586025 -5.17552,-3.038224 -9.55476,-5.449375 -4.37928,-2.411152 -12.62702,-6.979142 -18.3283,-10.151064 L 106.3385,36.046237 87.509364,47.426891 C 77.153383,53.68627 64.232733,61.431558 58.796839,64.638669 c -5.435854,3.207111 -9.496624,6.192612 -9.023912,6.634428 0.472673,0.441816 5.397976,3.29033 10.945016,6.329999 5.547081,3.039669 10.539433,5.955232 11.094161,6.479064 1.405659,1.327415 0.790583,1.590354 12.050901,-5.15201 z"
     id="path13578" />
</svg>
