<?xml version="1.0" encoding="UTF-8" standalone="no"?>
<!-- Created with Inkscape (http://www.inkscape.org/) -->

<svg
   width="800"
   height="800"
   viewBox="0 0 211.66666 211.66667"
   version="1.1"
   fill="currentColor"
   id="svg5"
   xmlns="http://www.w3.org/2000/svg"
   xmlns:svg="http://www.w3.org/2000/svg">
  <defs
     id="defs2" />
  <g
     id="layer1" />
  <path d="m 100.27941,149.66432 c -1.455203,-1.13828 -2.987002,-2.08016 -3.404002,-2.09312 -0.82436,-0.024 -26.562319,-14.634 -32.579318,-18.49144 -2.03728,-1.30608 -7.86552,-4.7098 -12.951639,-7.5638 -5.08608,-2.85404 -9.523561,-5.90348 -9.861041,-6.77664 -0.3376,-0.87312 -0.2752,-9.60936 0.138,-19.41392 0.862761,-20.466039 0.3716,-19.426559 12.03108,-25.461999 3.81672,-1.975679 9.48764,-5.307479 12.60208,-7.403959 3.114439,-2.09648 6.448159,-3.8114 7.408319,-3.81092 2.1036,10e-4 15.366879,2.70508 23.486199,4.78824 6.470602,1.66012 25.024242,5.524479 33.292882,6.934239 2.9104,0.4962 9.57791,1.8832 14.81663,3.0822 5.23876,1.19904 11.90628,2.70656 14.81668,3.35012 9.57572,2.11736 8.99584,0.72792 8.99584,21.554079 v 18.46856 l -3.96876,2.50712 c -5.80484,3.66704 -42.41303,24.21352 -49.80419,27.95284 -3.0522,1.54412 -3.64292,1.5728 -4.59776,0.2228 -0.92384,-1.30592 -1.00996,-1.2786 -0.54932,0.1744 1.32316,4.17352 -5.35532,5.51376 -9.87164,1.98104 z m 2.43792,-19.57916 0.6148,-13.75832 -10.199922,-5.82084 c -5.60992,-3.20144 -11.917279,-6.78212 -14.016319,-7.957 -2.09904,-1.17488 -6.17312,-3.603201 -9.05352,-5.39624 C 63.04561,92.78484 47.824451,84.04768 47.231771,84.04768 c -0.396,0 -0.3896,20.88236 0.008,26.64336 0.074,1.0682 4.01244,3.98924 9.912039,7.35116 5.38428,3.06824 12.170839,7.087 15.081279,8.9306 2.9104,1.84364 7.67288,4.6256 10.58332,6.18216 8.565799,4.5812 17.238761,9.58284 18.086081,10.43016 0.43312,0.43316 0.88024,0.66848 0.99352,0.52296 0.1132,-0.1456 0.48268,-6.45584 0.8208,-14.02292 z m 29.31208,1.00936 c 3.78356,-2.03704 9.01883,-4.96164 11.63399,-6.49908 2.61516,-1.53744 8.09204,-4.7618 12.17084,-7.16528 l 7.416,-4.36992 0.2972,-13.591081 0.2972,-13.591079 -2.94312,1.9332 c -4.04,2.65372 -13.88992,8.24832 -24.63892,13.99452 -4.94771,2.64496 -10.18647,5.6012 -11.64167,6.56944 -1.4552,0.96824 -4.78896,2.75736 -7.40832,3.97584 -8.54056,3.97284 -8.35836,3.60384 -8.85484,17.93392 -0.246,7.09488 -0.2252,13.12144 0.0456,13.39228 0.2708,0.2708 4.14972,-1.61608 8.61964,-4.19328 4.46992,-2.57716 11.22276,-6.35244 15.00628,-8.38948 z m -23.69332,-19.33736 c -0.49808,-0.80588 8.05536,-6.22164 17.87248,-11.31628 2.32836,-1.208281 10.55071,-5.74824 18.27195,-10.0888 13.66596,-7.682439 13.94688,-7.911599 10.58332,-8.633199 -8.49252,-1.82192 -24.63615,-5.20272 -36.79275,-7.70512 -7.27604,-1.49776 -20.014042,-4.17896 -28.306682,-5.958279 l -15.077479,-3.23508 -3.44336,2.07448 c -1.8938,1.14096 -5.586439,3.262839 -8.205799,4.715239 -8.85752,4.91148 -11.628319,6.61492 -11.623319,7.14588 0.008,0.78236 12.474479,8.511439 17.973318,11.142639 2.61936,1.25336 5.41612,3.06904 6.215,4.03476 0.79888,0.96576 1.98948,1.76 2.64584,1.76496 0.65632,0.004 7.622679,3.810879 15.480799,8.45764 14.900002,8.8108 15.277322,9.00988 14.406682,7.60116 z"
     id="path3474" />
</svg>
