<?xml version="1.0" encoding="UTF-8" standalone="no"?>
<svg
   width="800px"
   height="800px"
   viewBox="0 0 24 24"
   fill= "currentColor"   
   version="1.1"
   xmlns="http://www.w3.org/2000/svg"
   xmlns:svg="http://www.w3.org/2000/svg">
  <path
     d="m 11.996094,2.7773438 c -0.510913,0 -0.981581,0.2329715 -1.363281,0.5761718 C 10.251112,3.696716 9.9328289,4.1541833 9.6523438,4.703125 9.0913734,5.8010084 8.6839519,7.2767569 8.4648438,8.9882813 8.3231884,9.9844106 8.2548772,10.989955 8.2597656,11.996094 c -6.8e-6,0.0013 6.6e-6,0.0026 0,0.0039 6.6e-6,0.0013 -6.8e-6,0.0026 0,0.0039 -0.00489,1.00614 0.063423,2.011683 0.2050782,3.007813 0.2189267,1.710106 0.6215753,3.184488 1.1796875,4.283203 0.279056,0.549357 0.5966647,1.007744 0.9804687,1.351562 0.383804,0.343818 0.857329,0.576172 1.371094,0.576172 0.541543,0 1.036937,-0.257294 1.433594,-0.632812 0.396656,-0.375519 0.72332,-0.875678 1.009765,-1.47461 a 0.60141498,0.60141498 0 0 0 -0.283203,-0.800781 0.60141498,0.60141498 0 0 0 -0.802734,0.28125 c -0.242799,0.507671 -0.509106,0.891188 -0.751953,1.121094 -0.242848,0.229906 -0.433334,0.302734 -0.605469,0.302734 -0.16383,0 -0.341227,-0.06606 -0.56836,-0.269531 -0.227133,-0.203469 -0.478791,-0.542991 -0.710937,-1 -0.464293,-0.914019 -0.852521,-2.280924 -1.0585939,-3.890625 a 0.60147512,0.60147512 0 0 0 -0.00195,-0.0098 C 9.5217992,13.9067 9.4579032,12.95634 9.4628906,12.003906 a 0.60147512,0.60147512 0 0 0 0,-0.002 0.60147512,0.60147512 0 0 0 0,-0.002 0.60147512,0.60147512 0 0 0 0,-0.002 0.60147512,0.60147512 0 0 0 0,-0.002 C 9.4579032,11.04366 9.5217993,10.0933 9.65625,9.1503906 a 0.60147512,0.60147512 0 0 0 0.00195,-0.00977 C 9.8640945,7.5323415 10.257161,6.1668035 10.724609,5.2519531 10.958334,4.794528 11.210519,4.4521337 11.4375,4.2480469 c 0.226981,-0.2040868 0.403941,-0.2675781 0.558594,-0.2675781 0.151634,0 0.328918,0.064387 0.55664,0.2714843 0.227723,0.207097 0.480703,0.553149 0.714844,1.0136719 0.468282,0.9210459 0.860605,2.2887863 1.066406,3.8769531 a 0.60147512,0.60147512 0 0 0 0.002,0.00977 c 0.100224,0.683145 0.15921,1.3722902 0.177734,2.0625002 a 0.60141498,0.60141498 0 0 0 0.617187,0.583984 0.60141498,0.60141498 0 0 0 0.585938,-0.617187 C 15.697029,10.445085 15.632192,9.7114586 15.525391,8.9824219 15.305971,7.2938344 14.8992,5.8208804 14.339844,4.7207031 14.059775,4.1698474 13.742287,3.7077831 13.361328,3.3613281 12.980369,3.0148732 12.510025,2.7773438 11.996094,2.7773438 Z"
     id="path6" />
  <path
     d="M 11.994141,8.2636719 C 10.976497,8.2464481 9.9602668,8.3046672 8.9511719,8.4375 7.2596252,8.656698 5.7853052,9.0648631 4.6835937,9.625 4.132738,9.9050684 3.6726268,10.222556 3.3261719,10.603516 2.979717,10.984475 2.7421875,11.454818 2.7421875,11.96875 c 0,0.510912 0.2329715,0.979628 0.5761719,1.361328 0.3432003,0.3817 0.8006677,0.699984 1.3496093,0.980469 1.0963606,0.560192 2.5708007,0.968171 4.2792969,1.1875 0.00237,3.05e-4 0.00349,0.0016 0.00586,0.002 0.7319348,0.10676 1.469543,0.17041 2.208984,0.189453 a 0.60147512,0.60147512 0 0 0 0.01563,0 h 0.802735 0.800781 0.738281 a 0.60141498,0.60141498 0 0 0 0.601563,-0.601562 0.60141498,0.60141498 0 0 0 -0.601563,-0.601563 H 12.78125 11.980469 11.193359 C 10.49797,14.468419 9.80546,14.409432 9.1171875,14.308594 a 0.60147512,0.60147512 0 0 0 -0.011719,-0.002 C 7.4971852,14.100749 6.1296941,13.707683 5.2148437,13.240234 4.7574186,13.00651 4.4169774,12.752372 4.2128906,12.525391 4.0088038,12.29841 3.9453125,12.123403 3.9453125,11.96875 c 0,-0.151634 0.062434,-0.328918 0.2695312,-0.556641 0.207097,-0.227722 0.553149,-0.480702 1.0136719,-0.714843 0.9210459,-0.468282 2.2887863,-0.8625582 3.8769532,-1.0683597 a 0.60147512,0.60147512 0 0 0 0.00195,0 C 10.061383,9.5033311 11.024285,9.4499679 11.986328,9.4667969 a 0.60147512,0.60147512 0 0 0 0.01172,0 c 0.824353,-0.00212 1.647967,0.043402 2.466797,0.1386719 0.0013,1.503e-4 0.0026,-1.507e-4 0.0039,0 l 0.376953,0.054687 a 0.60147512,0.60147512 0 0 0 0.0098,0.00195 c 1.608283,0.2058914 2.973821,0.5989576 3.888672,1.0664066 0.457425,0.233724 0.799819,0.485909 1.003906,0.71289 0.204087,0.226981 0.267578,0.403941 0.267578,0.558594 0,0.172135 -0.07283,0.362621 -0.302734,0.605469 -0.229906,0.242847 -0.613423,0.509153 -1.121094,0.751953 a 0.60141498,0.60141498 0 0 0 -0.28125,0.802734 0.60141498,0.60141498 0 0 0 0.800781,0.283203 c 0.598932,-0.286446 1.099091,-0.613109 1.474609,-1.009765 0.375519,-0.396657 0.63086,-0.892051 0.63086,-1.433594 0,-0.510912 -0.231019,-0.981581 -0.574219,-1.363281 C 20.299378,10.255018 19.84191,9.9367352 19.292969,9.65625 18.195085,9.0952797 16.719337,8.6878582 15.007813,8.46875 l -0.384766,-0.054687 a 0.60147512,0.60147512 0 0 0 -0.01563,-0.00195 C 13.743951,8.3114816 12.875165,8.2618965 12.005859,8.2636719 Z"
     id="path8" />
  <path
     d="m 12,11.941406 a 1.039085,1.039085 0 0 0 -0.734375,0.304688 1.039085,1.039085 0 0 0 0,1.46875 l 2.195313,2.195312 -2.195313,2.195313 a 1.039085,1.039085 0 0 0 0,1.46875 1.039085,1.039085 0 0 0 1.46875,0 l 2.929688,-2.929688 a 1.0391889,1.0391889 0 0 0 0,-1.46875 L 12.734375,12.246094 A 1.039085,1.039085 0 0 0 12,11.941406 Z"
     id="polyline10"
     transform="matrix(0.62633364,0,0,0.53486312,4.9944046,6.6257051)" />
</svg>
