<?xml version="1.0" encoding="UTF-8" standalone="no"?>
<svg
   width="666.66669"
   height="666.66669"
   viewBox="0 0 20.000001 20.000001"
   fill="currentColor"
   version="1.1"
   xmlns="http://www.w3.org/2000/svg"
   xmlns:svg="http://www.w3.org/2000/svg">
  <path d="M 7.9327672,6.3823426 A 1.5504246,1.5504246 0 0 1 6.3823426,7.9327672 1.5504246,1.5504246 0 0 1 4.831918,6.3823426 1.5504246,1.5504246 0 0 1 6.3823426,4.831918 1.5504246,1.5504246 0 0 1 7.9327672,6.3823426 Z" />
  <path d="m 15.168082,13.617657 a 1.5504246,1.5504246 0 0 1 -1.550425,1.550425 1.5504246,1.5504246 0 0 1 -1.550424,-1.550425 1.5504246,1.5504246 0 0 1 1.550424,-1.550424 1.5504246,1.5504246 0 0 1 1.550425,1.550424 z" />
  <path d="m 9.0956373,6.3823426 c 0,-0.2140672 0.1735442,-0.3876062 0.3876062,-0.3876062 h 2.6522085 c 1.421842,0 1.962579,1.8568919 0.763015,2.6202538 L 7.5178374,12.039015 C 6.9725737,12.386 7.2183625,13.230051 7.864657,13.230051 H 9.5810753 L 9.4675842,13.116509 c -0.1513731,-0.151374 -0.1513731,-0.396754 0,-0.548127 0.1513731,-0.151373 0.3967536,-0.151373 0.5481268,0 l 0.775212,0.775212 c 0.151373,0.151373 0.151373,0.396754 0,0.548127 l -0.775212,0.775212 c -0.1513732,0.151373 -0.3967537,0.151373 -0.5481268,0 -0.1513731,-0.151373 -0.1513731,-0.396754 0,-0.548127 L 9.5810753,14.005264 H 7.864657 c -1.4218634,0 -1.9625791,-1.856892 -0.7630156,-2.62027 L 12.482281,7.9609746 C 13.027514,7.6139895 12.78172,6.7699487 12.135452,6.7699487 H 9.4832435 c -0.214062,0 -0.3876062,-0.173539 -0.3876062,-0.3876061 z" />
</svg>
