<?xml version="1.0" encoding="UTF-8" standalone="no"?>
<svg
   version="1.1"
   width="800px"
   height="800px"
   fill="currentColor"
   viewBox="0 0 32 32"
   xml:space="preserve"
   xmlns="http://www.w3.org/2000/svg"
   xmlns:svg="http://www.w3.org/2000/svg"><defs
   id="defs9" />
<path d="M 16,9.8530423 V 22.146958 c 0,0.676165 -0.474545,0.944787 -1.054203,0.596869 l -4.038551,-2.42313 C 10.327587,19.972779 9.2998161,19.688175 8.6236507,19.688175 H 8.008955 c -0.6761654,0 -1.2293916,-0.553227 -1.2293916,-1.229392 v -4.917566 c 0,-0.676165 0.5532262,-1.229392 1.2293916,-1.229392 h 0.6146957 c 0.6761654,0 1.7039363,-0.284604 2.2835953,-0.632522 L 14.945797,9.2561727 C 15.525455,8.9082549 16,9.1768769 16,9.8530423 Z m 6.519463,-0.3725056 c -0.480077,-0.4800774 -1.258282,-0.4800774 -1.738359,0 -0.480078,0.4800774 -0.480078,1.2582823 0,1.7383593 1.276723,1.277338 1.980549,2.975128 1.980549,4.781104 0,1.805976 -0.703826,3.503766 -1.980549,4.781104 -0.480078,0.480077 -0.480078,1.258282 0,1.738359 0.240346,0.240346 0.554455,0.360212 0.86918,0.360212 0.314724,0 0.628833,-0.119866 0.869179,-0.360212 C 24.260896,20.77803 25.220437,18.463086 25.220437,16 c 0,-2.463086 -0.959541,-4.77803 -2.700974,-6.5194633 z m -2.608154,2.6075393 c -0.480077,-0.480077 -1.258282,-0.480077 -1.738359,0 -0.480078,0.480078 -0.480078,1.258282 0,1.73836 0.580272,0.580887 0.900529,1.35233 0.900529,2.173564 0,0.821234 -0.319642,1.592677 -0.899915,2.17295 -0.480077,0.480077 -0.480077,1.258282 0,1.738359 0.240346,0.240346 0.554456,0.360212 0.86918,0.360212 0.314724,0 0.628834,-0.119866 0.86918,-0.360212 1.044983,-1.044368 1.620338,-2.43358 1.620338,-3.911309 0,-1.477729 -0.57597,-2.866941 -1.620953,-3.911924 z" />
</svg>
