<?xml version="1.0" encoding="UTF-8" standalone="no"?>
<svg
   width="800px"
   height="800px"
   viewBox="0 0 24 24"
   fill="currentColor"
   version="1.1"
   xmlns="http://www.w3.org/2000/svg"
   xmlns:svg="http://www.w3.org/2000/svg">
  <path
     d="M 11.275037,5.5955932 C 10.894842,5.5953163 10.611457,5.6060806 10.298629,5.7291061 9.9992998,5.8468241 9.7348734,6.0375464 9.5285345,6.2842904 9.2630909,6.6017009 9.1711954,6.9310224 9.0032137,7.4349545 L 8.97635,7.517068 H 6.8764999 A 0.64047397,0.64047397 0 0 0 6.236247,8.1573209 0.64047397,0.64047397 0 0 0 6.8764999,8.7975738 h 0.6820259 l 0.4731155,7.0965082 c 0.044923,0.673841 0.044091,1.098878 0.2955014,1.540189 0.1921846,0.337359 0.4819468,0.609735 0.8312541,0.779049 0.457043,0.221479 0.8812422,0.192524 1.5566202,0.192524 h 2.569966 c 0.675378,0 1.099558,0.02898 1.55662,-0.192524 0.349282,-0.169311 0.63905,-0.441706 0.831254,-0.779049 0.251329,-0.441272 0.250601,-0.866329 0.295502,-1.540189 L 16.441474,8.7975738 H 17.1235 A 0.64047397,0.64047397 0 0 0 17.763753,8.1573209 0.64047397,0.64047397 0 0 0 17.1235,7.517068 H 15.02365 L 14.99679,7.434954 C 14.828782,6.9309949 14.736819,6.6016455 14.471465,6.2842904 14.265151,6.037587 14.000725,5.8468303 13.701371,5.7291061 13.316352,5.5776953 12.975938,5.5963096 12.444729,5.5963096 h -0.889458 c -0.0996,0 -0.192497,-6.524e-4 -0.280234,-7.164e-4 z m 0.280234,1.2812222 h 0.889458 c 0.531209,0 0.720977,0.018414 0.788004,0.044773 0.09979,0.039242 0.187896,0.1027391 0.256728,0.1850466 0.02585,0.030919 0.106812,0.2677541 0.16266,0.4104332 h -3.304242 c 0.05584,-0.1426709 0.136829,-0.3795446 0.16266,-0.4104332 0.06879,-0.082267 0.156927,-0.1457975 0.256728,-0.1850466 0.06701,-0.026354 0.256795,-0.044773 0.788004,-0.044773 z M 8.840509,8.7975738 h 6.318982 l -0.468638,7.0114402 c -0.04483,0.672827 -0.09019,0.920837 -0.129842,0.990959 -0.06411,0.112527 -0.160994,0.203163 -0.277592,0.259683 -0.0721,0.03494 -0.323058,0.06416 -0.998436,0.06416 h -2.569966 c -0.675378,0 -0.926282,-0.0292 -0.9984363,-0.06416 C 9.5999825,17.003139 9.5030827,16.91396 9.4389887,16.801451 9.3993047,16.731792 9.35407,16.482856 9.3091472,15.809014 Z"
     id="path2"
     style="stroke-width:0.0229237" />
  <path
     d="m 13.280505,10.079557 a 0.64047396,0.64047396 0 0 0 -0.640252,0.640253 v 4.483262 a 0.64047396,0.64047396 0 0 0 0.640252,0.640253 0.64047396,0.64047396 0 0 0 0.640254,-0.640253 V 10.71981 a 0.64047396,0.64047396 0 0 0 -0.640254,-0.640253 z"
     id="path4"
     style="stroke-width:0.764125" />
  <path
     d="m 10.719495,10.079557 a 0.64047396,0.64047396 0 0 0 -0.640254,0.640253 v 4.483262 a 0.64047396,0.64047396 0 0 0 0.640254,0.640253 0.64047396,0.64047396 0 0 0 0.640252,-0.640253 V 10.71981 a 0.64047396,0.64047396 0 0 0 -0.640252,-0.640253 z"
     id="path6"
     style="stroke-width:0.764125" />
</svg>
