<?xml version="1.0" encoding="UTF-8" standalone="no"?>
<svg
   width="800px"
   height="800px"
   viewBox="0 0 24 24"
   fill="currentColor"
   version="1.1"
   id="svg8"
   xmlns="http://www.w3.org/2000/svg"
   xmlns:svg="http://www.w3.org/2000/svg">
  <defs
     id="defs833" />
  <path
     d="m 12.75422,17.028133 c 0,0.416541 -0.33769,0.75422 -0.75422,0.75422 -0.41653,0 -0.75422,-0.337679 -0.75422,-0.75422 v -5.218497 l -1.7293455,1.729275 c -0.2945379,0.294548 -0.7720899,0.294548 -1.0666278,0 -0.2945379,-0.294548 -0.2945379,-0.772019 0,-1.066567 L 11.466717,9.4554639 C 11.608107,9.3139729 11.799981,9.2345279 12,9.2345279 c 0.200019,0 0.391893,0.07944 0.533283,0.220936 l 3.01688,3.0168801 c 0.294548,0.294548 0.294548,0.772019 0,1.066567 -0.294548,0.294548 -0.77202,0.294548 -1.066567,0 L 12.75422,11.809636 Z"
     id="path2"
     style="stroke-width:0.794585" />
  <path
     d="m 7.9774941,7.7260889 c -0.4165405,0 -0.7542198,-0.33769 -0.7542198,-0.754221 0,-0.41653 0.3376793,-0.75422 0.7542198,-0.75422 h 8.0450119 c 0.416531,0 0.75422,0.33769 0.75422,0.75422 0,0.416531 -0.337689,0.754221 -0.75422,0.754221 z"
     id="path4"
     style="stroke-width:0.794585" />
</svg>
