<?xml version="1.0" encoding="UTF-8" standalone="no"?>
<svg
   id="svg6"
   fill="currentColor"
   width="584.19427"
   height="520.32501"
   viewBox="-4.5 0 23.367771 20.813"
   version="1.1"
   xmlns="http://www.w3.org/2000/svg">
  <path
     d="m 14.981386,7 3.625,3.313 c 0.438,0.406 0.313,0.719 -0.281,0.719 h -2.719 v 8.656 c 0,0.594 -0.5,1.125 -1.094,1.125 h -4.719 V 14.75 c 0,-0.594 -0.531,-1.125 -1.125,-1.125 h -2.969 c -0.594,0 -1.125,0.531 -1.125,1.125 v 6.063 h -4.71900005 c -0.594,0 -1.12499995,-0.531 -1.12499995,-1.125 v -8.656 h -2.688 c -0.594,0 -0.719,-0.313 -0.281,-0.719 l 10.594,-9.625 c 0.438,-0.406 1.188,-0.406 1.656,0 l 2.406,2.156 V 1.125 c 0,-0.594 0.531,-1.125 1.125,-1.125 h 2.344 c 0.594,0 1.094,0.531 1.094,1.125 V 7 Z"
   />
</svg>
