<?xml version="1.0" encoding="UTF-8" standalone="no"?>
<svg
   width="716.66669"
   height="716.66669"
   viewBox="0 0 21.500001 21.500001"
   fill="currentColor"
   version="1.1"
   id="svg6"
   xmlns="http://www.w3.org/2000/svg"
   xmlns:svg="http://www.w3.org/2000/svg">
  <path
     d="m 13.296875,6.3300781 c -0.347141,-0.011391 -0.712106,0.052321 -1.082031,0.1503906 -0.73985,0.1961391 -1.612679,0.5517172 -2.767578,1.0136719 -0.49272,0.197078 -0.826036,0.313047 -1.1484379,0.5957032 v 0.00195 C 8.2251006,8.1564902 8.1564902,8.2251006 8.0917969,8.2988281 h -0.00195 C 7.8071876,8.62123 7.6912102,8.954542 7.4941406,9.447266 c -0.4619599,1.154899 -0.8175313,2.027727 -1.0136719,2.767578 -0.1961405,0.73985 -0.2554397,1.459474 0.1503907,2.05664 0.1594189,0.234599 0.363103,0.436285 0.5976562,0.595703 0.5971828,0.405841 1.3167813,0.346537 2.0566404,0.150391 0.73986,-0.196146 1.612684,-0.549771 2.767578,-1.011719 0.492527,-0.19707 0.825881,-0.314667 1.148438,-0.597656 0.07402,-0.06486 0.142171,-0.133013 0.207031,-0.207031 0.282989,-0.322557 0.400586,-0.655911 0.597656,-1.148438 0.461948,-1.154894 0.815573,-2.027718 1.011719,-2.767578 C 15.213724,8.5452969 15.273028,7.8256984 14.867187,7.2285156 14.707769,6.9939624 14.506083,6.7902783 14.271484,6.6308594 13.972901,6.4279442 13.644016,6.3414689 13.296875,6.3300781 Z m 0.130859,1.5429688 c 0.0782,0.053141 0.146038,0.1190192 0.199219,0.1972656 0.04246,0.062477 0.09516,0.2501238 -0.05859,0.8300785 -0.153753,0.579954 -0.493126,1.4408 -0.955078,2.595703 -0.197129,0.492672 -0.27602,0.651001 -0.332031,0.714844 v 0.002 c -0.02154,0.02458 -0.04378,0.04682 -0.06836,0.06836 h -0.002 c -0.06384,0.05601 -0.222172,0.134902 -0.714844,0.332031 -1.154903,0.461952 -2.015749,0.801325 -2.595703,0.955078 C 8.3203923,13.722161 8.1327451,13.66946 8.0702685,13.626997 7.9920225,13.573817 7.9261438,13.50598 7.8730029,13.427778 7.8305739,13.365348 7.7778479,13.179601 7.9315969,12.599653 8.085346,12.019705 8.4247159,11.158848 8.886675,10.00395 9.083283,9.51238 9.162445,9.353588 9.218706,9.289107 v -0.002 c 0.02111,-0.02397 0.04439,-0.04725 0.06836,-0.06836 0.0642,-0.05628 0.224118,-0.13497 0.716797,-0.332031 1.154899,-0.4619546 2.015755,-0.8013303 2.595703,-0.9550784 0.579949,-0.1537481 0.765692,-0.1010229 0.828125,-0.058594 z" />
  <path
     d="M 10.75,0 C 8.794922,0 6.9563029,0.5247213 5.375,1.4394531 A 0.75,0.75 0 0 0 5.1015625,2.4628906 0.75,0.75 0 0 0 6.125,2.7363281 C 7.4854342,1.9493616 9.062282,1.5 10.75,1.5 15.867462,1.5 20,5.6324893 20,10.75 20,15.867457 15.867457,20 10.75,20 5.6324893,20 1.5,15.867462 1.5,10.75 1.5,9.062282 1.9493616,7.4854342 2.7363281,6.125 A 0.75,0.75 0 0 0 2.4628906,5.1015625 0.75,0.75 0 0 0 1.4394531,5.375 C 0.5247213,6.9563029 0,8.794922 0,10.75 0,16.678127 4.8218217,21.5 10.75,21.5 16.678132,21.5 21.5,16.678132 21.5,10.75 21.5,4.8218217 16.678127,0 10.75,0 Z" />
</svg>
