<?xml version="1.0" encoding="UTF-8" standalone="no"?>
<svg
   width="666.66669"
   height="666.66669"
   viewBox="0 0 20.000001 20.000001"
   fill="currentColor"
   version="1.1"
   id="svg8"
   xmlns="http://www.w3.org/2000/svg"
   xmlns:svg="http://www.w3.org/2000/svg">
  <path
     d="M 6,3 A 3,3 0 0 1 3,6 3,3 0 0 1 0,3 3,3 0 0 1 3,0 3,3 0 0 1 6,3 Z" />
  <path
     d="m 20,17 a 3,3 0 0 1 -3,3 3,3 0 0 1 -3,-3 3,3 0 0 1 3,-3 3,3 0 0 1 3,3 z" />
  <path
     d="m 8.2501,3 c 0,-0.41421 0.3358,-0.75 0.75,-0.75 h 5.1319 c 2.7512,0 3.7975,3.593 1.4764,5.07007 L 5.19713,13.9454 C 4.14207,14.6168 4.61766,16.25 5.86821,16.25 H 9.1894 L 8.9698,16.0303 c -0.2929,-0.2929 -0.2929,-0.7677 0,-1.0606 0.2929,-0.2929 0.7677,-0.2929 1.0606,0 l 1.5,1.5 c 0.2929,0.2929 0.2929,0.7677 0,1.0606 l -1.5,1.5 c -0.2929,0.2929 -0.7677,0.2929 -1.0606,0 -0.2929,-0.2929 -0.2929,-0.7677 0,-1.0606 L 9.1894,17.75 H 5.86821 c -2.75124,0 -3.7975,-3.593 -1.4764,-5.0701 L 14.8031,6.05458 C 15.8581,5.38318 15.3825,3.75 14.132,3.75 H 9.0001 C 8.5859,3.75 8.2501,3.41421 8.2501,3 Z" />
</svg>
